<?xml version="1.0" encoding="utf-8"?>
<!-- Generator: Adobe Illustrator 16.0.0, SVG Export Plug-In . SVG Version: 6.00 Build 0)  -->
<!DOCTYPE svg PUBLIC "-//W3C//DTD SVG 1.1//EN" "http://www.w3.org/Graphics/SVG/1.1/DTD/svg11.dtd">
<svg version="1.1" xmlns="http://www.w3.org/2000/svg" xmlns:xlink="http://www.w3.org/1999/xlink" x="0px" y="0px" width="1500px"
	 height="850px" viewBox="0 0 1500 850" enable-background="new 0 0 1500 850" xml:space="preserve">
<g id="BACKGROUND_1_">
	<g id="BACKGROUND">
		<rect x="0.5" y="1.5" fill="#FFFFFF" stroke="#000000" stroke-miterlimit="10" width="1500" height="850"/>
	</g>
</g>
<g id="DELIMITOR_2_">
	
		<line id="DELIMITOR_1_" fill="none" stroke="#000000" stroke-width="5" stroke-miterlimit="10" x1="750.5" y1="34" x2="750.5" y2="814"/>
</g>
<g id="BACK_1_">
	<g id="SLEEVE_HEM_x5F_RIGHT_1_">
		<g>
			<path fill="none" stroke="#000000" stroke-width="3" stroke-miterlimit="10" d="M1294.247,653.297
				c1.118,0.496,2.365,0.983,3.722,1.46"/>
			<path fill="none" stroke="#000000" stroke-width="3" stroke-miterlimit="10" stroke-dasharray="8.7785,5.4866" d="
				M1303.204,656.394c15.139,4.253,38.292,7.266,53.717,7.063"/>
			<path fill="none" stroke="#000000" stroke-width="3" stroke-miterlimit="10" d="M1359.668,663.383
				c1.418-0.06,2.752-0.149,3.986-0.275"/>
		</g>
	</g>
	<g id="SLEEVE_HEM_x5F_LEFT_1_">
		<g>
			<path fill="none" stroke="#000000" stroke-width="3" stroke-miterlimit="10" d="M910,653.297
				c-1.118,0.496-2.365,0.983-3.722,1.46"/>
			<path fill="none" stroke="#000000" stroke-width="3" stroke-miterlimit="10" stroke-dasharray="8.7786,5.4866" d="
				M901.043,656.394c-15.139,4.253-38.292,7.266-53.718,7.063"/>
			<path fill="none" stroke="#000000" stroke-width="3" stroke-miterlimit="10" d="M844.578,663.383
				c-1.418-0.06-2.752-0.149-3.986-0.275"/>
		</g>
	</g>
	<path id="SLEEVE_SEAM_x5F_RIGHT_1_" fill="none" stroke="#000000" stroke-width="3" stroke-miterlimit="10" d="M1254.7,243.995
		c-13.928,16.938-20.366,96.006,9.324,134.12"/>
	<path id="SLEEVE_SEAM_x5F_LEFT_1_" fill="none" stroke="#000000" stroke-width="3" stroke-miterlimit="10" d="M950.634,243.995
		c13.928,16.938,20.366,96.006-9.324,134.12"/>
	<g id="COLLAR_SEAM_x5F_BACK">
		<g>
			<path fill="none" stroke="#000000" stroke-width="3" stroke-miterlimit="10" d="M1165.444,204.114
				c-1.316,2.097-3.155,4.049-5.399,5.854"/>
			<path fill="none" stroke="#000000" stroke-width="3" stroke-miterlimit="10" stroke-dasharray="14.5113,8.1626" d="
				M1153.219,214.419c-14.359,7.739-36.239,11.752-50.791,11.752c-17.73,0-40.637-4.561-54.331-13.758"/>
			<path fill="none" stroke="#000000" stroke-width="3" stroke-miterlimit="10" d="M1044.818,209.973
				c-2.171-1.802-4.001-3.754-5.407-5.859"/>
		</g>
	</g>
	<path id="COLLAR_x5F_BACK_x5F_BOTTOM" fill="none" stroke="#000000" stroke-width="3" stroke-miterlimit="10" d="M1039.411,204.114
		c24.423,19.22,101.923,19.386,125.851,0"/>
	<path id="CONTOUR_1_" fill="none" stroke="#000000" stroke-width="5" stroke-miterlimit="10" d="M1264.203,380.966
		c3.464,51.701,4.529,287.979,2.949,304.692c-44.437,12.033-138.853,12.033-164.857,12.033c-24.994,0-118.944,0-164.831-12.033
		c-1.582-16.714-1.13-254.994,3.036-304.543c-19.834,33.547-28.621,65.885-34.066,93.033C900.5,545.5,911.815,659.674,914.125,688
		c-17.459,9.691-44.459,13.317-64.125,9.691C830.666,659.316,823.5,532,827.365,463.03c14.369-78.705,78.504-194.03,122.258-221.035
		c31.711-17.21,69.84-32.369,89.604-37.881c0,0,18.302-17.889,23.502-19.74c17.394,8.558,29.771,9.322,39.515,9.322
		c8.832,0,26.88-0.696,43.901-9.322c5.201,1.851,19.115,19.492,19.115,19.492c19.767,5.513,55.541,20.169,89.604,38.634
		c44.159,23.938,107.646,141.578,122.016,220.283c4.367,69.217-3.302,196.409-22.635,234.784
		c-19.667,3.626-46.667,0.063-64.126-9.63c2.309-28.325,13.754-142.938,7.793-213.82C1291.301,447,1283.375,415,1264.203,380.966z"
		/>
	<g id="SLEEVE_BUTTONS_x5F_LEFT">
		<g id="BOUTON_x5F_2_x5F_BACK_x5F_LEFT">
			<circle id="BOUTON_x5F_1_8_" cx="872.687" cy="626.178" r="6.515"/>
			<circle fill="#FFFFFF" cx="874.353" cy="627.844" r="1.025"/>
			<circle fill="#FFFFFF" cx="871.021" cy="627.844" r="1.025"/>
			<circle fill="#FFFFFF" cx="874.353" cy="624.513" r="1.025"/>
			<circle fill="#FFFFFF" cx="871.021" cy="624.513" r="1.025"/>
		</g>
		<g id="BOUTON_x5F_1_x5F_BACK_x5F_LEFT">
			<circle id="BOUTON_x5F_1_9_" cx="878.687" cy="678.178" r="6.515"/>
			<circle fill="#FFFFFF" cx="880.353" cy="679.844" r="1.025"/>
			<circle fill="#FFFFFF" cx="877.021" cy="679.844" r="1.025"/>
			<circle fill="#FFFFFF" cx="880.353" cy="676.513" r="1.025"/>
			<circle fill="#FFFFFF" cx="877.021" cy="676.513" r="1.025"/>
		</g>
		<path fill="none" stroke="#000000" stroke-width="3" stroke-miterlimit="10" d="M890.175,696.318
			C887.5,675,879.862,611.908,876.296,590.5"/>
		<g>
			<g>
				<path fill="none" stroke="#000000" stroke-width="3" stroke-miterlimit="10" d="M868.25,661
					c-0.119-1.188-0.319-2.88-0.582-4.962"/>
				<path fill="none" stroke="#000000" stroke-width="3" stroke-miterlimit="10" stroke-dasharray="9.5084,4.7542" d="
					M867.057,651.324c-2.281-17.254-6.805-48.661-7.557-58.137c0-8.517-5.834-25.688,4.5-27.188
					c7.679-1.115,9.96,8.948,11.207,17.203"/>
				<path fill="none" stroke="#000000" stroke-width="3" stroke-miterlimit="10" d="M875.548,585.558
					c0.264,1.893,0.492,3.603,0.748,4.942l-4.926,0.86"/>
				<line fill="none" stroke="#000000" stroke-width="3" stroke-miterlimit="10" x1="865.926" y1="592.311" x2="861" y2="593.171"/>
			</g>
		</g>
	</g>
	<g id="SLEEVE_BUTTONS_x5F_RIGHT">
		<g id="BOUTON_x5F_2_x5F_BACK_x5F_LEFT_1_">
			<circle id="BOUTON_x5F_1_11_" cx="1331.313" cy="626.178" r="6.515"/>
			<circle fill="#FFFFFF" cx="1329.647" cy="627.844" r="1.025"/>
			<circle fill="#FFFFFF" cx="1332.979" cy="627.844" r="1.025"/>
			<circle fill="#FFFFFF" cx="1329.647" cy="624.513" r="1.025"/>
			<circle fill="#FFFFFF" cx="1332.979" cy="624.513" r="1.025"/>
		</g>
		<g id="BOUTON_x5F_1_x5F_BACK_x5F_LEFT_1_">
			<circle id="BOUTON_x5F_1_10_" cx="1325.313" cy="678.178" r="6.515"/>
			<circle fill="#FFFFFF" cx="1323.647" cy="679.844" r="1.025"/>
			<circle fill="#FFFFFF" cx="1326.979" cy="679.844" r="1.025"/>
			<circle fill="#FFFFFF" cx="1323.647" cy="676.513" r="1.025"/>
			<circle fill="#FFFFFF" cx="1326.979" cy="676.513" r="1.025"/>
		</g>
		<path fill="none" stroke="#000000" stroke-width="3" stroke-miterlimit="10" d="M1313.825,696.318
			c2.675-21.318,10.313-84.41,13.879-105.818"/>
		<g>
			<g>
				<path fill="none" stroke="#000000" stroke-width="3" stroke-miterlimit="10" d="M1335.75,661
					c0.119-1.188,0.319-2.88,0.582-4.962"/>
				<path fill="none" stroke="#000000" stroke-width="3" stroke-miterlimit="10" stroke-dasharray="9.5084,4.7542" d="
					M1336.943,651.324c2.281-17.254,6.805-48.661,7.557-58.137c0-8.517,5.834-25.688-4.5-27.188
					c-7.679-1.115-9.96,8.948-11.207,17.203"/>
				<path fill="none" stroke="#000000" stroke-width="3" stroke-miterlimit="10" d="M1328.453,585.558
					c-0.265,1.893-0.494,3.603-0.749,4.942l4.926,0.86"/>
				
					<line fill="none" stroke="#000000" stroke-width="3" stroke-miterlimit="10" x1="1338.074" y1="592.311" x2="1343" y2="593.171"/>
			</g>
		</g>
	</g>
</g>
<g id="FRONT_1_">
	<path id="SLEEVE_SEAM_x5F_LEFT" fill="none" stroke="#000000" stroke-width="3" stroke-miterlimit="10" d="M250.634,243.995
		c13.928,16.938,20.366,96.006-9.324,134.12"/>
	<path id="SLEEVE_SEAM_x5F_RIGHT" fill="none" stroke="#000000" stroke-width="3" stroke-miterlimit="10" d="M554.7,243.995
		c-13.928,16.938-20.366,96.006,9.324,134.12"/>
	<g id="SLEEVE_HEM_x5F_LEFT">
		<g>
			<path fill="none" stroke="#000000" stroke-width="3" stroke-miterlimit="10" d="M210,653.297
				c-1.118,0.496-2.365,0.983-3.722,1.46"/>
			<path fill="none" stroke="#000000" stroke-width="3" stroke-miterlimit="10" stroke-dasharray="8.7786,5.4866" d="
				M201.042,656.394c-15.138,4.253-38.292,7.266-53.717,7.063"/>
			<path fill="none" stroke="#000000" stroke-width="3" stroke-miterlimit="10" d="M144.579,663.383
				c-1.418-0.06-2.752-0.149-3.987-0.275"/>
		</g>
	</g>
	<g id="SLEEVE_HEM_x5F_RIGHT">
		<g>
			<path fill="none" stroke="#000000" stroke-width="3" stroke-miterlimit="10" d="M594.247,653.297
				c1.118,0.496,2.365,0.983,3.722,1.46"/>
			<path fill="none" stroke="#000000" stroke-width="3" stroke-miterlimit="10" stroke-dasharray="8.7786,5.4866" d="
				M603.205,656.394c15.138,4.253,38.292,7.266,53.717,7.063"/>
			<path fill="none" stroke="#000000" stroke-width="3" stroke-miterlimit="10" d="M659.668,663.383
				c1.418-0.06,2.752-0.149,3.987-0.275"/>
		</g>
	</g>
	<path id="CONTOUR" fill="none" stroke="#000000" stroke-width="5" stroke-miterlimit="10" d="M564.203,380.966
		c3.464,51.701,4.53,287.979,2.949,304.692c-44.436,12.033-138.853,12.033-164.857,12.033c-24.995,0-118.944,0-164.831-12.033
		c-1.582-16.714-1.13-254.994,3.036-304.543c-19.833,33.547-28.621,65.885-34.066,93.033C200.5,545.5,211.817,659.674,214.125,688
		c-17.459,9.691-44.459,13.317-64.125,9.691C130.667,659.316,123.5,532,127.365,463.03c14.369-78.705,78.504-194.03,122.258-221.035
		c31.71-17.21,69.839-32.369,89.605-37.881c0,0,18.3-17.889,23.501-19.74c17.394,8.558,29.77,9.322,39.515,9.322
		c8.832,0,26.879-0.696,43.901-9.322c5.201,1.851,19.115,19.492,19.115,19.492c19.767,5.513,55.542,20.169,89.605,38.634
		c44.159,23.938,107.646,141.578,122.016,220.283c4.367,69.217-3.301,196.409-22.635,234.784
		c-19.667,3.626-46.667,0.063-64.125-9.63c2.309-28.325,13.753-142.938,7.792-213.82C591.3,447,583.375,415,564.203,380.966z"/>
</g>
<g id="FRONT_x5F_COLLAR_1_">
	<g id="COLLAR_x5F_BOTTOM_x5F_RIGHT_1_">
		<g>
			<line fill="none" stroke="#000000" stroke-width="3" stroke-miterlimit="10" x1="390" y1="697.5" x2="402" y2="697.5"/>
			<path fill="none" stroke="#000000" stroke-width="3" stroke-miterlimit="10" d="M408,697.5c0,0,8.42,0,11.5,0c0-2,0-11.5,0-11.5"
				/>
			
				<line fill="none" stroke="#000000" stroke-width="3" stroke-miterlimit="10" stroke-dasharray="25,9" x1="419.5" y1="676" x2="419.5" y2="275"/>
			<line fill="none" stroke="#000000" stroke-width="3" stroke-miterlimit="10" x1="419.5" y1="270" x2="419.5" y2="258"/>
		</g>
	</g>
	<path id="COLLAR_x5F_BOTTOM_x5F_LEFT_2_" fill="none" stroke="#000000" stroke-width="3" stroke-miterlimit="10" d="
		M389.712,256.605c0.038,134.035,0,397.508,0,441.086"/>
	<g id="BOUTON_x5F_7">
		<circle id="BOUTON_x5F_1_7_" cx="404.686" cy="628.178" r="6.515"/>
		<circle fill="#FFFFFF" cx="406.352" cy="629.844" r="1.025"/>
		<circle fill="#FFFFFF" cx="403.021" cy="629.844" r="1.025"/>
		<circle fill="#FFFFFF" cx="406.352" cy="626.513" r="1.025"/>
		<circle fill="#FFFFFF" cx="403.021" cy="626.513" r="1.025"/>
	</g>
	<g id="BOUTON_x5F_6">
		<circle id="BOUTON_x5F_1_6_" cx="404.686" cy="559.178" r="6.515"/>
		<circle fill="#FFFFFF" cx="406.352" cy="560.844" r="1.025"/>
		<circle fill="#FFFFFF" cx="403.021" cy="560.844" r="1.025"/>
		<circle fill="#FFFFFF" cx="406.352" cy="557.513" r="1.025"/>
		<circle fill="#FFFFFF" cx="403.021" cy="557.513" r="1.025"/>
	</g>
	<g id="BOUTON_x5F_5">
		<circle id="BOUTON_x5F_1_5_" cx="404.686" cy="490.178" r="6.515"/>
		<circle fill="#FFFFFF" cx="406.352" cy="491.844" r="1.025"/>
		<circle fill="#FFFFFF" cx="403.021" cy="491.844" r="1.025"/>
		<circle fill="#FFFFFF" cx="406.352" cy="488.513" r="1.025"/>
		<circle fill="#FFFFFF" cx="403.021" cy="488.513" r="1.025"/>
	</g>
	<g id="BOUTON_x5F_4">
		<circle id="BOUTON_x5F_1_1_" cx="404.686" cy="421.178" r="6.515"/>
		<circle fill="#FFFFFF" cx="406.352" cy="422.844" r="1.025"/>
		<circle fill="#FFFFFF" cx="403.021" cy="422.844" r="1.025"/>
		<circle fill="#FFFFFF" cx="406.352" cy="419.513" r="1.025"/>
		<circle fill="#FFFFFF" cx="403.021" cy="419.513" r="1.025"/>
	</g>
	<g id="BOUTON_x5F_3">
		<circle id="BOUTON_x5F_1_2_" cx="404.686" cy="352.178" r="6.515"/>
		<circle fill="#FFFFFF" cx="406.352" cy="353.844" r="1.025"/>
		<circle fill="#FFFFFF" cx="403.021" cy="353.844" r="1.025"/>
		<circle fill="#FFFFFF" cx="406.352" cy="350.513" r="1.025"/>
		<circle fill="#FFFFFF" cx="403.021" cy="350.513" r="1.025"/>
	</g>
	<g id="BOUTON_x5F_2_1_">
		<circle id="BOUTON_x5F_1_3_" cx="404.686" cy="283.195" r="6.515"/>
		<circle fill="#FFFFFF" cx="406.352" cy="284.861" r="1.025"/>
		<circle fill="#FFFFFF" cx="403.021" cy="284.861" r="1.025"/>
		<circle fill="#FFFFFF" cx="406.352" cy="281.529" r="1.025"/>
		<circle fill="#FFFFFF" cx="403.021" cy="281.529" r="1.025"/>
	</g>
	<g id="BOUTON_x5F_1">
		<circle id="BOUTON_x5F_1_4_" cx="404.686" cy="246.212" r="6.515"/>
		<circle fill="#FFFFFF" cx="406.352" cy="247.877" r="1.025"/>
		<circle fill="#FFFFFF" cx="403.021" cy="247.877" r="1.025"/>
		<circle fill="#FFFFFF" cx="406.352" cy="244.546" r="1.025"/>
		<circle fill="#FFFFFF" cx="403.021" cy="244.546" r="1.025"/>
	</g>
	<g id="COLLAR_x5F_SEAM_1_">
		
			<path id="COLLAR_x5F_SEAM_x5F_4_1_" fill="none" stroke="#000000" stroke-width="3" stroke-miterlimit="10" stroke-dasharray="16,9" d="
			M451.408,240.696c8.937-8.804,13.313-19.952,15.27-35.649"/>
		
			<path id="COLLAR_x5F_SEAM_x5F_3_1_" fill="none" stroke="#000000" stroke-width="3" stroke-miterlimit="10" stroke-dasharray="24,9" d="
			M387.779,249.932c0,0-1.198,5.589,4.598,7.809c9.91,3.776,19.099,3.776,33.913-2.318"/>
		
			<path id="COLLAR_x5F_SEAM_x5F_2_1_" fill="none" stroke="#000000" stroke-width="3" stroke-miterlimit="10" stroke-dasharray="2,9" d="
			M383.451,255.521c2.058,0.606,4.148,1.125,6.262,1.553"/>
		
			<path id="COLLAR_x5F_SEAM_x5F_1_1_" fill="none" stroke="#000000" stroke-width="3" stroke-miterlimit="10" stroke-dasharray="16,9" d="
			M340.578,206.179c1.313,15.015,8.055,27.008,17.82,35.712"/>
	</g>
	<path id="COLLAR_x5F_RIGHT_1_" fill="none" stroke="#000000" stroke-width="3" stroke-miterlimit="10" d="M446.989,185.054
		c2.462,16.502-24.631,39.668-35.513,46.263c5.996,13.323,11.104,22.54,21.764,33.199c7.551-5.008,28.726-44.982,30.975-60.302"/>
	<path id="COLLAR_x5F_LEFT_1_" fill="none" stroke="#000000" stroke-width="3" stroke-miterlimit="10" d="M362.73,184.374
		c-3.22,23.401,25.07,40.945,34.977,46.943c-5.107,13.544-12.478,23.429-22.136,32.753c-7.732-5.33-29.547-46.609-34.292-60.359"/>
	<path id="COLLAR_x5F_TOP_x5F_CENTER_1_" fill="none" stroke="#000000" stroke-width="3" stroke-miterlimit="10" d="
		M411.476,231.483c-4.525,0.876-7.773,1.039-13.418,0.015"/>
	<g id="COLLAR_x5F_BOTTOM_x5F_BACK_3_">
		<g>
			<path fill="none" stroke="#000000" stroke-width="3" stroke-miterlimit="10" d="M377.571,216.766
				c2.759,0.682,5.34,1.281,7.799,1.793"/>
			<path fill="none" stroke="#000000" stroke-width="3" stroke-miterlimit="10" stroke-dasharray="17.3499,9.7593" d="
				M394.992,220.166c7.256,0.85,14.004,0.689,22.142-0.67"/>
			<path fill="none" stroke="#000000" stroke-width="3" stroke-miterlimit="10" d="M421.933,218.59
				c2.445-0.51,5.028-1.117,7.79-1.825"/>
		</g>
	</g>
</g>
<g id="ARROWS_1_">
	<g id="L_-_BACK_BODY_LENGTH_2_">
		<g>
			<line fill="none" stroke="#00CCFF" stroke-width="2" stroke-miterlimit="10" x1="1040" y1="215" x2="1040" y2="686"/>
			<g>
				<path fill="#00CCFF" d="M1039.733,216.771l3.603,2.191l0.082-0.123l-2.334-5.875c-0.449-2.047-0.899-4.094-1.351-6.141
					c-0.45,2.047-0.9,4.094-1.352,6.141l-2.334,5.875l0.063,0.123L1039.733,216.771z"/>
			</g>
			<g>
				<path fill="#00CCFF" d="M1039.733,684.178l3.603-2.19l0.082,0.123l-2.334,5.875c-0.449,2.047-0.899,4.094-1.351,6.141
					c-0.45-2.047-0.9-4.094-1.352-6.141l-2.334-5.875l0.063-0.123L1039.733,684.178z"/>
			</g>
		</g>
	</g>
	<g id="K_-_FULL_SHOULDER_WIDTH_2_">
		<g>
			<line fill="none" stroke="#FF00CC" stroke-width="2" stroke-miterlimit="10" x1="960" y1="244" x2="1244" y2="244"/>
			<g>
				<path fill="#FF00CC" d="M962.238,243.576l2.19-3.603l-0.123-0.082l-5.875,2.333c-2.047,0.45-4.094,0.9-6.141,1.351
					c2.047,0.45,4.094,0.9,6.141,1.351l5.875,2.333l0.123-0.062L962.238,243.576z"/>
			</g>
			<g>
				<path fill="#FF00CC" d="M1241.72,243.576l-2.19-3.603l0.123-0.082l5.875,2.333c2.047,0.45,4.094,0.9,6.141,1.351
					c-2.047,0.45-4.094,0.9-6.141,1.351l-5.875,2.333l-0.123-0.062L1241.72,243.576z"/>
			</g>
		</g>
	</g>
	<g id="J_-_SLEEVE_BOTTOM_LENGTH">
		
			<line fill="none" stroke="#FF9900" stroke-width="2" stroke-miterlimit="10" x1="569.144" y1="378.667" x2="606.856" y2="365.333"/>
		
			<line fill="none" stroke="#FF9900" stroke-width="2" stroke-miterlimit="10" x1="596.019" y1="686.138" x2="635.981" y2="687.862"/>
		<g>
			<g>
				<path fill="none" stroke="#FF9900" stroke-width="2" stroke-miterlimit="10" d="M596.135,377.765
					c5.604,14.702,18.06,47.684,26.336,71.831c8.25,24.068,8.521,55.422,7.693,74.672c-2.214,51.477-6.396,129.405-7.763,154.567"/>
				<g>
					<path fill="#FF9900" d="M596.749,379.455l4.146,0.771l0.032-0.144l-4.265-4.666c-1.146-1.754-2.293-3.509-3.44-5.263
						c0.306,2.073,0.609,4.146,0.914,6.221l-0.099,6.321l0.102,0.093L596.749,379.455z"/>
				</g>
				<g>
					<path fill="#FF9900" d="M622.458,677.041l3.709-2.007l0.075,0.127l-2.626,5.75c-0.553,2.021-1.105,4.043-1.659,6.063
						c-0.347-2.066-0.693-4.134-1.04-6.2l-2.035-5.984l0.068-0.12L622.458,677.041z"/>
				</g>
			</g>
		</g>
	</g>
	<g id="I_-_SLEEVE_TOP_LENGTH">
		
			<line fill="none" stroke="#CCCC00" stroke-width="2" stroke-miterlimit="10" x1="105.122" y1="704.202" x2="144.878" y2="699.798"/>
		<g>
			
				<line fill="none" stroke="#CCCC00" stroke-width="2" stroke-miterlimit="10" x1="247.576" y1="238.519" x2="226.142" y2="204.745"/>
			<g>
				<g>
					<path fill="none" stroke="#CCCC00" stroke-width="2" stroke-miterlimit="10" d="M226.086,221.675
						c-6.061,3.762,0.207-0.236-10.032,6.296C187.5,246.853,108,373.5,98.598,464c-6.098,58.5,13.022,180.657,17.354,215.007
						c0.583,4.625,1.207,10.059,1.694,14.431"/>
					<g>
						<path fill="#CCCC00" d="M224.552,222.602l0.038,4.217l0.147,0.004l3.761-5.081c1.501-1.462,3.003-2.924,4.505-4.386
							c-1.977,0.697-3.953,1.394-5.93,2.09l-6.223,1.115l-0.072,0.117L224.552,222.602z"/>
					</g>
					<g>
						<path fill="#CCCC00" d="M117.399,691.655l3.331-2.587l0.095,0.112l-1.651,6.103c-0.215,2.085-0.429,4.17-0.645,6.255
							c-0.68-1.982-1.36-3.965-2.04-5.947l-2.986-5.571l0.047-0.13L117.399,691.655z"/>
					</g>
				</g>
			</g>
		</g>
	</g>
	<g id="H_-_SLEEVE_HEM_LENGTH">
		
			<line fill="none" stroke="#666699" stroke-width="2" stroke-miterlimit="10" x1="155.507" y1="741.771" x2="149.494" y2="702.229"/>
		
			<line fill="none" stroke="#666699" stroke-width="2" stroke-miterlimit="10" x1="222.507" y1="731.771" x2="216.494" y2="692.229"/>
		<g>
			<g>
				
					<line fill="none" stroke="#666699" stroke-width="2" stroke-miterlimit="10" x1="161.857" y1="725.899" x2="211.819" y2="718.156"/>
				<g>
					<path fill="#666699" d="M163.631,725.624l1.614-3.896l-0.134-0.063l-5.448,3.206c-1.954,0.758-3.908,1.517-5.861,2.275
						c2.092,0.132,4.183,0.263,6.275,0.395l6.163,1.406l0.112-0.079L163.631,725.624z"/>
				</g>
				<g>
					<path fill="#666699" d="M210.045,718.432l-2.717-3.225l0.109-0.1l6.163,1.405c2.091,0.132,4.183,0.264,6.275,0.396
						c-1.954,0.759-3.908,1.517-5.861,2.275l-5.448,3.205l-0.131-0.042L210.045,718.432z"/>
				</g>
			</g>
		</g>
	</g>
	<g id="G_-_ARMHOLE_LENGTH">
		
			<line fill="none" stroke="#FF99CC" stroke-width="2" stroke-miterlimit="10" x1="256.091" y1="244.375" x2="292.186" y2="246.151"/>
		
			<line fill="none" stroke="#FF99CC" stroke-width="2" stroke-miterlimit="10" x1="247.114" y1="378.84" x2="283.208" y2="380.616"/>
		<g>
			<g>
				
					<line fill="none" stroke="#FF99CC" stroke-width="2" stroke-miterlimit="10" x1="278.421" y1="254.298" x2="271.218" y2="370.933"/>
				<g>
					<path fill="#FF99CC" d="M278.31,256.089l3.461,2.41l0.089-0.118l-1.967-6.007c-0.323-2.071-0.646-4.142-0.97-6.212
						c-0.576,2.015-1.151,4.03-1.727,6.046l-2.691,5.72l0.054,0.126L278.31,256.089z"/>
				</g>
				<g>
					<path fill="#FF99CC" d="M271.329,369.142l3.731-1.965l0.074,0.128l-2.691,5.721c-0.576,2.016-1.151,4.03-1.727,6.046
						c-0.323-2.071-0.646-4.143-0.97-6.212l-1.967-6.008l0.069-0.118L271.329,369.142z"/>
				</g>
			</g>
		</g>
	</g>
	<g id="F_-_SIDE_SHOULDER_LENGTH_5_">
		
			<line fill="none" stroke="#993333" stroke-width="2" stroke-miterlimit="10" x1="556.631" y1="238.025" x2="570.615" y2="206.568"/>
		
			<line fill="none" stroke="#993333" stroke-width="2" stroke-miterlimit="10" x1="466.104" y1="197.114" x2="480.09" y2="165.657"/>
		<g>
			<g>
				
					<line fill="none" stroke="#993333" stroke-width="2" stroke-miterlimit="10" x1="482.762" y1="181.064" x2="557.326" y2="214.931"/>
				<g>
					<path fill="#993333" d="M484.396,181.807l3.485-2.375l-0.078-0.125l-6.313-0.305c-2.051-0.437-4.101-0.873-6.149-1.309
						c1.677,1.256,3.355,2.513,5.032,3.77l4.384,4.554l0.137-0.005L484.396,181.807z"/>
				</g>
				<g>
					<path fill="#993333" d="M555.692,214.189l-0.506-4.187l0.146-0.023l4.384,4.554c1.678,1.256,3.355,2.513,5.032,3.77
						c-2.05-0.437-4.1-0.873-6.149-1.309l-6.313-0.305l-0.086-0.107L555.692,214.189z"/>
				</g>
			</g>
		</g>
	</g>
	<g id="E_-_NECK_WIDTH_2_">
		<line fill="none" stroke="#66CCCC" stroke-width="2" stroke-miterlimit="10" x1="466" y1="197.693" x2="466" y2="161.554"/>
		
			<line fill="none" stroke="#66CCCC" stroke-width="2" stroke-miterlimit="10" x1="340.471" y1="197.693" x2="340.471" y2="161.554"/>
		<g>
			<g>
				<line fill="none" stroke="#66CCCC" stroke-width="2" stroke-miterlimit="10" x1="349" y1="175" x2="457" y2="175"/>
				<g>
					<path fill="#66CCCC" d="M351.208,175.106l2.191-3.603l-0.123-0.082l-5.875,2.333c-2.047,0.45-4.094,0.9-6.141,1.351
						c2.047,0.45,4.094,0.9,6.141,1.351l5.875,2.333l0.123-0.062L351.208,175.106z"/>
				</g>
				<g>
					<path fill="#66CCCC" d="M455.037,175.106l-2.191-3.603l0.123-0.082l5.875,2.333c2.047,0.45,4.095,0.9,6.142,1.351
						c-2.047,0.45-4.095,0.9-6.142,1.351l-5.875,2.333l-0.123-0.062L455.037,175.106z"/>
				</g>
			</g>
		</g>
	</g>
	<g id="D_-_BOTTOM_HEM_2_">
		
			<line fill="none" stroke="#6600FF" stroke-width="2" stroke-miterlimit="10" x1="236.459" y1="727.218" x2="236.459" y2="691.08"/>
		<line fill="none" stroke="#6600FF" stroke-width="2" stroke-miterlimit="10" x1="568.03" y1="727.218" x2="568.03" y2="691.08"/>
		<g>
			<g>
				<line fill="none" stroke="#6600FF" stroke-width="2" stroke-miterlimit="10" x1="246" y1="714" x2="559" y2="714"/>
				<g>
					<path fill="#6600FF" d="M247.386,713.666l2.191-3.604l-0.123-0.081l-5.875,2.333c-2.047,0.45-4.094,0.899-6.141,1.352
						c2.047,0.45,4.094,0.9,6.141,1.352l5.875,2.333l0.123-0.062L247.386,713.666z"/>
				</g>
				<g>
					<path fill="#6600FF" d="M557.03,713.666l-2.191-3.604l0.123-0.081l5.875,2.333c2.047,0.45,4.094,0.899,6.141,1.352
						c-2.047,0.45-4.094,0.9-6.141,1.352l-5.875,2.333l-0.123-0.062L557.03,713.666z"/>
				</g>
			</g>
		</g>
	</g>
	<g id="C_-_WAIST_WIDTH_2_">
		<g>
			<line fill="none" stroke="#00CC00" stroke-width="2" stroke-miterlimit="10" x1="248" y1="538" x2="556" y2="538"/>
			<g>
				<path fill="#00CC00" d="M250.021,538.395l2.191-3.604l-0.123-0.081l-5.875,2.333c-2.047,0.451-4.094,0.9-6.141,1.352
					c2.047,0.45,4.094,0.9,6.141,1.353l5.875,2.333l0.123-0.063L250.021,538.395z"/>
			</g>
			<g>
				<path fill="#00CC00" d="M554.017,538.395l-2.19-3.604l0.123-0.081l5.875,2.333c2.047,0.451,4.094,0.9,6.141,1.352
					c-2.047,0.45-4.094,0.9-6.141,1.353l-5.875,2.333l-0.123-0.063L554.017,538.395z"/>
			</g>
		</g>
	</g>
	<g id="B_-_CHEST_WIDTH_2_">
		<g>
			<line fill="none" stroke="#0033FF" stroke-width="2" stroke-miterlimit="10" x1="251" y1="392" x2="554" y2="392"/>
			<g>
				<path fill="#0033FF" d="M252.731,392.034l2.191-3.604l-0.123-0.082l-5.875,2.333c-2.047,0.45-4.094,0.9-6.141,1.352
					c2.047,0.45,4.094,0.899,6.141,1.351l5.875,2.333l0.123-0.062L252.731,392.034z"/>
			</g>
			<g>
				<path fill="#0033FF" d="M551.91,392.034l-2.191-3.604l0.123-0.082l5.875,2.333c2.047,0.45,4.094,0.9,6.142,1.352
					c-2.048,0.45-4.095,0.899-6.142,1.351l-5.875,2.333l-0.123-0.062L551.91,392.034z"/>
			</g>
		</g>
	</g>
	<g id="A_-_FRONT_BODY_LENGTH_2_">
		<g>
			<line fill="none" stroke="#FF3300" stroke-width="2" stroke-miterlimit="10" x1="466" y1="215" x2="466" y2="686"/>
			<g>
				<path fill="#FF3300" d="M465.938,216.319l3.604,2.191l0.082-0.123l-2.333-5.875c-0.45-2.047-0.9-4.094-1.351-6.141
					c-0.45,2.047-0.9,4.094-1.352,6.141l-2.333,5.875l0.063,0.123L465.938,216.319z"/>
			</g>
			<g>
				<path fill="#FF3300" d="M465.938,684.303l3.604-2.19l0.082,0.123l-2.333,5.875c-0.45,2.047-0.9,4.094-1.351,6.141
					c-0.45-2.047-0.9-4.094-1.352-6.141l-2.333-5.875l0.063-0.123L465.938,684.303z"/>
			</g>
		</g>
	</g>
</g>
<g id="LETTERS_1_">
	<g>
		<path fill="#00CCFF" d="M1058.779,458.782v-44.784c0-1.008,2.436-1.512,7.309-1.512c4.871,0,7.308,0.504,7.308,1.512v35.28h11.089
			c0.863,0,1.464,1.128,1.8,3.384c0.145,1.104,0.216,2.231,0.216,3.384s-0.071,2.329-0.216,3.528
			c-0.385,2.304-1.008,3.456-1.872,3.456h-22.176c-1.058,0-1.896-0.433-2.521-1.296
			C1059.091,460.87,1058.779,459.887,1058.779,458.782z"/>
	</g>
	<g>
		<path fill="#FF00CC" d="M1098.293,314.758c0,0.72-2.257,1.08-6.768,1.08l-4.032-0.216c-2.401-0.191-3.602-0.527-3.602-1.008
			v-48.313c0-0.816,2.4-1.224,7.2-1.224s7.2,0.408,7.2,1.224v18.432l8.784-18.432c0.335-0.672,2.256-1.008,5.76-1.008
			c6.384,0,9.744,0.553,10.08,1.656c0,0.097-0.024,0.192-0.072,0.288l-12.526,22.608l14.544,20.087c0,0.098-0.457,0.504-1.368,1.225
			c-2.209,1.92-4.801,3.432-7.776,4.536c-0.912,0.335-1.824,0.504-2.735,0.504l-1.729-0.145c-1.537-0.384-2.736-1.368-3.6-2.952
			l-8.208-15.696h-1.152V314.758z"/>
	</g>
	<g>
		<path fill="#FF9900" d="M639.005,527.52c0-1.392,0.407-3.012,1.225-4.858c0.814-1.849,1.702-3.107,2.663-3.781
			c1.824,1.346,3.673,2.018,5.544,2.018l2.232-0.36c2.592-0.768,3.936-2.831,4.032-6.191v-18.359h-5.76
			c-0.817,0-1.394-1.032-1.729-3.097c-0.144-1.009-0.216-2.04-0.216-3.097c0-1.055,0.072-2.088,0.216-3.096
			c0.335-2.063,0.911-3.096,1.729-3.096h17.136c0.959,0,1.679,0.276,2.16,0.827c0.479,0.554,0.72,1.214,0.72,1.98v33.983
			c0,4.703-1.573,8.279-4.716,10.728c-3.145,2.448-6.912,3.672-11.305,3.672c-4.392,0-7.812-0.646-10.26-1.942
			C640.229,531.551,639.005,529.776,639.005,527.52z"/>
	</g>
	<g>
		<path fill="#CCCC00" d="M56.944,449.182V423.55h-5.112c-0.817,0-1.393-1.032-1.728-3.096c-0.144-1.008-0.216-2.04-0.216-3.096
			s0.072-2.089,0.216-3.097c0.335-2.063,0.911-3.096,1.728-3.096h24.192c0.815,0,1.368,1.033,1.656,3.096
			c0.191,1.008,0.288,2.041,0.288,3.097s-0.097,2.088-0.288,3.096c-0.288,2.063-0.84,3.096-1.656,3.096H71.2v25.632h5.04
			c0.816,0,1.392,1.033,1.728,3.097c0.191,1.008,0.288,2.041,0.288,3.096c0,1.057-0.097,2.088-0.288,3.096
			c-0.336,2.064-0.912,3.098-1.728,3.098H51.976c-0.816,0-1.368-1.032-1.656-3.098c-0.192-1.008-0.288-2.039-0.288-3.096
			c0-1.055,0.096-2.088,0.288-3.096c0.288-2.063,0.839-3.097,1.656-3.097H56.944z"/>
	</g>
	<g>
		<path fill="#666699" d="M213.091,782.01c0,0.816-2.424,1.226-7.272,1.226c-4.849,0-7.272-0.408-7.272-1.226v-16.561h-10.08v16.561
			c0,0.816-2.424,1.226-7.272,1.226c-4.849,0-7.272-0.408-7.272-1.226v-47.735c0-1.009,2.423-1.513,7.272-1.513
			c4.848,0,7.272,0.504,7.272,1.513v16.92h10.08v-16.775c0-0.672,1.199-1.152,3.6-1.439c1.248-0.096,2.471-0.145,3.672-0.145
			l3.672,0.145c2.399,0.287,3.6,0.769,3.6,1.439V782.01z"/>
	</g>
	<g>
		<path fill="#FF99CC" d="M321.919,325.611l0.144-9.792c0-0.672,0.695-1.116,2.088-1.332c1.392-0.216,2.543-0.324,3.456-0.324
			l2.808,0.216c1.824,0.288,2.736,0.792,2.736,1.512l-0.288,22.536c-0.961,0.673-2.893,1.332-5.796,1.98
			c-2.905,0.647-6.228,0.972-9.972,0.972c-6.96,0-12.576-2.256-16.848-6.768s-6.408-11.136-6.408-19.872
			c0-7.44,2.088-13.488,6.264-18.145c4.176-4.655,9.96-6.984,17.352-6.984c3.359,0,6.396,0.324,9.108,0.972
			c2.711,0.648,4.572,1.524,5.58,2.628c0.047,0.385,0.072,1.105,0.072,2.16c0,1.057-0.36,2.556-1.08,4.5
			c-0.72,1.943-1.537,3.396-2.448,4.355c-0.912,0.961-1.573,1.44-1.98,1.44c-0.408,0-0.84-0.18-1.296-0.54
			c-0.457-0.36-1.356-0.743-2.7-1.152c-1.345-0.406-2.641-0.611-3.888-0.611c-2.977,0-5.389,0.96-7.236,2.88
			c-1.849,1.92-2.772,4.896-2.772,8.928s0.947,7.092,2.844,9.18c1.896,2.088,4.079,3.132,6.552,3.132
			C320.683,327.483,321.919,326.859,321.919,325.611z"/>
	</g>
	<g>
		<path fill="#993333" d="M553.22,129.922c0.816,0,1.225,2.124,1.225,6.372s-0.408,6.372-1.225,6.372h-13.176v8.208h8.784
			c0.814,0,1.224,1.861,1.224,5.58c0,3.721-0.385,5.58-1.151,5.58h-8.856v17.352c0,0.673-0.9,1.116-2.7,1.332
			c-1.8,0.216-3.301,0.324-4.5,0.324l-3.384-0.144c-2.354-0.288-3.528-0.768-3.528-1.44v-47.664c0-0.768,0.155-1.271,0.469-1.512
			c0.312-0.24,0.779-0.36,1.403-0.36H553.22z"/>
	</g>
	<g>
		<path fill="#66CCCC" d="M412.27,124.846c0.911,0,1.368,1.681,1.368,5.04c0,1.008-0.108,2.196-0.324,3.564
			c-0.216,1.368-0.612,2.052-1.188,2.052h-9.144v7.2h13.248c0.815,0,1.368,1.056,1.656,3.168c0.145,0.912,0.216,1.884,0.216,2.916
			c0,1.033-0.144,2.365-0.432,3.996c-0.288,1.633-0.768,2.448-1.44,2.448h-24.624c-1.825,0-2.736-0.744-2.736-2.232v-46.296
			c0-1.248,0.551-1.872,1.656-1.872h25.776c1.008,0,1.512,2.124,1.512,6.372s-0.504,6.372-1.512,6.372h-13.32v7.272H412.27z"/>
	</g>
	<g>
		<path fill="#6600FF" d="M387.323,779.922v-43.2c0-1.198,0.299-2.146,0.9-2.845c0.6-0.694,1.379-1.044,2.34-1.044h12.024
			c7.632,0,13.428,1.921,17.388,5.761c3.959,3.841,5.94,9.89,5.94,18.145c0,17.665-7.536,26.496-22.608,26.496h-12.312
			C388.547,783.233,387.323,782.13,387.323,779.922z M401.147,746.514v21.527c0,1.009,0.072,1.646,0.216,1.908
			c0.144,0.265,0.576,0.396,1.296,0.396c2.639,0,4.644-0.982,6.012-2.952c1.368-1.968,2.052-5.244,2.052-9.828
			c0-4.582-0.709-7.57-2.124-8.964c-1.417-1.392-3.661-2.088-6.732-2.088L401.147,746.514L401.147,746.514z"/>
	</g>
	<g>
		<path fill="#00CC00" d="M324.974,559.292c2.664,0.984,3.996,2.316,3.996,3.996c0,1.681-0.637,3.757-1.908,6.229
			c-1.272,2.474-2.34,3.708-3.204,3.708c-0.241,0-0.517-0.132-0.828-0.396c-0.313-0.263-1.033-0.551-2.16-0.864
			c-1.128-0.312-2.1-0.468-2.916-0.468c-2.784,0-5.029,0.983-6.732,2.952c-1.704,1.969-2.556,4.979-2.556,9.036
			s0.875,7.067,2.628,9.036c1.751,1.969,3.971,2.951,6.66,2.951c1.104,0,2.34-0.154,3.708-0.469c1.368-0.312,2.34-0.756,2.916-1.332
			c0.096-0.096,0.288-0.144,0.576-0.144c0.288,0,0.828,0.54,1.62,1.62s1.523,2.496,2.196,4.248c0.672,1.753,1.008,3.107,1.008,4.066
			c0,1.872-1.44,3.36-4.32,4.465c-2.88,1.104-6.289,1.655-10.224,1.655c-6.336,0-11.544-2.23-15.624-6.695s-6.12-10.765-6.12-18.899
			s2.099-14.531,6.3-19.188c4.2-4.654,9.443-6.982,15.732-6.982C319.225,557.816,322.31,558.309,324.974,559.292z"/>
	</g>
	<g>
		<path fill="#0033FF" d="M328.675,424.232c0,4.991-2.16,8.783-6.48,11.376c2.351,0.863,4.32,2.353,5.904,4.464
			c1.584,2.112,2.376,5.101,2.376,8.964c0,3.865-1.429,6.925-4.284,9.181c-2.856,2.257-6.948,3.384-12.276,3.384h-16.992
			c-0.817,0-1.489-0.274-2.016-0.827c-0.529-0.552-0.792-1.283-0.792-2.196v-46.08c0-0.528,0.083-0.875,0.252-1.044
			c0.167-0.167,0.515-0.252,1.044-0.252h16.416C323.059,411.201,328.675,415.545,328.675,424.232z M307.939,422.865v9.432h0.36
			c4.608,0,6.912-1.536,6.912-4.607c0-1.681-0.444-2.903-1.332-3.673c-0.889-0.767-2.365-1.151-4.428-1.151H307.939z
			 M307.939,440.793v9.359h1.296c2.063,0,3.575-0.385,4.536-1.151c0.96-0.768,1.44-1.991,1.44-3.673c0-1.68-0.444-2.855-1.332-3.527
			c-0.889-0.672-2.365-1.008-4.428-1.008H307.939z"/>
	</g>
	<g>
		<path fill="#FF3300" d="M517.329,341.146c-4.176,0-6.434-0.673-6.769-2.017l-2.376-9.288h-11.447l-2.088,8.928
			c-0.288,1.488-2.593,2.232-6.912,2.232c-2.305,0-4.008-0.132-5.112-0.396s-1.656-0.469-1.656-0.612l12.744-48.744
			c0-0.384,3.287-0.576,9.864-0.576c6.576,0,9.864,0.192,9.864,0.576l12.456,48.816c0,0.336-1.104,0.601-3.313,0.792
			C520.376,341.049,518.625,341.146,517.329,341.146z M498.537,320.697h7.56l-3.239-14.904h-0.433L498.537,320.697z"/>
	</g>
</g>
</svg>
