<?xml version="1.0" encoding="utf-8"?>
<!-- Generator: Adobe Illustrator 16.0.0, SVG Export Plug-In . SVG Version: 6.00 Build 0)  -->
<!DOCTYPE svg PUBLIC "-//W3C//DTD SVG 1.1//EN" "http://www.w3.org/Graphics/SVG/1.1/DTD/svg11.dtd">
<svg version="1.1" xmlns="http://www.w3.org/2000/svg" xmlns:xlink="http://www.w3.org/1999/xlink" x="0px" y="0px" width="1500px"
	 height="2000px" viewBox="0 0 1500 2000" enable-background="new 0 0 1500 2000" xml:space="preserve">
<g id="BACKGROUND">
	<rect y="1" fill="#FFFFFF" width="1500" height="2000"/>
</g>
<g id="BACK">
	<g id="BACK_x5F_DRAWING">
		<g id="COLLAR_x5F_BACK_x5F_BOTTOM_7_">
			<g>
				<path fill="none" stroke="#000000" stroke-width="4.05" stroke-miterlimit="10" d="M837.575,1249.675
					c-1.777,2.83-4.26,5.467-7.289,7.904"/>
				<path fill="none" stroke="#000000" stroke-width="4.05" stroke-miterlimit="10" stroke-dasharray="19.5919,11.0204" d="
					M821.064,1263.591c-19.386,10.446-48.92,15.863-68.562,15.863c-23.94,0-54.867-6.159-73.354-18.578"/>
				<path fill="none" stroke="#000000" stroke-width="4.05" stroke-miterlimit="10" d="M674.73,1257.584
					c-2.93-2.432-5.401-5.068-7.3-7.909"/>
			</g>
		</g>
		<g id="BOTTOM_HEM_2_">
			<g>
				<path fill="none" stroke="#000000" stroke-width="4.05" stroke-miterlimit="10" d="M975.308,1876.763
					c-1.312,0.104-3.127,0.208-5.388,0.31"/>
				<path fill="none" stroke="#000000" stroke-width="4.05" stroke-miterlimit="10" stroke-dasharray="10.9874,6.8671" d="
					M963.063,1877.335c-46.913,1.564-191.19,2.78-210.808,2.78c-20.121,0-171.395-1.279-214.229-2.901"/>
				<path fill="none" stroke="#000000" stroke-width="4.05" stroke-miterlimit="10" d="M534.591,1877.072
					c-2.261-0.102-4.076-0.205-5.388-0.31"/>
			</g>
		</g>
		<path id="SLEEVE_SEAM_x5F_LEFT_1_" fill="none" stroke="#000000" stroke-width="4.05" stroke-miterlimit="10" d="
			M547.581,1303.515c18.802,22.867,27.494,129.608-12.588,181.063"/>
		<path id="SLEEVE_SEAM_x5F_RIGHT_1_" fill="none" stroke="#000000" stroke-width="4.05" stroke-miterlimit="10" d="
			M958.07,1303.515c-18.803,22.867-27.494,129.608,12.588,181.063"/>
		<g id="SLEEVE_HEM_x5F_LEFT_1_">
			<g>
				<path fill="none" stroke="#000000" stroke-width="4.05" stroke-miterlimit="10" d="M496.09,1884.443
					c-1.51,0.652-3.201,1.291-5.047,1.913"/>
				<path fill="none" stroke="#000000" stroke-width="4.05" stroke-miterlimit="10" stroke-dasharray="11.3503,7.0939" d="
					M484.249,1888.391c-19.628,5.271-49.516,8.863-69.544,8.455"/>
				<path fill="none" stroke="#000000" stroke-width="4.05" stroke-miterlimit="10" d="M411.154,1896.726
					c-1.916-0.093-3.717-0.229-5.38-0.41"/>
			</g>
		</g>
		<g id="SLEEVE_HEM_x5F_RIGHT_1_">
			<g>
				<path fill="none" stroke="#000000" stroke-width="4.05" stroke-miterlimit="10" d="M1007.409,1883.072
					c1.506,0.671,3.188,1.332,5.021,1.979"/>
				<path fill="none" stroke="#000000" stroke-width="4.05" stroke-miterlimit="10" stroke-dasharray="11.5084,7.1928" d="
					M1019.289,1887.215c19.872,5.658,50.146,9.788,70.368,9.7"/>
				<path fill="none" stroke="#000000" stroke-width="4.05" stroke-miterlimit="10" d="M1093.254,1896.851
					c1.92-0.063,3.724-0.17,5.39-0.325"/>
			</g>
		</g>
		<path id="CONTOUR_1_" fill="none" stroke="#000000" stroke-width="6.75" stroke-miterlimit="10" d="M970.899,1488.427
			c4.676,69.795,6.114,388.77,3.981,411.334c-61.631,1.811-187.449,2.744-222.558,2.744c-33.742,0-158.686-0.934-222.521-2.744
			c-2.136-22.564-1.525-344.242,4.099-411.134c-26.776,45.289-38.639,88.944-45.99,125.595c-8.01,96.325,7.268,250.46,10.384,288.7
			c-23.569,13.083-60.02,17.979-86.568,13.083c-26.102-51.806-35.775-223.684-30.558-316.792
			c19.398-106.251,105.98-261.941,165.048-298.397c42.811-23.233,94.284-43.697,120.968-51.141c0,0,9.856-6.6,16.878-9.099
			c21.626,14.683,55.039,19.336,68.193,19.336c11.923,0,44.558-4.315,67.368-19.336c7.021,2.499,17.705,8.765,17.705,8.765
			c26.684,7.442,74.98,27.229,120.967,52.156c59.614,32.315,145.324,191.13,164.721,297.382
			c5.896,93.442-4.457,265.152-30.557,316.959c-26.551,4.895-63.001,0.084-86.57-12.999c3.116-38.24,18.567-192.967,10.521-288.659
			C1007.481,1577.571,996.781,1534.372,970.899,1488.427z"/>
	</g>
	<g id="BACK_x5F_ARROWS">
		<g id="L_-_BACK_BODY_LENGTH_1_">
			<g>
				<line fill="none" stroke="#CC66CC" stroke-width="5" stroke-miterlimit="10" x1="667.5" y1="1271" x2="667.5" y2="1884"/>
				<g>
					<polygon fill="#CC66CC" points="658.052,1277.947 667.865,1273.778 677.679,1277.947 667.865,1254.685 					"/>
				</g>
				<g>
					<polygon fill="#CC66CC" points="658.052,1876.092 667.865,1880.261 677.679,1876.092 667.865,1899.354 					"/>
				</g>
			</g>
		</g>
		<g id="K_-_FULL_SHOULDER_WIDTH_1_">
			<g>
				<line fill="none" stroke="#6666CC" stroke-width="5" stroke-miterlimit="10" x1="566" y1="1304.5" x2="938" y2="1304.5"/>
				<g>
					<polygon fill="#6666CC" points="573.081,1314.113 568.912,1304.3 573.081,1294.486 549.818,1304.3 					"/>
				</g>
				<g>
					<polygon fill="#6666CC" points="930.713,1314.113 934.882,1304.3 930.713,1294.486 953.976,1304.3 					"/>
				</g>
			</g>
		</g>
	</g>
</g>
<g id="FRONT">
	<g id="FRONT_x5F_DRAWING">
		<g id="BOTTOM_HEM_1_">
			<g>
				<path fill="none" stroke="#000000" stroke-width="4.05" stroke-miterlimit="10" d="M975.194,924.759
					c-1.312,0.104-3.127,0.208-5.388,0.31"/>
				<path fill="none" stroke="#000000" stroke-width="4.05" stroke-miterlimit="10" stroke-dasharray="10.9874,6.8671" d="
					M962.949,925.332c-46.913,1.564-191.19,2.781-210.808,2.781c-20.121,0-171.396-1.28-214.229-2.902"/>
				<path fill="none" stroke="#000000" stroke-width="4.05" stroke-miterlimit="10" d="M534.478,925.069
					c-2.261-0.102-4.076-0.205-5.388-0.31"/>
			</g>
		</g>
		<g id="COLLAR_x5F_FRONT_x5F_BOTTOM_1_">
			<g>
				<path fill="none" stroke="#000000" stroke-width="4.05" stroke-miterlimit="10" d="M836.464,295.994
					c-0.233,2.226-0.639,4.935-1.259,7.995"/>
				<path fill="none" stroke="#000000" stroke-width="4.05" stroke-miterlimit="10" stroke-dasharray="16.3482,9.5364" d="
					M832.907,313.237c-7.674,26.152-28.908,64.499-80.766,64.499c-54.984,0-75.542-43.115-82.008-69.089"/>
				<path fill="none" stroke="#000000" stroke-width="4.05" stroke-miterlimit="10" d="M669.081,303.989
					c-0.621-3.061-1.025-5.77-1.259-7.996"/>
			</g>
		</g>
		<g id="COLLAR_x5F_BACK_x5F_BOTTOM_1_">
			<g>
				<path fill="none" stroke="#000000" stroke-width="4.05" stroke-miterlimit="10" d="M816.657,310.155
					c-2.872,1.524-6.218,2.979-9.88,4.339"/>
				<path fill="none" stroke="#000000" stroke-width="4.05" stroke-miterlimit="10" stroke-dasharray="21.2721,11.9655" d="
					M795.391,318.158c-14.693,4.11-31.468,6.722-43.249,6.722c-13.344,0-33.098-3.352-48.974-8.436"/>
				<path fill="none" stroke="#000000" stroke-width="4.05" stroke-miterlimit="10" d="M697.508,314.494
					c-3.662-1.36-7.007-2.815-9.88-4.339"/>
			</g>
		</g>
		<path id="COLLAR_x5F_FRONT_x5F_TOP_1_" fill="none" stroke="#000000" stroke-width="6.75" stroke-miterlimit="10" d="
			M820.665,289.253c-0.069,13.624-12.113,71.254-68.523,71.254c-56.409,0-68.453-57.63-68.521-71.254"/>
		<path id="SLEEVE_SEAM_x5F_LEFT" fill="none" stroke="#000000" stroke-width="4.05" stroke-miterlimit="10" d="M547.468,351.512
			c18.802,22.866,27.494,129.607-12.588,181.062"/>
		<path id="SLEEVE_SEAM_x5F_RIGHT" fill="none" stroke="#000000" stroke-width="4.05" stroke-miterlimit="10" d="M957.957,351.512
			c-18.803,22.866-27.494,129.607,12.588,181.062"/>
		<g id="SLEEVE_HEM_x5F_LEFT">
			<g>
				<path fill="none" stroke="#000000" stroke-width="4.05" stroke-miterlimit="10" d="M495.977,932.441
					c-1.51,0.652-3.201,1.291-5.047,1.913"/>
				<path fill="none" stroke="#000000" stroke-width="4.05" stroke-miterlimit="10" stroke-dasharray="11.3503,7.0939" d="
					M484.135,936.389c-19.628,5.27-49.516,8.862-69.544,8.453"/>
				<path fill="none" stroke="#000000" stroke-width="4.05" stroke-miterlimit="10" d="M411.041,944.722
					c-1.916-0.092-3.717-0.228-5.38-0.41"/>
			</g>
		</g>
		<g id="SLEEVE_HEM_x5F_RIGHT">
			<g>
				<path fill="none" stroke="#000000" stroke-width="4.05" stroke-miterlimit="10" d="M1007.296,931.07
					c1.506,0.671,3.188,1.332,5.021,1.979"/>
				<path fill="none" stroke="#000000" stroke-width="4.05" stroke-miterlimit="10" stroke-dasharray="11.5084,7.1927" d="
					M1019.176,935.212c19.873,5.657,50.146,9.787,70.368,9.699"/>
				<path fill="none" stroke="#000000" stroke-width="4.05" stroke-miterlimit="10" d="M1093.141,944.847
					c1.92-0.062,3.724-0.17,5.39-0.325"/>
			</g>
		</g>
		<path id="CONTOUR" fill="none" stroke="#000000" stroke-width="6.75" stroke-miterlimit="10" d="M970.786,536.423
			c4.676,69.796,6.114,388.771,3.981,411.334c-61.631,1.812-187.449,2.745-222.558,2.745c-33.742,0-158.686-0.934-222.521-2.745
			c-2.136-22.563-1.526-344.242,4.099-411.133c-26.775,45.288-38.639,88.944-45.99,125.595
			c-8.01,96.324,7.268,250.459,10.385,288.699c-23.57,13.084-60.02,17.979-86.569,13.084
			c-26.101-51.807-35.775-223.684-30.558-316.793c19.398-106.251,105.98-261.94,165.049-298.397
			c42.809-23.233,94.282-43.697,120.967-51.14c0,0,9.855-6.6,16.877-9.099c21.627,14.683,55.04,19.335,68.194,19.335
			c11.923,0,44.558-4.315,67.368-19.335c7.021,2.499,17.705,8.765,17.705,8.765c26.684,7.441,74.98,27.228,120.967,52.155
			c59.614,32.315,145.324,191.131,164.721,297.382c5.896,93.443-4.457,265.153-30.557,316.959
			c-26.551,4.896-63.001,0.085-86.57-12.999c3.116-38.24,18.567-192.967,10.521-288.658
			C1007.368,625.569,996.668,582.369,970.786,536.423z"/>
	</g>
	<g id="FRONT_x5F_ARROWS">
		<g id="J_-_SLEEVE_BOTTOM_LENGTH_1_">
			
				<line fill="none" stroke="#66CCCC" stroke-width="5.3" stroke-miterlimit="10" x1="976.107" y1="533.319" x2="1027.019" y2="515.318"/>
			
				<line fill="none" stroke="#66CCCC" stroke-width="5.3" stroke-miterlimit="10" x1="1012.387" y1="948.405" x2="1066.337" y2="950.733"/>
			<g>
				<g>
					<path fill="none" stroke="#66CCCC" stroke-width="5.3" stroke-miterlimit="10" d="M1014.982,538.493
						c7.992,21.048,22.786,60.448,33.116,90.58c11.139,32.492,11.503,74.819,10.385,100.807
						c-2.854,66.365-8.255,164.137-10.382,202.01"/>
					<g>
						<polygon fill="#66CCCC" points="1008.407,548.946 1016.105,541.57 1026.76,541.99 1009.339,523.716 						"/>
					</g>
					<g>
						<polygon fill="#66CCCC" points="1038.695,923.913 1048.263,928.617 1058.291,924.997 1047.208,947.682 						"/>
					</g>
				</g>
			</g>
		</g>
		<g id="I_-_SLEEVE_TOP_LENGTH_1_">
			
				<line fill="none" stroke="#66CC66" stroke-width="5.3" stroke-miterlimit="10" x1="349.676" y1="972.792" x2="403.348" y2="966.846"/>
			
				<line fill="none" stroke="#66CC66" stroke-width="5.3" stroke-miterlimit="10" x1="541.989" y1="344.119" x2="513.053" y2="298.525"/>
			<g>
				<g>
					<path fill="none" stroke="#66CC66" stroke-width="5.3" stroke-miterlimit="10" d="M507.91,324.483
						c-0.503,0.308-1.885,1.191-8.476,5.396c-38.548,25.49-145.873,196.464-158.565,318.64
						c-8.232,78.975,17.579,243.887,23.428,290.259c0.564,4.478,1.148,9.432,1.669,13.991"/>
					<g>
						<polygon fill="#66CC66" points="496.416,320.098 505.137,326.231 506.775,336.767 521.354,316.153 						"/>
					</g>
					<g>
						<polygon fill="#66CC66" points="355.305,946.504 365.529,949.529 374.804,944.27 367.702,968.499 						"/>
					</g>
				</g>
			</g>
		</g>
		<g id="H_-_SLEEVE_HEM_LENGTH_1_">
			
				<line fill="none" stroke="#CCCC66" stroke-width="5.3" stroke-miterlimit="10" x1="419.878" y1="1023.531" x2="411.76" y2="970.146"/>
			
				<line fill="none" stroke="#CCCC66" stroke-width="5.3" stroke-miterlimit="10" x1="508.146" y1="1010.01" x2="500.028" y2="956.625"/>
			<g>
				<g>
					
						<line fill="none" stroke="#CCCC66" stroke-width="5.3" stroke-miterlimit="10" x1="434.169" y1="1000.813" x2="487.374" y2="992.412"/>
					<g>
						<polygon fill="#CCCC66" points="443.051,1009.345 437.403,1000.302 439.991,989.958 418.543,1003.279 						"/>
					</g>
					<g>
						<polygon fill="#CCCC66" points="481.552,1003.267 484.14,992.923 478.492,983.88 503,989.945 						"/>
					</g>
				</g>
			</g>
		</g>
		<g id="G_-_ARMHOLE_LENGTH_1_">
			
				<line fill="none" stroke="#CC6666" stroke-width="5.3" stroke-miterlimit="10" x1="553.484" y1="352.024" x2="602.212" y2="354.423"/>
			
				<line fill="none" stroke="#CC6666" stroke-width="5.3" stroke-miterlimit="10" x1="541.365" y1="533.552" x2="590.094" y2="535.951"/>
			<g>
				<g>
					
						<line fill="none" stroke="#CC6666" stroke-width="5.3" stroke-miterlimit="10" x1="583.25" y1="371.612" x2="574.281" y2="517.085"/>
					<g>
						<polygon fill="#CC6666" points="572.997,378.437 583.048,374.879 592.586,379.645 584.223,355.822 						"/>
					</g>
					<g>
						<polygon fill="#CC6666" points="564.945,509.053 574.483,513.818 584.534,510.26 573.308,532.875 						"/>
					</g>
				</g>
			</g>
		</g>
		<g id="F_-_SIDE_SHOULDER_LENGTH_1_">
			
				<line fill="none" stroke="#FF66CC" stroke-width="5.3" stroke-miterlimit="10" x1="960.563" y1="344.803" x2="979.442" y2="302.335"/>
			
				<line fill="none" stroke="#FF66CC" stroke-width="5.3" stroke-miterlimit="10" x1="838.354" y1="289.572" x2="857.233" y2="247.105"/>
			<g>
				<g>
					
						<line fill="none" stroke="#FF66CC" stroke-width="5.3" stroke-miterlimit="10" x1="866.841" y1="270.63" x2="955.6" y2="310.944"/>
					<g>
						<polygon fill="#FF66CC" points="869.56,282.643 869.822,271.984 877.676,264.773 852.438,264.088 						"/>
					</g>
					<g>
						<polygon fill="#FF66CC" points="944.765,316.801 952.618,309.59 952.881,298.932 970.003,317.486 						"/>
					</g>
				</g>
			</g>
		</g>
		<g id="E_-_NECK_WIDTH_1_">
			<line fill="none" stroke="#9966FF" stroke-width="5" stroke-miterlimit="10" x1="836.5" y1="289" x2="836.5" y2="241"/>
			<line fill="none" stroke="#9966FF" stroke-width="5" stroke-miterlimit="10" x1="666.5" y1="289" x2="666.5" y2="241"/>
			<g>
				<g>
					<line fill="none" stroke="#9966FF" stroke-width="5" stroke-miterlimit="10" x1="685" y1="258.5" x2="818" y2="258.5"/>
					<g>
						<polygon fill="#9966FF" points="691.972,268.326 687.803,258.512 691.972,248.699 668.709,258.512 						"/>
					</g>
					<g>
						<polygon fill="#9966FF" points="810.946,268.326 815.115,258.512 810.946,248.699 834.209,258.512 						"/>
					</g>
				</g>
			</g>
		</g>
		<g id="D_-_BOTTOM_HEM_2_">
			<line fill="none" stroke="#66CCFF" stroke-width="5" stroke-miterlimit="10" x1="529.5" y1="1002" x2="529.5" y2="954"/>
			<line fill="none" stroke="#66CCFF" stroke-width="5" stroke-miterlimit="10" x1="975.5" y1="1002" x2="975.5" y2="954"/>
			<g>
				<g>
					<line fill="none" stroke="#66CCFF" stroke-width="5" stroke-miterlimit="10" x1="547" y1="984.5" x2="957" y2="984.5"/>
					<g>
						<polygon fill="#66CCFF" points="554.763,994.03 550.593,984.217 554.763,974.403 531.5,984.217 						"/>
					</g>
					<g>
						<polygon fill="#66CCFF" points="949.987,994.03 954.156,984.217 949.987,974.403 973.25,984.217 						"/>
					</g>
				</g>
			</g>
		</g>
		<g id="C_-_WAIST_WIDTH_2_">
			<g>
				<line fill="none" stroke="#66FF66" stroke-width="5" stroke-miterlimit="10" x1="548" y1="747.5" x2="956" y2="747.5"/>
				<g>
					<polygon fill="#66FF66" points="555.263,757.415 551.093,747.601 555.263,737.788 532,747.601 					"/>
				</g>
				<g>
					<polygon fill="#66FF66" points="948.925,757.415 953.094,747.601 948.925,737.788 972.188,747.601 					"/>
				</g>
			</g>
		</g>
		<g id="B_-_CHEST_WIDTH_2_">
			<g>
				<line fill="none" stroke="#FFCC66" stroke-width="5" stroke-miterlimit="10" x1="552" y1="550.5" x2="953" y2="550.5"/>
				<g>
					<polygon fill="#FFCC66" points="559.133,559.828 554.963,550.014 559.133,540.201 535.87,550.014 					"/>
				</g>
				<g>
					<polygon fill="#FFCC66" points="945.32,559.828 949.489,550.014 945.32,540.201 968.583,550.014 					"/>
				</g>
			</g>
		</g>
		<g id="A_-_FRONT_BODY_LENGTH_2_">
			<g>
				<line fill="none" stroke="#FF6666" stroke-width="5" stroke-miterlimit="10" x1="839.5" y1="317" x2="839.5" y2="931"/>
				<g>
					<polygon fill="#FF6666" points="829.967,324.388 839.78,320.218 849.594,324.388 839.78,301.125 					"/>
				</g>
				<g>
					<polygon fill="#FF6666" points="829.967,923.519 839.78,927.688 849.594,923.519 839.78,946.781 					"/>
				</g>
			</g>
		</g>
	</g>
	<g>
	</g>
	<g>
	</g>
	<g>
	</g>
	<g>
	</g>
	<g>
	</g>
	<g>
	</g>
	<g>
	</g>
	<g>
	</g>
	<g>
	</g>
	<g>
	</g>
	<g>
	</g>
	<g>
	</g>
	<g>
	</g>
	<g>
	</g>
	<g>
	</g>
	<g>
	</g>
</g>
</svg>
