<?xml version="1.0" encoding="utf-8"?>
<!-- Generator: Adobe Illustrator 16.0.0, SVG Export Plug-In . SVG Version: 6.00 Build 0)  -->
<!DOCTYPE svg PUBLIC "-//W3C//DTD SVG 1.1//EN" "http://www.w3.org/Graphics/SVG/1.1/DTD/svg11.dtd">
<svg version="1.1" xmlns="http://www.w3.org/2000/svg" xmlns:xlink="http://www.w3.org/1999/xlink" x="0px" y="0px" width="1500px"
	 height="2000px" viewBox="0 0 1500 2000" enable-background="new 0 0 1500 2000" xml:space="preserve">
<g id="BACKGROUND">
	<rect y="1" fill="#FFFFFF" width="1500" height="2000"/>
</g>
<g id="BACK">
	<g id="BACK_x5F_DRAWING">
		<g id="RIGHT_x5F_SLEEVE_HEM_7_">
			<g>
				<path fill="none" stroke="#000000" stroke-width="4.05" stroke-miterlimit="10" d="M1015.995,1497.604
					c0.812-1.027,1.907-2.49,3.239-4.317"/>
				<path fill="none" stroke="#000000" stroke-width="4.05" stroke-miterlimit="10" stroke-dasharray="11.3329,7.0831" d="
					M1023.364,1487.533c15.692-22.115,47.625-69.303,60.386-88.282"/>
				<path fill="none" stroke="#000000" stroke-width="4.05" stroke-miterlimit="10" d="M1085.726,1396.311
					c1.414-2.108,2.443-3.647,2.999-4.487"/>
			</g>
		</g>
		<g id="LEFT_x5F_SLEEVE_HEM_7_">
			<g>
				<path fill="none" stroke="#000000" stroke-width="4.05" stroke-miterlimit="10" d="M488.989,1497.604
					c-0.812-1.027-1.907-2.49-3.239-4.317"/>
				<path fill="none" stroke="#000000" stroke-width="4.05" stroke-miterlimit="10" stroke-dasharray="11.3329,7.0831" d="
					M481.62,1487.533c-15.693-22.115-47.625-69.302-60.386-88.282"/>
				<path fill="none" stroke="#000000" stroke-width="4.05" stroke-miterlimit="10" d="M419.259,1396.311
					c-1.415-2.108-2.443-3.647-2.999-4.487"/>
			</g>
		</g>
		<path id="RIGHT_x5F_SLEEVE_SEAM_4_" fill="none" stroke="#000000" stroke-width="4.05" stroke-miterlimit="10" d="
			M962.581,1302.382c-18.802,22.867-43.197,135.078,8.538,183.762"/>
		<path id="LEFT_x5F_SLEEVE_SEAM_4_" fill="none" stroke="#000000" stroke-width="4.05" stroke-miterlimit="10" d="
			M542.403,1302.382c18.802,22.867,43.195,135.078-8.538,183.762"/>
		<g id="COLLAR_SEAM_x5F_BACK">
			<g>
				<path fill="none" stroke="#000000" stroke-width="4.05" stroke-miterlimit="10" d="M837.563,1247.191
					c-1.777,2.83-4.26,5.467-7.289,7.904"/>
				<path fill="none" stroke="#000000" stroke-width="4.05" stroke-miterlimit="10" stroke-dasharray="19.5919,11.0204" d="
					M821.053,1261.107c-19.386,10.446-48.92,15.863-68.562,15.863c-23.94,0-54.867-6.158-73.354-18.578"/>
				<path fill="none" stroke="#000000" stroke-width="4.05" stroke-miterlimit="10" d="M674.719,1255.101
					c-2.93-2.432-5.401-5.068-7.3-7.909"/>
			</g>
		</g>
		<path id="COLLAR_x5F_BACK_x5F_BOTTOM" fill="none" stroke="#000000" stroke-width="4.05" stroke-miterlimit="10" d="
			M667.419,1247.191c32.971,25.948,137.596,26.172,169.898,0"/>
		<path id="CONTOUR_3_" fill="none" stroke="#000000" stroke-width="6.75" stroke-miterlimit="10" d="M752.244,1913.521
			c35.107,0,162.604,0,222.592-16.244c2.134-22.564-3.556-393.009-3.965-411.334c16.491,5.455,46.095,12.901,63.729,14.635
			c10.367-10.672,58.849-83.242,67.387-97.879c-20.633-19.321-114.953-88.43-139.653-100.317
			c-31.405-20.639-98.332-47.747-125.016-55.19c0,0-18.784-24.149-25.806-26.648c-22.98,11.646-47.345,12.585-59.268,12.585
			c-13.155,0-29.864-1.032-53.344-12.585c-7.021,2.499-31.728,26.648-31.728,26.648c-26.684,7.443-93.611,34.552-125.018,55.19
			c-24.698,11.888-119.021,80.996-139.651,100.317c8.538,14.637,57.02,87.207,67.387,97.879c17.632-1.733,47.235-9.18,63.727-14.635
			c-0.407,18.325-6.099,388.77-3.963,411.334C591.602,1913.521,718.502,1913.521,752.244,1913.521z"/>
	</g>
	<g id="BACK_x5F_ARROWS">
		<g id="L_-_BACK_BODY_LENGTH_2_">
			<g>
				<line fill="none" stroke="#CC66CC" stroke-width="5" stroke-miterlimit="10" x1="666.5" y1="1266" x2="666.5" y2="1894"/>
				<g>
					<polygon fill="#CC66CC" points="656.69,1273.513 666.504,1269.344 676.317,1273.513 666.504,1250.25 					"/>
				</g>
				<g>
					<polygon fill="#CC66CC" points="656.69,1886.112 666.504,1890.281 676.317,1886.112 666.504,1909.375 					"/>
				</g>
			</g>
		</g>
		<g id="K_-_FULL_SHOULDER_WIDTH_2_">
			<g>
				<line fill="none" stroke="#6666CC" stroke-width="5" stroke-miterlimit="10" x1="562" y1="1304.5" x2="943" y2="1304.5"/>
				<g>
					<polygon fill="#6666CC" points="569.388,1314.33 565.218,1304.517 569.388,1294.703 546.125,1304.517 					"/>
				</g>
				<g>
					<polygon fill="#6666CC" points="935.612,1314.33 939.781,1304.517 935.612,1294.703 958.875,1304.517 					"/>
				</g>
			</g>
		</g>
	</g>
</g>
<g id="FRONT">
	<g id="FRONT_x5F_COLLAR_1_">
		<g id="COLLAR_x5F_BOTTOM_x5F_RIGHT_3_">
			<g>
				<line fill="none" stroke="#000000" stroke-width="4" stroke-miterlimit="10" x1="735" y1="963" x2="751" y2="963"/>
				<path fill="none" stroke="#000000" stroke-width="4" stroke-miterlimit="10" d="M759,963c0,0,12,0,16,0c0-4,0-17,0-17"/>
				
					<line fill="none" stroke="#000000" stroke-width="4" stroke-miterlimit="10" stroke-dasharray="33,12" x1="775" y1="934" x2="775" y2="392"/>
				<line fill="none" stroke="#000000" stroke-width="4" stroke-miterlimit="10" x1="775" y1="385" x2="775" y2="369"/>
			</g>
		</g>
		<path id="COLLAR_x5F_BOTTOM_x5F_LEFT_3_" fill="none" stroke="#000000" stroke-width="4.05" stroke-miterlimit="10" d="
			M734.851,367.187c0.051,180.947,0,536.636,0,595.466"/>
		<g id="BOUTON_x5F_7_1_">
			<circle id="BOUTON_x5F_1_19_" cx="755.065" cy="868.809" r="8.795"/>
			<circle fill="#FFFFFF" cx="757.314" cy="871.059" r="1.384"/>
			<circle fill="#FFFFFF" cx="752.817" cy="871.059" r="1.384"/>
			<circle fill="#FFFFFF" cx="757.314" cy="866.562" r="1.384"/>
			<circle fill="#FFFFFF" cx="752.817" cy="866.562" r="1.384"/>
		</g>
		<g id="BOUTON_x5F_6_1_">
			<circle id="BOUTON_x5F_1_18_" cx="755.065" cy="775.659" r="8.795"/>
			<circle fill="#FFFFFF" cx="757.314" cy="777.908" r="1.384"/>
			<circle fill="#FFFFFF" cx="752.817" cy="777.908" r="1.384"/>
			<circle fill="#FFFFFF" cx="757.314" cy="773.411" r="1.384"/>
			<circle fill="#FFFFFF" cx="752.817" cy="773.411" r="1.384"/>
		</g>
		<g id="BOUTON_x5F_5_1_">
			<circle id="BOUTON_x5F_1_17_" cx="755.065" cy="682.509" r="8.795"/>
			<circle fill="#FFFFFF" cx="757.314" cy="684.758" r="1.384"/>
			<circle fill="#FFFFFF" cx="752.817" cy="684.758" r="1.384"/>
			<circle fill="#FFFFFF" cx="757.314" cy="680.262" r="1.384"/>
			<circle fill="#FFFFFF" cx="752.817" cy="680.262" r="1.384"/>
		</g>
		<g id="BOUTON_x5F_4_1_">
			<circle id="BOUTON_x5F_1_16_" cx="755.065" cy="589.359" r="8.795"/>
			<circle fill="#FFFFFF" cx="757.314" cy="591.608" r="1.384"/>
			<circle fill="#FFFFFF" cx="752.817" cy="591.608" r="1.384"/>
			<circle fill="#FFFFFF" cx="757.314" cy="587.111" r="1.384"/>
			<circle fill="#FFFFFF" cx="752.817" cy="587.111" r="1.384"/>
		</g>
		<g id="BOUTON_x5F_3_2_">
			<circle id="BOUTON_x5F_1_15_" cx="755.065" cy="496.209" r="8.795"/>
			<circle fill="#FFFFFF" cx="757.314" cy="498.458" r="1.384"/>
			<circle fill="#FFFFFF" cx="752.817" cy="498.458" r="1.384"/>
			<circle fill="#FFFFFF" cx="757.314" cy="493.961" r="1.384"/>
			<circle fill="#FFFFFF" cx="752.817" cy="493.961" r="1.384"/>
		</g>
		<g id="BOUTON_x5F_2_3_">
			<circle id="BOUTON_x5F_1_14_" cx="755.065" cy="403.082" r="8.795"/>
			<circle fill="#FFFFFF" cx="757.314" cy="405.331" r="1.384"/>
			<circle fill="#FFFFFF" cx="752.817" cy="405.331" r="1.384"/>
			<circle fill="#FFFFFF" cx="757.314" cy="400.834" r="1.384"/>
			<circle fill="#FFFFFF" cx="752.817" cy="400.834" r="1.384"/>
		</g>
		<g id="BOUTON_x5F_1_12_">
			<circle id="BOUTON_x5F_1_13_" cx="755.065" cy="353.155" r="8.795"/>
			<circle fill="#FFFFFF" cx="757.314" cy="355.403" r="1.384"/>
			<circle fill="#FFFFFF" cx="752.817" cy="355.403" r="1.384"/>
			<circle fill="#FFFFFF" cx="757.314" cy="350.907" r="1.384"/>
			<circle fill="#FFFFFF" cx="752.817" cy="350.907" r="1.384"/>
		</g>
		<g id="COLLAR_x5F_SEAM_3_">
			
				<path id="COLLAR_x5F_SEAM_x5F_4_3_" fill="none" stroke="#000000" stroke-width="4.05" stroke-miterlimit="10" stroke-dasharray="21.6,12.15" d="
				M818.14,345.708c12.064-11.885,17.974-26.935,20.614-48.126"/>
			
				<path id="COLLAR_x5F_SEAM_x5F_3_3_" fill="none" stroke="#000000" stroke-width="4.05" stroke-miterlimit="10" stroke-dasharray="32.4,12.15" d="
				M732.241,358.177c0,0-1.617,7.546,6.206,10.542c13.379,5.098,25.785,5.098,45.783-3.13"/>
			
				<path id="COLLAR_x5F_SEAM_x5F_2_3_" fill="none" stroke="#000000" stroke-width="4.05" stroke-miterlimit="10" stroke-dasharray="2.7,12.15" d="
				M726.397,365.723c2.777,0.817,5.6,1.519,8.453,2.096"/>
			
				<path id="COLLAR_x5F_SEAM_x5F_1_3_" fill="none" stroke="#000000" stroke-width="4.05" stroke-miterlimit="10" stroke-dasharray="21.6,12.15" d="
				M668.519,299.11c1.772,20.271,10.874,36.461,24.057,48.212"/>
		</g>
		<path id="COLLAR_x5F_RIGHT_3_" fill="none" stroke="#000000" stroke-width="4.05" stroke-miterlimit="10" d="M812.173,270.593
			c3.325,22.277-33.251,53.552-47.94,62.455c8.095,17.986,14.989,30.429,29.381,44.818c10.193-6.761,38.778-60.726,41.815-81.407"/>
		<path id="COLLAR_x5F_LEFT_3_" fill="none" stroke="#000000" stroke-width="4.05" stroke-miterlimit="10" d="M698.425,269.674
			c-4.347,31.592,33.844,55.276,47.219,63.374c-6.896,18.284-16.846,31.629-29.884,44.217
			c-10.438-7.195-39.888-62.923-46.295-81.484"/>
		<path id="COLLAR_x5F_TOP_x5F_CENTER_3_" fill="none" stroke="#000000" stroke-width="4.05" stroke-miterlimit="10" d="
			M764.232,333.271c-6.109,1.183-10.494,1.403-18.114,0.02"/>
		<g id="COLLAR_x5F_BOTTOM_x5F_BACK_3_">
			<g>
				<path fill="none" stroke="#000000" stroke-width="4.05" stroke-miterlimit="10" d="M718.46,313.402
					c3.725,0.92,7.209,1.729,10.528,2.421"/>
				<path fill="none" stroke="#000000" stroke-width="4.05" stroke-miterlimit="10" stroke-dasharray="23.4227,13.1753" d="
					M741.978,317.993c9.795,1.147,18.906,0.931,29.892-0.905"/>
				<path fill="none" stroke="#000000" stroke-width="4.05" stroke-miterlimit="10" d="M778.349,315.866
					c3.301-0.688,6.788-1.508,10.516-2.463"/>
			</g>
		</g>
	</g>
	<g id="FRONT_x5F_DRAWING_1_">
		<g id="RIGHT_x5F_SLEEVE_HEM_2_">
			<g>
				<path fill="none" stroke="#000000" stroke-width="4.05" stroke-miterlimit="10" d="M1015.271,546.733
					c0.812-1.028,1.907-2.49,3.239-4.317"/>
				<path fill="none" stroke="#000000" stroke-width="4.05" stroke-miterlimit="10" stroke-dasharray="11.3329,7.083" d="
					M1022.641,536.664c15.693-22.115,47.626-69.302,60.387-88.282"/>
				<path fill="none" stroke="#000000" stroke-width="4.05" stroke-miterlimit="10" d="M1085.003,445.442
					c1.414-2.109,2.443-3.648,2.999-4.488"/>
			</g>
		</g>
		<g id="LEFT_x5F_SLEEVE_HEM_2_">
			<g>
				<path fill="none" stroke="#000000" stroke-width="4.05" stroke-miterlimit="10" d="M488.268,546.733
					c-0.812-1.028-1.907-2.49-3.24-4.317"/>
				<path fill="none" stroke="#000000" stroke-width="4.05" stroke-miterlimit="10" stroke-dasharray="11.3329,7.083" d="
					M480.898,536.664c-15.694-22.115-47.626-69.302-60.387-88.282"/>
				<path fill="none" stroke="#000000" stroke-width="4.05" stroke-miterlimit="10" d="M418.537,445.442
					c-1.415-2.109-2.444-3.648-3-4.488"/>
			</g>
		</g>
		<path id="RIGHT_x5F_SLEEVE_SEAM_2_" fill="none" stroke="#000000" stroke-width="4.05" stroke-miterlimit="10" d="
			M961.858,351.513c-18.803,22.866-43.196,135.077,8.537,183.762"/>
		<path id="LEFT_x5F_SLEEVE_SEAM_2_" fill="none" stroke="#000000" stroke-width="4.05" stroke-miterlimit="10" d="M541.681,351.513
			c18.803,22.866,43.196,135.077-8.538,183.762"/>
		<path id="CONTOUR_1_" fill="none" stroke="#000000" stroke-width="6.75" stroke-miterlimit="10" d="M751.769,962.652
			c35.107,0,162.605,0,222.592-16.245c2.135-22.563-3.556-393.009-3.965-411.334c16.492,5.456,46.096,12.903,63.729,14.636
			c10.368-10.672,58.849-83.242,67.387-97.878c-20.632-19.322-114.953-88.431-139.652-100.318
			c-31.406-20.639-98.333-47.748-125.017-55.19c0,0-18.783-24.149-25.805-26.648c-22.98,11.646-47.346,12.585-59.269,12.585
			c-13.154,0-29.863-1.032-53.344-12.585c-7.022,2.499-31.728,26.648-31.728,26.648c-26.685,7.442-93.61,34.552-125.017,55.19
			C516.981,363.4,422.66,432.509,402.028,451.831c8.537,14.636,57.019,87.206,67.387,97.878c17.633-1.732,47.236-9.18,63.728-14.636
			c-0.407,18.325-6.099,388.771-3.963,411.334C591.126,962.652,718.026,962.652,751.769,962.652z"/>
	</g>
	<g id="FRONT_x5F_ARROWS">
		<g id="J_-_SLEEVE_BOTTOM_LENGTH">
			
				<line fill="none" stroke="#66CCCC" stroke-width="5.3" stroke-miterlimit="10" x1="981.081" y1="482.341" x2="970.078" y2="529.871"/>
			
				<line fill="none" stroke="#66CCCC" stroke-width="5.3" stroke-miterlimit="10" x1="1043.284" y1="496.978" x2="1032.281" y2="544.507"/>
			<g>
				<g>
					
						<line fill="none" stroke="#66CCCC" stroke-width="5.3" stroke-miterlimit="10" x1="994.681" y1="503.865" x2="1021.823" y2="510.243"/>
					<g>
						<polygon fill="#66CCCC" points="999.682,515.121 997.867,504.614 1004.171,496.015 979.28,500.247 						"/>
					</g>
					<g>
						<polygon fill="#66CCCC" points="1012.333,518.093 1018.637,509.494 1016.822,498.987 1037.224,513.861 						"/>
					</g>
				</g>
			</g>
		</g>
		<g id="I_-_SLEEVE_TOP_LENGTH">
			
				<line fill="none" stroke="#66CC66" stroke-width="5.3" stroke-miterlimit="10" x1="511.309" y1="305.129" x2="538.681" y2="345.512"/>
			
				<line fill="none" stroke="#66CC66" stroke-width="5.3" stroke-miterlimit="10" x1="371.046" y1="406.361" x2="398.419" y2="446.744"/>
			<g>
				<g>
					
						<line fill="none" stroke="#66CC66" stroke-width="5.3" stroke-miterlimit="10" x1="394.745" y1="409.192" x2="506.147" y2="330.058"/>
					<g>
						<polygon fill="#66CC66" points="406.496,412.882 397.414,407.296 395.129,396.882 381.848,418.354 						"/>
					</g>
					<g>
						<polygon fill="#66CC66" points="505.763,342.368 503.479,331.953 494.396,326.367 519.044,320.896 						"/>
					</g>
				</g>
			</g>
		</g>
		<g id="H_-_SLEEVE_HEM_LENGTH">
			
				<line fill="none" stroke="#CCCC66" stroke-width="5.3" stroke-miterlimit="10" x1="354.831" y1="483.155" x2="395.171" y2="455.717"/>
			
				<line fill="none" stroke="#CCCC66" stroke-width="5.3" stroke-miterlimit="10" x1="424.352" y1="581.948" x2="464.692" y2="554.51"/>
			<g>
				<g>
					
						<line fill="none" stroke="#CCCC66" stroke-width="5.3" stroke-miterlimit="10" x1="379.716" y1="488.201" x2="428.42" y2="557.295"/>
					<g>
						<polygon fill="#CCCC66" points="375.983,499.938 381.602,490.877 392.025,488.63 370.602,475.271 						"/>
					</g>
					<g>
						<polygon fill="#CCCC66" points="416.112,556.866 426.535,554.619 432.153,545.558 437.535,570.225 						"/>
					</g>
				</g>
			</g>
		</g>
		<g id="G_-_ARMHOLE_LENGTH">
			
				<line fill="none" stroke="#CC6666" stroke-width="5.3" stroke-miterlimit="10" x1="549.952" y1="353.754" x2="598.718" y2="355.19"/>
			
				<line fill="none" stroke="#CC6666" stroke-width="5.3" stroke-miterlimit="10" x1="541.414" y1="535.485" x2="590.18" y2="536.922"/>
			<g>
				<g>
					
						<line fill="none" stroke="#CC6666" stroke-width="5.3" stroke-miterlimit="10" x1="580.148" y1="372.889" x2="574" y2="518.109"/>
					<g>
						<polygon fill="#CC6666" points="570.029,379.91 580.01,376.16 589.638,380.74 580.817,357.083 						"/>
					</g>
					<g>
						<polygon fill="#CC6666" points="564.51,510.258 574.138,514.838 584.119,511.088 573.331,533.915 						"/>
					</g>
				</g>
			</g>
		</g>
		<g id="F_-_SIDE_SHOULDER_LENGTH_5_">
			
				<line fill="none" stroke="#FF66CC" stroke-width="5.3" stroke-miterlimit="10" x1="964.021" y1="344.786" x2="983.284" y2="301.152"/>
			
				<line fill="none" stroke="#FF66CC" stroke-width="5.3" stroke-miterlimit="10" x1="839.331" y1="288.039" x2="858.594" y2="244.405"/>
			<g>
				<g>
					
						<line fill="none" stroke="#FF66CC" stroke-width="5.3" stroke-miterlimit="10" x1="867.895" y1="268.51" x2="959.258" y2="310.161"/>
					<g>
						<polygon fill="#FF66CC" points="870.597,280.527 870.873,269.868 878.737,262.668 853.5,261.948 						"/>
					</g>
					<g>
						<polygon fill="#FF66CC" points="948.415,316.002 956.279,308.803 956.556,298.144 973.652,316.723 						"/>
					</g>
				</g>
			</g>
		</g>
		<g id="E_-_NECK_WIDTH_2_">
			<line fill="none" stroke="#9966FF" stroke-width="5" stroke-miterlimit="10" x1="837.5" y1="288" x2="837.5" y2="239"/>
			<line fill="none" stroke="#9966FF" stroke-width="5" stroke-miterlimit="10" x1="667.5" y1="288" x2="667.5" y2="239"/>
			<g>
				<g>
					<line fill="none" stroke="#9966FF" stroke-width="5" stroke-miterlimit="10" x1="685" y1="257.5" x2="820" y2="257.5"/>
					<g>
						<polygon fill="#9966FF" points="692.728,266.977 688.558,257.163 692.728,247.35 669.465,257.163 						"/>
					</g>
					<g>
						<polygon fill="#9966FF" points="812.166,266.977 816.335,257.163 812.166,247.35 835.429,257.163 						"/>
					</g>
				</g>
			</g>
		</g>
		<g id="D_-_BOTTOM_HEM_2_">
			<line fill="none" stroke="#66CCFF" stroke-width="5" stroke-miterlimit="10" x1="528.5" y1="1002" x2="528.5" y2="954"/>
			<line fill="none" stroke="#66CCFF" stroke-width="5" stroke-miterlimit="10" x1="975.5" y1="1002" x2="975.5" y2="954"/>
			<g>
				<g>
					<line fill="none" stroke="#66CCFF" stroke-width="5" stroke-miterlimit="10" x1="547" y1="984.5" x2="958" y2="984.5"/>
					<g>
						<polygon fill="#66CCFF" points="554.013,994.031 549.844,984.218 554.013,974.404 530.75,984.218 						"/>
					</g>
					<g>
						<polygon fill="#66CCFF" points="950.071,994.031 954.24,984.218 950.071,974.404 973.334,984.218 						"/>
					</g>
				</g>
			</g>
		</g>
		<g id="C_-_WAIST_WIDTH_2_">
			<g>
				<line fill="none" stroke="#66FF66" stroke-width="5" stroke-miterlimit="10" x1="549" y1="747.5" x2="955" y2="747.5"/>
				<g>
					<polygon fill="#66FF66" points="556.18,757.415 552.01,747.602 556.18,737.788 532.917,747.602 					"/>
				</g>
				<g>
					<polygon fill="#66FF66" points="947.238,757.415 951.407,747.602 947.238,737.788 970.501,747.602 					"/>
				</g>
			</g>
		</g>
		<g id="B_-_CHEST_WIDTH_2_">
			<g>
				<line fill="none" stroke="#FFCC66" stroke-width="5" stroke-miterlimit="10" x1="552" y1="550.5" x2="952" y2="550.5"/>
				<g>
					<polygon fill="#FFCC66" points="559.346,559.828 555.177,550.015 559.346,540.201 536.083,550.015 					"/>
				</g>
				<g>
					<polygon fill="#FFCC66" points="944.321,559.828 948.49,550.015 944.321,540.201 967.584,550.015 					"/>
				</g>
			</g>
		</g>
		<g id="A_-_FRONT_BODY_LENGTH_2_">
			<g>
				<line fill="none" stroke="#FF6666" stroke-width="5" stroke-miterlimit="10" x1="842.5" y1="317" x2="842.5" y2="942"/>
				<g>
					<polygon fill="#FF6666" points="832.943,324.415 842.757,320.246 852.57,324.415 842.757,301.152 					"/>
				</g>
				<g>
					<polygon fill="#FF6666" points="832.943,934.821 842.757,938.99 852.57,934.821 842.757,958.083 					"/>
				</g>
			</g>
		</g>
	</g>
	<g>
	</g>
	<g>
	</g>
	<g>
	</g>
	<g>
	</g>
	<g>
	</g>
	<g>
	</g>
	<g>
	</g>
	<g>
	</g>
	<g>
	</g>
	<g>
	</g>
	<g>
	</g>
	<g>
	</g>
	<g>
	</g>
	<g>
	</g>
	<g>
	</g>
	<g>
	</g>
</g>
</svg>
