<?xml version="1.0" encoding="utf-8"?>
<!-- Generator: Adobe Illustrator 16.0.0, SVG Export Plug-In . SVG Version: 6.00 Build 0)  -->
<!DOCTYPE svg PUBLIC "-//W3C//DTD SVG 1.1//EN" "http://www.w3.org/Graphics/SVG/1.1/DTD/svg11.dtd">
<svg version="1.1" xmlns="http://www.w3.org/2000/svg" xmlns:xlink="http://www.w3.org/1999/xlink" x="0px" y="0px" width="1500px"
	 height="2000px" viewBox="0 0 1500 2000" enable-background="new 0 0 1500 2000" xml:space="preserve">
<g id="BACKGROUND">
	<rect y="1" fill="#FFFFFF" width="1500" height="2000"/>
</g>
<g id="BACK">
	<g id="BACK_x5F_DRAWING_1_">
		<g id="COLLAR_x5F_BACK_x5F_BOTTOM_7_">
			<g>
				<path fill="none" stroke="#000000" stroke-width="4.05" stroke-miterlimit="10" d="M837.575,1248.601
					c-1.777,2.83-4.26,5.467-7.289,7.904"/>
				<path fill="none" stroke="#000000" stroke-width="4.05" stroke-miterlimit="10" stroke-dasharray="19.5919,11.0204" d="
					M821.064,1262.517c-19.386,10.446-48.92,15.863-68.562,15.863c-23.94,0-54.867-6.159-73.354-18.578"/>
				<path fill="none" stroke="#000000" stroke-width="4.05" stroke-miterlimit="10" d="M674.73,1256.51
					c-2.93-2.432-5.401-5.068-7.3-7.909"/>
			</g>
		</g>
		<g id="BOTTOM_HEM_2_">
			<g>
				<path fill="none" stroke="#000000" stroke-width="4.05" stroke-miterlimit="10" d="M975.308,1875.688
					c-1.312,0.104-3.127,0.208-5.388,0.31"/>
				<path fill="none" stroke="#000000" stroke-width="4.05" stroke-miterlimit="10" stroke-dasharray="10.9874,6.8671" d="
					M963.063,1876.261c-46.913,1.564-191.19,2.78-210.808,2.78c-20.121,0-171.395-1.279-214.229-2.901"/>
				<path fill="none" stroke="#000000" stroke-width="4.05" stroke-miterlimit="10" d="M534.591,1875.998
					c-2.261-0.102-4.076-0.205-5.388-0.31"/>
			</g>
		</g>
		<path id="SLEEVE_SEAM_x5F_LEFT_1_" fill="none" stroke="#000000" stroke-width="4.05" stroke-miterlimit="10" d="M547.581,1302.44
			c18.802,22.867,27.494,129.608-12.588,181.063"/>
		<path id="SLEEVE_SEAM_x5F_RIGHT_1_" fill="none" stroke="#000000" stroke-width="4.05" stroke-miterlimit="10" d="M958.07,1302.44
			c-18.803,22.867-27.494,129.608,12.588,181.063"/>
		<g id="SLEEVE_HEM_x5F_LEFT_1_">
			<g>
				<path fill="none" stroke="#000000" stroke-width="4.05" stroke-miterlimit="10" d="M496.09,1883.369
					c-1.51,0.652-3.201,1.291-5.047,1.913"/>
				<path fill="none" stroke="#000000" stroke-width="4.05" stroke-miterlimit="10" stroke-dasharray="11.3503,7.0939" d="
					M484.249,1887.316c-19.628,5.271-49.516,8.863-69.544,8.455"/>
				<path fill="none" stroke="#000000" stroke-width="4.05" stroke-miterlimit="10" d="M411.154,1895.651
					c-1.916-0.093-3.717-0.229-5.38-0.41"/>
			</g>
		</g>
		<g id="SLEEVE_HEM_x5F_RIGHT_1_">
			<g>
				<path fill="none" stroke="#000000" stroke-width="4.05" stroke-miterlimit="10" d="M1007.409,1881.998
					c1.506,0.671,3.188,1.332,5.021,1.979"/>
				<path fill="none" stroke="#000000" stroke-width="4.05" stroke-miterlimit="10" stroke-dasharray="11.5084,7.1928" d="
					M1019.289,1886.141c19.872,5.658,50.146,9.788,70.368,9.7"/>
				<path fill="none" stroke="#000000" stroke-width="4.05" stroke-miterlimit="10" d="M1093.254,1895.776
					c1.92-0.063,3.724-0.17,5.39-0.325"/>
			</g>
		</g>
		<path id="CONTOUR_2_" fill="none" stroke="#000000" stroke-width="6.75" stroke-miterlimit="10" d="M970.899,1488.703
			c4.676,69.795,6.114,388.77,3.981,411.333c-61.631,1.812-187.449,2.745-222.558,2.745c-33.742,0-158.686-0.934-222.521-2.745
			c-2.136-22.563-1.525-344.242,4.099-411.133c-26.776,45.288-38.639,88.944-45.99,125.595
			c-8.01,96.324,7.268,250.459,10.384,288.699c-23.569,13.084-60.02,17.979-86.568,13.084
			c-26.102-51.807-35.775-223.684-30.558-316.793c19.398-106.25,105.98-261.94,165.048-298.397
			c42.811-23.233,94.284-43.697,120.968-51.141c0,0,24.706-24.149,31.728-26.647c22.864,11.87,40.189,12.585,53.344,12.585
			c11.923,0,38.146-0.94,59.269-12.585c7.021,2.498,25.805,26.314,25.805,26.314c26.684,7.441,74.98,27.228,120.967,52.155
			c59.614,32.315,145.324,191.131,164.721,297.383c5.896,93.442-4.457,265.152-30.557,316.958
			c-26.551,4.896-63.001,0.085-86.57-12.999c3.116-38.24,18.567-192.967,10.521-288.658
			C1007.481,1577.848,996.781,1534.647,970.899,1488.703z"/>
	</g>
	<g id="BACK_x5F_ARROWS_1_">
		<g id="L_-_BACK_BODY_LENGTH_3_">
			<g>
				<line fill="none" stroke="#CC66CC" stroke-width="5" stroke-miterlimit="10" x1="667.5" y1="1269" x2="667.5" y2="1882"/>
				<g>
					<polygon fill="#CC66CC" points="658.052,1276.873 667.865,1272.704 677.679,1276.873 667.865,1253.61 					"/>
				</g>
				<g>
					<polygon fill="#CC66CC" points="658.052,1875.018 667.865,1879.187 677.679,1875.018 667.865,1898.28 					"/>
				</g>
			</g>
		</g>
		<g id="K_-_FULL_SHOULDER_WIDTH_3_">
			<g>
				<line fill="none" stroke="#6666CC" stroke-width="5" stroke-miterlimit="10" x1="566" y1="1303.5" x2="938" y2="1303.5"/>
				<g>
					<polygon fill="#6666CC" points="573.081,1313.039 568.912,1303.226 573.081,1293.412 549.818,1303.226 					"/>
				</g>
				<g>
					<polygon fill="#6666CC" points="930.713,1313.039 934.882,1303.226 930.713,1293.412 953.976,1303.226 					"/>
				</g>
			</g>
		</g>
	</g>
</g>
<g id="FRONT">
	<g id="FRONT_x5F_DRAWING_1_">
		<g id="FRONT_x5F_COLLAR">
			<g id="COLLAR_x5F_BOTTOM_x5F_RIGHT_1_">
				<g>
					<line fill="none" stroke="#000000" stroke-width="4" stroke-miterlimit="10" x1="736" y1="498" x2="752" y2="498"/>
					<path fill="none" stroke="#000000" stroke-width="4" stroke-miterlimit="10" d="M759,498c0,0,12,0,16,0c0-2,0-16,0-16"/>
					
						<line fill="none" stroke="#000000" stroke-width="4" stroke-miterlimit="10" stroke-dasharray="30,11" x1="775" y1="471" x2="775" y2="394"/>
					<line fill="none" stroke="#000000" stroke-width="4" stroke-miterlimit="10" x1="775" y1="388" x2="775" y2="372"/>
				</g>
			</g>
			<path id="COLLAR_x5F_BOTTOM_x5F_LEFT_2_" fill="none" stroke="#000000" stroke-width="4.05" stroke-miterlimit="10" d="
				M735.224,369.886c0.051,39.598,0,117.434,0,130.307"/>
			<g id="BOUTON_x5F_3_3_">
				<circle id="BOUTON_x5F_1_12_" cx="755.438" cy="450.309" r="8.795"/>
				<circle fill="#FFFFFF" cx="757.687" cy="452.558" r="1.384"/>
				<circle fill="#FFFFFF" cx="753.19" cy="452.558" r="1.384"/>
				<circle fill="#FFFFFF" cx="757.687" cy="448.061" r="1.384"/>
				<circle fill="#FFFFFF" cx="753.19" cy="448.061" r="1.384"/>
			</g>
			<g id="BOUTON_x5F_2_1_">
				<circle id="BOUTON_x5F_1_4_" cx="755.438" cy="403.083" r="8.795"/>
				<circle fill="#FFFFFF" cx="757.687" cy="405.332" r="1.384"/>
				<circle fill="#FFFFFF" cx="753.19" cy="405.332" r="1.384"/>
				<circle fill="#FFFFFF" cx="757.687" cy="400.833" r="1.384"/>
				<circle fill="#FFFFFF" cx="753.19" cy="400.833" r="1.384"/>
			</g>
			<g id="BOUTON_x5F_1_2_">
				<circle id="BOUTON_x5F_1_3_" cx="755.438" cy="355.855" r="8.795"/>
				<circle fill="#FFFFFF" cx="757.687" cy="358.103" r="1.384"/>
				<circle fill="#FFFFFF" cx="753.19" cy="358.103" r="1.384"/>
				<circle fill="#FFFFFF" cx="757.687" cy="353.608" r="1.384"/>
				<circle fill="#FFFFFF" cx="753.19" cy="353.608" r="1.384"/>
			</g>
			<g id="COLLAR_x5F_SEAM_1_">
				
					<path id="COLLAR_x5F_SEAM_x5F_4_1_" fill="none" stroke="#000000" stroke-width="4.05" stroke-miterlimit="10" stroke-dasharray="21.6,12.15" d="
					M818.513,348.408c12.064-11.885,17.974-26.934,20.614-48.125"/>
				
					<path id="COLLAR_x5F_SEAM_x5F_3_1_" fill="none" stroke="#000000" stroke-width="4.05" stroke-miterlimit="10" stroke-dasharray="32.4,12.15" d="
					M732.614,360.876c0,0-1.617,7.547,6.206,10.542c13.379,5.099,25.785,5.099,45.783-3.13"/>
				
					<path id="COLLAR_x5F_SEAM_x5F_2_1_" fill="none" stroke="#000000" stroke-width="4.05" stroke-miterlimit="10" stroke-dasharray="2.7,12.15" d="
					M726.771,368.423c2.777,0.817,5.6,1.519,8.453,2.096"/>
				
					<path id="COLLAR_x5F_SEAM_x5F_1_1_" fill="none" stroke="#000000" stroke-width="4.05" stroke-miterlimit="10" stroke-dasharray="21.6,12.15" d="
					M668.892,301.81c1.772,20.271,10.874,36.462,24.057,48.212"/>
			</g>
			<path id="COLLAR_x5F_RIGHT_1_" fill="none" stroke="#000000" stroke-width="4.05" stroke-miterlimit="10" d="M812.546,273.292
				c3.325,22.278-33.251,53.553-47.94,62.455c8.095,17.986,14.989,30.429,29.381,44.819c10.193-6.762,38.778-60.726,41.815-81.408"
				/>
			<path id="COLLAR_x5F_LEFT_1_" fill="none" stroke="#000000" stroke-width="4.05" stroke-miterlimit="10" d="M698.798,272.375
				c-4.347,31.591,33.844,55.275,47.219,63.373c-6.896,18.284-16.846,31.629-29.884,44.217
				c-10.438-7.196-39.888-62.922-46.295-81.484"/>
			<path id="COLLAR_x5F_TOP_x5F_CENTER_1_" fill="none" stroke="#000000" stroke-width="4.05" stroke-miterlimit="10" d="
				M764.605,335.972c-6.109,1.183-10.494,1.402-18.114,0.02"/>
			<g id="COLLAR_x5F_BOTTOM_x5F_BACK_2_">
				<g>
					<path fill="none" stroke="#000000" stroke-width="4.05" stroke-miterlimit="10" d="M718.833,316.103
						c3.725,0.92,7.209,1.729,10.528,2.421"/>
					<path fill="none" stroke="#000000" stroke-width="4.05" stroke-miterlimit="10" stroke-dasharray="23.4226,13.1752" d="
						M742.351,320.693c9.795,1.147,18.906,0.931,29.892-0.905"/>
					<path fill="none" stroke="#000000" stroke-width="4.05" stroke-miterlimit="10" d="M778.722,318.566
						c3.301-0.688,6.788-1.508,10.516-2.463"/>
				</g>
			</g>
		</g>
		<g id="FRONT_x5F_TORSO_1_">
			<g id="BOTTOM_HEM_1_">
				<g>
					<path fill="none" stroke="#000000" stroke-width="4.05" stroke-miterlimit="10" d="M975.194,924.76
						c-1.312,0.104-3.127,0.208-5.388,0.31"/>
					<path fill="none" stroke="#000000" stroke-width="4.05" stroke-miterlimit="10" stroke-dasharray="10.9874,6.8671" d="
						M962.949,925.333c-46.913,1.564-191.19,2.78-210.808,2.78c-20.121,0-171.395-1.279-214.229-2.901"/>
					<path fill="none" stroke="#000000" stroke-width="4.05" stroke-miterlimit="10" d="M534.478,925.07
						c-2.261-0.102-4.076-0.205-5.388-0.31"/>
				</g>
			</g>
			<path id="SLEEVE_SEAM_x5F_LEFT" fill="none" stroke="#000000" stroke-width="4.05" stroke-miterlimit="10" d="M547.468,351.512
				c18.802,22.867,27.494,129.608-12.588,181.063"/>
			<path id="SLEEVE_SEAM_x5F_RIGHT" fill="none" stroke="#000000" stroke-width="4.05" stroke-miterlimit="10" d="M957.957,351.512
				c-18.803,22.867-27.494,129.608,12.588,181.063"/>
			<g id="SLEEVE_HEM_x5F_LEFT">
				<g>
					<path fill="none" stroke="#000000" stroke-width="4.05" stroke-miterlimit="10" d="M495.977,932.441
						c-1.51,0.652-3.201,1.291-5.047,1.913"/>
					<path fill="none" stroke="#000000" stroke-width="4.05" stroke-miterlimit="10" stroke-dasharray="11.3503,7.0939" d="
						M484.135,936.389c-19.628,5.27-49.516,8.863-69.544,8.454"/>
					<path fill="none" stroke="#000000" stroke-width="4.05" stroke-miterlimit="10" d="M411.041,944.723
						c-1.916-0.092-3.717-0.228-5.38-0.41"/>
				</g>
			</g>
			<g id="SLEEVE_HEM_x5F_RIGHT">
				<g>
					<path fill="none" stroke="#000000" stroke-width="4.05" stroke-miterlimit="10" d="M1007.296,931.07
						c1.506,0.671,3.188,1.332,5.021,1.979"/>
					<path fill="none" stroke="#000000" stroke-width="4.05" stroke-miterlimit="10" stroke-dasharray="11.5084,7.1928" d="
						M1019.176,935.213c19.872,5.658,50.146,9.788,70.368,9.7"/>
					<path fill="none" stroke="#000000" stroke-width="4.05" stroke-miterlimit="10" d="M1093.141,944.848
						c1.92-0.062,3.724-0.17,5.39-0.325"/>
				</g>
			</g>
			<path id="CONTOUR" fill="none" stroke="#000000" stroke-width="6.75" stroke-miterlimit="10" d="M970.786,536.423
				c4.676,69.796,6.114,388.771,3.981,411.334c-61.631,1.812-187.449,2.745-222.558,2.745c-33.742,0-158.686-0.934-222.521-2.745
				c-2.136-22.563-1.526-344.241,4.099-411.133c-26.775,45.288-38.639,88.944-45.99,125.595c-8.01,96.325,7.268,250.46,10.385,288.7
				c-23.57,13.083-60.02,17.979-86.569,13.083c-26.101-51.806-35.775-223.684-30.558-316.792
				c19.398-106.252,105.98-261.941,165.049-298.397c42.809-23.233,94.282-43.698,120.967-51.141c0,0,24.705-24.149,31.728-26.648
				c22.864,11.871,40.189,12.585,53.344,12.585c11.923,0,38.146-0.939,59.269-12.585c7.021,2.499,25.805,26.314,25.805,26.314
				c26.684,7.442,74.98,27.229,120.967,52.156c59.614,32.315,145.324,191.13,164.721,297.382
				c5.896,93.442-4.457,265.152-30.557,316.959c-26.551,4.895-63.001,0.084-86.57-12.999c3.116-38.24,18.567-192.967,10.521-288.659
				C1007.368,625.569,996.668,582.37,970.786,536.423z"/>
		</g>
	</g>
	<g id="FRONT_x5F_ARROWS_1_">
		<g id="J_-_SLEEVE_BOTTOM_LENGTH_1_">
			
				<line fill="none" stroke="#66CCCC" stroke-width="5.3" stroke-miterlimit="10" x1="976.107" y1="533.32" x2="1027.019" y2="515.319"/>
			
				<line fill="none" stroke="#66CCCC" stroke-width="5.3" stroke-miterlimit="10" x1="1012.387" y1="948.405" x2="1066.337" y2="950.733"/>
			<g>
				<g>
					<path fill="none" stroke="#66CCCC" stroke-width="5.3" stroke-miterlimit="10" d="M1015.211,538.621
						c7.916,21.026,22.564,60.34,32.888,90.453c11.139,32.492,11.503,74.819,10.385,100.807
						c-2.855,66.418-8.14,164.832-10.213,202.861"/>
					<g>
						<polygon fill="#66CCCC" points="1008.61,549.055 1016.329,541.7 1026.982,542.15 1009.612,523.827 						"/>
					</g>
					<g>
						<polygon fill="#66CCCC" points="1038.781,924.807 1048.37,929.468 1058.382,925.8 1047.404,948.537 						"/>
					</g>
				</g>
			</g>
		</g>
		<g id="I_-_SLEEVE_TOP_LENGTH_1_">
			
				<line fill="none" stroke="#66CC66" stroke-width="5.3" stroke-miterlimit="10" x1="349.676" y1="972.792" x2="403.348" y2="966.846"/>
			
				<line fill="none" stroke="#66CC66" stroke-width="5.3" stroke-miterlimit="10" x1="541.989" y1="344.12" x2="513.053" y2="298.525"/>
			<g>
				<g>
					<path fill="none" stroke="#66CC66" stroke-width="5.3" stroke-miterlimit="10" d="M508.042,324.159
						c-0.392,0.363-1.258,1.033-8.607,5.721c-38.548,25.491-145.873,196.465-158.565,318.64
						c-8.232,78.976,17.579,243.888,23.428,290.26c0.585,4.643,1.201,9.889,1.749,14.701"/>
					<g>
						<polygon fill="#66CC66" points="496.486,320.115 505.356,326.03 507.258,336.521 521.317,315.55 						"/>
					</g>
					<g>
						<polygon fill="#66CC66" points="355.383,947.199 365.606,950.226 374.882,944.969 367.776,969.196 						"/>
					</g>
				</g>
			</g>
		</g>
		<g id="H_-_SLEEVE_HEM_LENGTH_1_">
			
				<line fill="none" stroke="#CCCC66" stroke-width="5.3" stroke-miterlimit="10" x1="418.696" y1="1023.51" x2="410.578" y2="970.126"/>
			
				<line fill="none" stroke="#CCCC66" stroke-width="5.3" stroke-miterlimit="10" x1="508.146" y1="1010.01" x2="500.028" y2="956.626"/>
			<g>
				<g>
					
						<line fill="none" stroke="#CCCC66" stroke-width="5.3" stroke-miterlimit="10" x1="433.014" y1="1001.263" x2="487.974" y2="992.45"/>
					<g>
						<polygon fill="#CCCC66" points="441.917,1009.774 436.246,1000.745 438.809,990.395 417.394,1003.768 						"/>
					</g>
					<g>
						<polygon fill="#CCCC66" points="482.178,1003.318 484.741,992.968 479.071,983.939 503.594,989.945 						"/>
					</g>
				</g>
			</g>
		</g>
		<g id="G_-_ARMHOLE_LENGTH_1_">
			
				<line fill="none" stroke="#CC6666" stroke-width="5.3" stroke-miterlimit="10" x1="553.484" y1="352.025" x2="602.212" y2="354.423"/>
			
				<line fill="none" stroke="#CC6666" stroke-width="5.3" stroke-miterlimit="10" x1="541.365" y1="533.553" x2="590.094" y2="535.951"/>
			<g>
				<g>
					
						<line fill="none" stroke="#CC6666" stroke-width="5.3" stroke-miterlimit="10" x1="583.323" y1="371.226" x2="574.214" y2="517.075"/>
					<g>
						<polygon fill="#CC6666" points="573.064,378.042 583.119,374.493 592.653,379.266 584.309,355.437 						"/>
					</g>
					<g>
						<polygon fill="#CC6666" points="564.884,509.035 574.418,513.808 584.473,510.258 573.229,532.864 						"/>
					</g>
				</g>
			</g>
		</g>
		<g id="F_-_SIDE_SHOULDER_LENGTH_1_">
			
				<line fill="none" stroke="#FF66CC" stroke-width="5.3" stroke-miterlimit="10" x1="961.914" y1="344.803" x2="980.793" y2="302.335"/>
			
				<line fill="none" stroke="#FF66CC" stroke-width="5.3" stroke-miterlimit="10" x1="839.704" y1="289.573" x2="858.583" y2="247.106"/>
			<g>
				<g>
					
						<line fill="none" stroke="#FF66CC" stroke-width="5.3" stroke-miterlimit="10" x1="867.624" y1="270.787" x2="957.42" y2="310.747"/>
					<g>
						<polygon fill="#FF66CC" points="870.435,282.778 870.615,272.118 878.414,264.847 853.171,264.355 						"/>
					</g>
					<g>
						<polygon fill="#FF66CC" points="946.63,316.686 954.429,309.416 954.609,298.755 971.873,317.178 						"/>
					</g>
				</g>
			</g>
		</g>
		<g id="E_-_NECK_WIDTH_1_">
			<line fill="none" stroke="#9966FF" stroke-width="5" stroke-miterlimit="10" x1="839.5" y1="289" x2="839.5" y2="241"/>
			<line fill="none" stroke="#9966FF" stroke-width="5" stroke-miterlimit="10" x1="668.5" y1="289" x2="668.5" y2="241"/>
			<g>
				<g>
					<line fill="none" stroke="#9966FF" stroke-width="5" stroke-miterlimit="10" x1="687" y1="258.5" x2="822" y2="258.5"/>
					<g>
						<polygon fill="#9966FF" points="694.101,268.327 689.931,258.513 694.101,248.7 670.838,258.513 						"/>
					</g>
					<g>
						<polygon fill="#9966FF" points="814.363,268.327 818.532,258.513 814.363,248.7 837.626,258.513 						"/>
					</g>
				</g>
			</g>
		</g>
		<g id="D_-_BOTTOM_HEM_2_">
			<line fill="none" stroke="#66CCFF" stroke-width="5" stroke-miterlimit="10" x1="528.5" y1="1002" x2="528.5" y2="954"/>
			<line fill="none" stroke="#66CCFF" stroke-width="5" stroke-miterlimit="10" x1="975.5" y1="1002" x2="975.5" y2="954"/>
			<g>
				<g>
					<line fill="none" stroke="#66CCFF" stroke-width="5" stroke-miterlimit="10" x1="546" y1="984.5" x2="958" y2="984.5"/>
					<g>
						<polygon fill="#66CCFF" points="553.917,994.032 549.748,984.219 553.917,974.405 530.654,984.219 						"/>
					</g>
					<g>
						<polygon fill="#66CCFF" points="950.268,994.032 954.437,984.219 950.268,974.405 973.53,984.219 						"/>
					</g>
				</g>
			</g>
		</g>
		<g id="C_-_WAIST_WIDTH_2_">
			<g>
				<line fill="none" stroke="#66FF66" stroke-width="5" stroke-miterlimit="10" x1="549" y1="747.5" x2="955" y2="747.5"/>
				<g>
					<polygon fill="#66FF66" points="556.474,757.416 552.304,747.602 556.474,737.789 533.211,747.602 					"/>
				</g>
				<g>
					<polygon fill="#66FF66" points="947.202,757.416 951.371,747.602 947.202,737.789 970.465,747.602 					"/>
				</g>
			</g>
		</g>
		<g id="B_-_CHEST_WIDTH_2_">
			<g>
				<line fill="none" stroke="#FFCC66" stroke-width="5" stroke-miterlimit="10" x1="553" y1="550.5" x2="952" y2="550.5"/>
				<g>
					<polygon fill="#FFCC66" points="560.133,559.829 555.963,550.015 560.133,540.202 536.87,550.015 					"/>
				</g>
				<g>
					<polygon fill="#FFCC66" points="944.356,559.829 948.525,550.015 944.356,540.202 967.619,550.015 					"/>
				</g>
			</g>
		</g>
		<g id="A_-_FRONT_BODY_LENGTH_2_">
			<g>
				<line fill="none" stroke="#FF6666" stroke-width="5" stroke-miterlimit="10" x1="844.5" y1="315" x2="844.5" y2="930"/>
				<g>
					<polygon fill="#FF6666" points="834.316,322.634 844.13,318.465 853.943,322.634 844.13,299.372 					"/>
				</g>
				<g>
					<polygon fill="#FF6666" points="834.316,922.739 844.13,926.908 853.943,922.739 844.13,946.001 					"/>
				</g>
			</g>
		</g>
	</g>
	<g>
	</g>
	<g>
	</g>
	<g>
	</g>
	<g>
	</g>
	<g>
	</g>
	<g>
	</g>
	<g>
	</g>
	<g>
	</g>
	<g>
	</g>
	<g>
	</g>
	<g>
	</g>
	<g>
	</g>
	<g>
	</g>
	<g>
	</g>
	<g>
	</g>
	<g>
	</g>
</g>
</svg>
