<?xml version="1.0" encoding="utf-8"?>
<!-- Generator: Adobe Illustrator 16.0.0, SVG Export Plug-In . SVG Version: 6.00 Build 0)  -->
<!DOCTYPE svg PUBLIC "-//W3C//DTD SVG 1.1//EN" "http://www.w3.org/Graphics/SVG/1.1/DTD/svg11.dtd">
<svg version="1.1" xmlns="http://www.w3.org/2000/svg" xmlns:xlink="http://www.w3.org/1999/xlink" x="0px" y="0px" width="1500px"
	 height="2000px" viewBox="0 0 1500 2000" enable-background="new 0 0 1500 2000" xml:space="preserve">
<g id="BACKGROUND">
	<rect y="1" fill="#FFFFFF" width="1500" height="2000"/>
</g>
<g id="BACK">
	<g id="BACK_x5F_DRAWING_1_">
		<g id="COLLAR_x5F_BACK_x5F_BOTTOM_7_">
			<g>
				<path fill="none" stroke="#000000" stroke-width="4.05" stroke-miterlimit="10" d="M837.575,1248.601
					c-1.777,2.83-4.26,5.467-7.289,7.904"/>
				<path fill="none" stroke="#000000" stroke-width="4.05" stroke-miterlimit="10" stroke-dasharray="19.5919,11.0204" d="
					M821.064,1262.517c-19.386,10.446-48.92,15.863-68.562,15.863c-23.94,0-54.867-6.159-73.354-18.578"/>
				<path fill="none" stroke="#000000" stroke-width="4.05" stroke-miterlimit="10" d="M674.73,1256.51
					c-2.93-2.432-5.401-5.068-7.3-7.909"/>
			</g>
		</g>
		<g id="BOTTOM_HEM_2_">
			<g>
				<path fill="none" stroke="#000000" stroke-width="4.05" stroke-miterlimit="10" d="M975.308,1875.688
					c-1.312,0.104-3.127,0.208-5.388,0.31"/>
				<path fill="none" stroke="#000000" stroke-width="4.05" stroke-miterlimit="10" stroke-dasharray="10.9874,6.8671" d="
					M963.063,1876.261c-46.913,1.564-191.19,2.78-210.808,2.78c-20.121,0-171.395-1.279-214.229-2.901"/>
				<path fill="none" stroke="#000000" stroke-width="4.05" stroke-miterlimit="10" d="M534.591,1875.998
					c-2.261-0.102-4.076-0.205-5.388-0.31"/>
			</g>
		</g>
		<path id="SLEEVE_SEAM_x5F_LEFT_1_" fill="none" stroke="#000000" stroke-width="4.05" stroke-miterlimit="10" d="M547.581,1302.44
			c18.802,22.867,27.494,129.608-12.588,181.063"/>
		<path id="SLEEVE_SEAM_x5F_RIGHT_1_" fill="none" stroke="#000000" stroke-width="4.05" stroke-miterlimit="10" d="M958.07,1302.44
			c-18.803,22.867-27.494,129.608,12.588,181.063"/>
		<g id="SLEEVE_HEM_x5F_LEFT_1_">
			<g>
				<path fill="none" stroke="#000000" stroke-width="4.05" stroke-miterlimit="10" d="M496.09,1883.369
					c-1.51,0.652-3.201,1.291-5.047,1.913"/>
				<path fill="none" stroke="#000000" stroke-width="4.05" stroke-miterlimit="10" stroke-dasharray="11.3503,7.0939" d="
					M484.249,1887.316c-19.628,5.271-49.516,8.863-69.544,8.455"/>
				<path fill="none" stroke="#000000" stroke-width="4.05" stroke-miterlimit="10" d="M411.154,1895.651
					c-1.916-0.093-3.717-0.229-5.38-0.41"/>
			</g>
		</g>
		<g id="SLEEVE_HEM_x5F_RIGHT_1_">
			<g>
				<path fill="none" stroke="#000000" stroke-width="4.05" stroke-miterlimit="10" d="M1007.409,1881.998
					c1.506,0.671,3.188,1.332,5.021,1.979"/>
				<path fill="none" stroke="#000000" stroke-width="4.05" stroke-miterlimit="10" stroke-dasharray="11.5084,7.1928" d="
					M1019.289,1886.141c19.872,5.658,50.146,9.788,70.368,9.7"/>
				<path fill="none" stroke="#000000" stroke-width="4.05" stroke-miterlimit="10" d="M1093.254,1895.776
					c1.92-0.063,3.724-0.17,5.39-0.325"/>
			</g>
		</g>
		<path id="CONTOUR_2_" fill="none" stroke="#000000" stroke-width="6.75" stroke-miterlimit="10" d="M970.899,1488.703
			c4.676,69.795,6.114,388.77,3.981,411.333c-61.631,1.812-187.449,2.745-222.558,2.745c-33.742,0-158.686-0.934-222.521-2.745
			c-2.136-22.563-1.525-344.242,4.099-411.133c-26.776,45.288-38.639,88.944-45.99,125.595
			c-8.01,96.324,7.268,250.459,10.384,288.699c-23.569,13.084-60.02,17.979-86.568,13.084
			c-26.102-51.807-35.775-223.684-30.558-316.793c19.398-106.25,105.98-261.94,165.048-298.397
			c42.811-23.233,94.284-43.697,120.968-51.141c0,0,24.706-24.149,31.728-26.647c22.864,11.87,40.189,12.585,53.344,12.585
			c11.923,0,38.146-0.94,59.269-12.585c7.021,2.498,25.805,26.314,25.805,26.314c26.684,7.441,74.98,27.228,120.967,52.155
			c59.614,32.315,145.324,191.131,164.721,297.383c5.896,93.442-4.457,265.152-30.557,316.958
			c-26.551,4.896-63.001,0.085-86.57-12.999c3.116-38.24,18.567-192.967,10.521-288.658
			C1007.481,1577.848,996.781,1534.647,970.899,1488.703z"/>
	</g>
	<g id="BACK_x5F_ARROWS_1_">
		<g id="L_-_BACK_BODY_LENGTH_3_">
			<g>
				<line fill="none" stroke="#CC66CC" stroke-width="5" stroke-miterlimit="10" x1="667.5" y1="1269" x2="667.5" y2="1883"/>
				<g>
					<polygon fill="#CC66CC" points="658.052,1276.263 667.865,1272.094 677.679,1276.263 667.865,1253 					"/>
				</g>
				<g>
					<polygon fill="#CC66CC" points="658.052,1875.737 667.865,1879.906 677.679,1875.737 667.865,1899 					"/>
				</g>
			</g>
		</g>
		<g id="K_-_FULL_SHOULDER_WIDTH_3_">
			<g>
				<line fill="none" stroke="#6666CC" stroke-width="5" stroke-miterlimit="10" x1="566" y1="1303.5" x2="939" y2="1303.5"/>
				<g>
					<polygon fill="#6666CC" points="573.763,1313.039 569.593,1303.226 573.763,1293.412 550.5,1303.226 					"/>
				</g>
				<g>
					<polygon fill="#6666CC" points="931.237,1313.039 935.406,1303.226 931.237,1293.412 954.5,1303.226 					"/>
				</g>
			</g>
		</g>
	</g>
</g>
<g id="FRONT">
	<g id="FRONT_x5F_DRAWING_1_">
		<g id="FRONT_x5F_COLLAR">
			<g id="COLLAR_x5F_BOTTOM_x5F_RIGHT_1_">
				<g>
					<line fill="none" stroke="#000000" stroke-width="4" stroke-miterlimit="10" x1="736" y1="498" x2="752" y2="498"/>
					<path fill="none" stroke="#000000" stroke-width="4" stroke-miterlimit="10" d="M759,498c0,0,12,0,16,0c0-2,0-16,0-16"/>
					
						<line fill="none" stroke="#000000" stroke-width="4" stroke-miterlimit="10" stroke-dasharray="30,11" x1="775" y1="471" x2="775" y2="394"/>
					<line fill="none" stroke="#000000" stroke-width="4" stroke-miterlimit="10" x1="775" y1="388" x2="775" y2="372"/>
				</g>
			</g>
			<path id="COLLAR_x5F_BOTTOM_x5F_LEFT_2_" fill="none" stroke="#000000" stroke-width="4.05" stroke-miterlimit="10" d="
				M735.224,369.886c0.051,39.598,0,117.434,0,130.307"/>
			<g id="BOUTON_x5F_3_3_">
				<circle id="BOUTON_x5F_1_12_" cx="755.438" cy="450.309" r="8.795"/>
				<circle fill="#FFFFFF" cx="757.687" cy="452.558" r="1.384"/>
				<circle fill="#FFFFFF" cx="753.19" cy="452.558" r="1.384"/>
				<circle fill="#FFFFFF" cx="757.687" cy="448.061" r="1.384"/>
				<circle fill="#FFFFFF" cx="753.19" cy="448.061" r="1.384"/>
			</g>
			<g id="BOUTON_x5F_2_1_">
				<circle id="BOUTON_x5F_1_4_" cx="755.438" cy="403.083" r="8.795"/>
				<circle fill="#FFFFFF" cx="757.687" cy="405.332" r="1.384"/>
				<circle fill="#FFFFFF" cx="753.19" cy="405.332" r="1.384"/>
				<circle fill="#FFFFFF" cx="757.687" cy="400.833" r="1.384"/>
				<circle fill="#FFFFFF" cx="753.19" cy="400.833" r="1.384"/>
			</g>
			<g id="BOUTON_x5F_1_2_">
				<circle id="BOUTON_x5F_1_3_" cx="755.438" cy="355.855" r="8.795"/>
				<circle fill="#FFFFFF" cx="757.687" cy="358.103" r="1.384"/>
				<circle fill="#FFFFFF" cx="753.19" cy="358.103" r="1.384"/>
				<circle fill="#FFFFFF" cx="757.687" cy="353.608" r="1.384"/>
				<circle fill="#FFFFFF" cx="753.19" cy="353.608" r="1.384"/>
			</g>
			<g id="COLLAR_x5F_SEAM_1_">
				
					<path id="COLLAR_x5F_SEAM_x5F_4_1_" fill="none" stroke="#000000" stroke-width="4.05" stroke-miterlimit="10" stroke-dasharray="21.6,12.15" d="
					M818.513,348.408c12.064-11.885,17.974-26.934,20.614-48.125"/>
				
					<path id="COLLAR_x5F_SEAM_x5F_3_1_" fill="none" stroke="#000000" stroke-width="4.05" stroke-miterlimit="10" stroke-dasharray="32.4,12.15" d="
					M732.614,360.876c0,0-1.617,7.547,6.206,10.542c13.379,5.099,25.785,5.099,45.783-3.13"/>
				
					<path id="COLLAR_x5F_SEAM_x5F_2_1_" fill="none" stroke="#000000" stroke-width="4.05" stroke-miterlimit="10" stroke-dasharray="2.7,12.15" d="
					M726.771,368.423c2.777,0.817,5.6,1.519,8.453,2.096"/>
				
					<path id="COLLAR_x5F_SEAM_x5F_1_1_" fill="none" stroke="#000000" stroke-width="4.05" stroke-miterlimit="10" stroke-dasharray="21.6,12.15" d="
					M668.892,301.81c1.772,20.271,10.874,36.462,24.057,48.212"/>
			</g>
			<path id="COLLAR_x5F_RIGHT_1_" fill="none" stroke="#000000" stroke-width="4.05" stroke-miterlimit="10" d="M812.546,273.292
				c3.325,22.278-33.251,53.553-47.94,62.455c8.095,17.986,14.989,30.429,29.381,44.819c10.193-6.762,38.778-60.726,41.815-81.408"
				/>
			<path id="COLLAR_x5F_LEFT_1_" fill="none" stroke="#000000" stroke-width="4.05" stroke-miterlimit="10" d="M698.798,272.375
				c-4.347,31.591,33.844,55.275,47.219,63.373c-6.896,18.284-16.846,31.629-29.884,44.217
				c-10.438-7.196-39.888-62.922-46.295-81.484"/>
			<path id="COLLAR_x5F_TOP_x5F_CENTER_1_" fill="none" stroke="#000000" stroke-width="4.05" stroke-miterlimit="10" d="
				M764.605,335.972c-6.109,1.183-10.494,1.402-18.114,0.02"/>
			<g id="COLLAR_x5F_BOTTOM_x5F_BACK_2_">
				<g>
					<path fill="none" stroke="#000000" stroke-width="4.05" stroke-miterlimit="10" d="M718.833,316.103
						c3.725,0.92,7.209,1.729,10.528,2.421"/>
					<path fill="none" stroke="#000000" stroke-width="4.05" stroke-miterlimit="10" stroke-dasharray="23.4226,13.1752" d="
						M742.351,320.693c9.795,1.147,18.906,0.931,29.892-0.905"/>
					<path fill="none" stroke="#000000" stroke-width="4.05" stroke-miterlimit="10" d="M778.722,318.566
						c3.301-0.688,6.788-1.508,10.516-2.463"/>
				</g>
			</g>
		</g>
		<g id="FRONT_x5F_TORSO_1_">
			<g id="BOTTOM_HEM_1_">
				<g>
					<path fill="none" stroke="#000000" stroke-width="4.05" stroke-miterlimit="10" d="M975.194,924.76
						c-1.312,0.104-3.127,0.208-5.388,0.31"/>
					<path fill="none" stroke="#000000" stroke-width="4.05" stroke-miterlimit="10" stroke-dasharray="10.9874,6.8671" d="
						M962.949,925.333c-46.913,1.564-191.19,2.78-210.808,2.78c-20.121,0-171.395-1.279-214.229-2.901"/>
					<path fill="none" stroke="#000000" stroke-width="4.05" stroke-miterlimit="10" d="M534.478,925.07
						c-2.261-0.102-4.076-0.205-5.388-0.31"/>
				</g>
			</g>
			<path id="SLEEVE_SEAM_x5F_LEFT" fill="none" stroke="#000000" stroke-width="4.05" stroke-miterlimit="10" d="M547.468,351.512
				c18.802,22.867,27.494,129.608-12.588,181.063"/>
			<path id="SLEEVE_SEAM_x5F_RIGHT" fill="none" stroke="#000000" stroke-width="4.05" stroke-miterlimit="10" d="M957.957,351.512
				c-18.803,22.867-27.494,129.608,12.588,181.063"/>
			<g id="SLEEVE_HEM_x5F_LEFT">
				<g>
					<path fill="none" stroke="#000000" stroke-width="4.05" stroke-miterlimit="10" d="M495.977,932.441
						c-1.51,0.652-3.201,1.291-5.047,1.913"/>
					<path fill="none" stroke="#000000" stroke-width="4.05" stroke-miterlimit="10" stroke-dasharray="11.3503,7.0939" d="
						M484.135,936.389c-19.628,5.27-49.516,8.863-69.544,8.454"/>
					<path fill="none" stroke="#000000" stroke-width="4.05" stroke-miterlimit="10" d="M411.041,944.723
						c-1.916-0.092-3.717-0.228-5.38-0.41"/>
				</g>
			</g>
			<g id="SLEEVE_HEM_x5F_RIGHT">
				<g>
					<path fill="none" stroke="#000000" stroke-width="4.05" stroke-miterlimit="10" d="M1007.296,931.07
						c1.506,0.671,3.188,1.332,5.021,1.979"/>
					<path fill="none" stroke="#000000" stroke-width="4.05" stroke-miterlimit="10" stroke-dasharray="11.5084,7.1928" d="
						M1019.176,935.213c19.872,5.658,50.146,9.788,70.368,9.7"/>
					<path fill="none" stroke="#000000" stroke-width="4.05" stroke-miterlimit="10" d="M1093.141,944.848
						c1.92-0.062,3.724-0.17,5.39-0.325"/>
				</g>
			</g>
			<path id="CONTOUR" fill="none" stroke="#000000" stroke-width="6.75" stroke-miterlimit="10" d="M970.786,536.423
				c4.676,69.796,6.114,388.771,3.981,411.334c-61.631,1.812-187.449,2.745-222.558,2.745c-33.742,0-158.686-0.934-222.521-2.745
				c-2.136-22.563-1.526-344.241,4.099-411.133c-26.775,45.288-38.639,88.944-45.99,125.595c-8.01,96.325,7.268,250.46,10.385,288.7
				c-23.57,13.083-60.02,17.979-86.569,13.083c-26.101-51.806-35.775-223.684-30.558-316.792
				c19.398-106.252,105.98-261.941,165.049-298.397c42.809-23.233,94.282-43.698,120.967-51.141c0,0,24.705-24.149,31.728-26.648
				c22.864,11.871,40.189,12.585,53.344,12.585c11.923,0,38.146-0.939,59.269-12.585c7.021,2.499,25.805,26.314,25.805,26.314
				c26.684,7.442,74.98,27.229,120.967,52.156c59.614,32.315,145.324,191.13,164.721,297.382
				c5.896,93.442-4.457,265.152-30.557,316.959c-26.551,4.895-63.001,0.084-86.57-12.999c3.116-38.24,18.567-192.967,10.521-288.659
				C1007.368,625.569,996.668,582.37,970.786,536.423z"/>
		</g>
	</g>
	<g id="FRONT_x5F_ARROWS_1_">
		<g id="J_-_SLEEVE_BOTTOM_LENGTH_1_">
			
				<line fill="none" stroke="#66CCCC" stroke-width="5.3" stroke-miterlimit="10" x1="976.107" y1="533.32" x2="1027.019" y2="515.319"/>
			
				<line fill="none" stroke="#66CCCC" stroke-width="5.3" stroke-miterlimit="10" x1="1012.387" y1="948.405" x2="1066.337" y2="950.733"/>
			<g>
				<g>
					<path fill="none" stroke="#66CCCC" stroke-width="5.3" stroke-miterlimit="10" d="M1015.38,538.864
						c7.866,20.971,22.405,60.125,32.719,90.21c11.139,32.492,11.503,74.819,10.385,100.807
						c-2.853,66.343-8.088,163.882-10.148,201.703"/>
					<g>
						<polygon fill="#66CCCC" points="1008.768,549.289 1016.496,541.943 1027.147,542.406 1009.8,524.063 						"/>
					</g>
					<g>
						<polygon fill="#66CCCC" points="1038.845,923.649 1048.435,928.309 1058.446,924.642 1047.469,947.378 						"/>
					</g>
				</g>
			</g>
		</g>
		<g id="I_-_SLEEVE_TOP_LENGTH_1_">
			
				<line fill="none" stroke="#66CC66" stroke-width="5.3" stroke-miterlimit="10" x1="349.676" y1="972.792" x2="403.348" y2="966.846"/>
			
				<line fill="none" stroke="#66CC66" stroke-width="5.3" stroke-miterlimit="10" x1="541.989" y1="344.12" x2="513.053" y2="298.525"/>
			<g>
				<g>
					<path fill="none" stroke="#66CC66" stroke-width="5.3" stroke-miterlimit="10" d="M507.81,324.342
						c-0.454,0.391-1.806,1.347-8.375,5.538c-38.548,25.491-145.873,196.465-158.565,318.64
						c-8.232,78.976,17.579,243.888,23.428,290.26c0.558,4.426,1.132,9.292,1.645,13.774"/>
					<g>
						<polygon fill="#66CC66" points="496.231,320.281 505.103,326.194 507.007,336.685 521.062,315.711 						"/>
					</g>
					<g>
						<polygon fill="#66CC66" points="355.28,946.289 365.505,949.313 374.779,944.053 367.68,968.282 						"/>
					</g>
				</g>
			</g>
		</g>
		<g id="H_-_SLEEVE_HEM_LENGTH_1_">
			
				<line fill="none" stroke="#CCCC66" stroke-width="5.3" stroke-miterlimit="10" x1="418.696" y1="1023.51" x2="410.578" y2="970.126"/>
			
				<line fill="none" stroke="#CCCC66" stroke-width="5.3" stroke-miterlimit="10" x1="508.146" y1="1010.01" x2="500.028" y2="956.626"/>
			<g>
				<g>
					
						<line fill="none" stroke="#CCCC66" stroke-width="5.3" stroke-miterlimit="10" x1="433.832" y1="1001.169" x2="486.97" y2="992.494"/>
					<g>
						<polygon fill="#CCCC66" points="442.758,1009.655 437.063,1000.642 439.596,990.285 418.219,1003.718 						"/>
					</g>
					<g>
						<polygon fill="#CCCC66" points="481.206,1003.378 483.739,993.021 478.044,984.008 502.583,989.945 						"/>
					</g>
				</g>
			</g>
		</g>
		<g id="G_-_ARMHOLE_LENGTH_1_">
			
				<line fill="none" stroke="#CC6666" stroke-width="5.3" stroke-miterlimit="10" x1="553.484" y1="352.025" x2="602.212" y2="354.423"/>
			
				<line fill="none" stroke="#CC6666" stroke-width="5.3" stroke-miterlimit="10" x1="541.365" y1="533.553" x2="590.094" y2="535.951"/>
			<g>
				<g>
					
						<line fill="none" stroke="#CC6666" stroke-width="5.3" stroke-miterlimit="10" x1="583.297" y1="371.666" x2="574.253" y2="516.786"/>
					<g>
						<polygon fill="#CC6666" points="573.04,378.484 583.094,374.934 592.628,379.705 584.281,355.877 						"/>
					</g>
					<g>
						<polygon fill="#CC6666" points="564.922,508.747 574.457,513.518 584.51,509.968 573.269,532.575 						"/>
					</g>
				</g>
			</g>
		</g>
		<g id="F_-_SIDE_SHOULDER_LENGTH_1_">
			
				<line fill="none" stroke="#FF66CC" stroke-width="5.3" stroke-miterlimit="10" x1="961.914" y1="344.803" x2="980.793" y2="302.335"/>
			
				<line fill="none" stroke="#FF66CC" stroke-width="5.3" stroke-miterlimit="10" x1="839.704" y1="289.573" x2="858.583" y2="247.106"/>
			<g>
				<g>
					
						<line fill="none" stroke="#FF66CC" stroke-width="5.3" stroke-miterlimit="10" x1="867.93" y1="270.922" x2="957.074" y2="310.593"/>
					<g>
						<polygon fill="#FF66CC" points="870.74,282.914 870.921,272.253 878.72,264.983 853.477,264.491 						"/>
					</g>
					<g>
						<polygon fill="#FF66CC" points="946.284,316.532 954.083,309.262 954.264,298.601 971.527,317.024 						"/>
					</g>
				</g>
			</g>
		</g>
		<g id="E_-_NECK_WIDTH_1_">
			<line fill="none" stroke="#9966FF" stroke-width="5" stroke-miterlimit="10" x1="838.5" y1="289" x2="838.5" y2="241"/>
			<line fill="none" stroke="#9966FF" stroke-width="5" stroke-miterlimit="10" x1="667.5" y1="289" x2="667.5" y2="241"/>
			<g>
				<g>
					<line fill="none" stroke="#9966FF" stroke-width="5" stroke-miterlimit="10" x1="686" y1="258.5" x2="820" y2="258.5"/>
					<g>
						<polygon fill="#9966FF" points="693.101,268.327 688.931,258.513 693.101,248.7 669.838,258.513 						"/>
					</g>
					<g>
						<polygon fill="#9966FF" points="812.831,268.327 817,258.513 812.831,248.7 836.094,258.513 						"/>
					</g>
				</g>
			</g>
		</g>
		<g id="D_-_BOTTOM_HEM_2_">
			<line fill="none" stroke="#66CCFF" stroke-width="5" stroke-miterlimit="10" x1="528.5" y1="1002" x2="528.5" y2="954"/>
			<line fill="none" stroke="#66CCFF" stroke-width="5" stroke-miterlimit="10" x1="975.5" y1="1002" x2="975.5" y2="954"/>
			<g>
				<g>
					<line fill="none" stroke="#66CCFF" stroke-width="5" stroke-miterlimit="10" x1="547" y1="984.5" x2="957" y2="984.5"/>
					<g>
						<polygon fill="#66CCFF" points="554.138,994.032 549.968,984.219 554.138,974.405 530.875,984.219 						"/>
					</g>
					<g>
						<polygon fill="#66CCFF" points="949.925,994.032 954.094,984.219 949.925,974.405 973.188,984.219 						"/>
					</g>
				</g>
			</g>
		</g>
		<g id="C_-_WAIST_WIDTH_2_">
			<g>
				<line fill="none" stroke="#66FF66" stroke-width="5" stroke-miterlimit="10" x1="548" y1="747.5" x2="956" y2="747.5"/>
				<g>
					<polygon fill="#66FF66" points="555.325,757.416 551.156,747.602 555.325,737.789 532.063,747.602 					"/>
				</g>
				<g>
					<polygon fill="#66FF66" points="948.738,757.416 952.907,747.602 948.738,737.789 972.001,747.602 					"/>
				</g>
			</g>
		</g>
		<g id="B_-_CHEST_WIDTH_2_">
			<g>
				<line fill="none" stroke="#FFCC66" stroke-width="5" stroke-miterlimit="10" x1="552" y1="550.5" x2="953" y2="550.5"/>
				<g>
					<polygon fill="#FFCC66" points="559.45,559.829 555.281,550.015 559.45,540.202 536.188,550.015 					"/>
				</g>
				<g>
					<polygon fill="#FFCC66" points="945.071,559.829 949.24,550.015 945.071,540.202 968.334,550.015 					"/>
				</g>
			</g>
		</g>
		<g id="A_-_FRONT_BODY_LENGTH_2_">
			<g>
				<line fill="none" stroke="#FF6666" stroke-width="5" stroke-miterlimit="10" x1="844.5" y1="319" x2="844.5" y2="931"/>
				<g>
					<polygon fill="#FF6666" points="834.316,326.013 844.13,321.843 853.943,326.013 844.13,302.75 					"/>
				</g>
				<g>
					<polygon fill="#FF6666" points="834.316,923.487 844.13,927.657 853.943,923.487 844.13,946.75 					"/>
				</g>
			</g>
		</g>
	</g>
	<g>
	</g>
	<g>
	</g>
	<g>
	</g>
	<g>
	</g>
	<g>
	</g>
	<g>
	</g>
	<g>
	</g>
	<g>
	</g>
	<g>
	</g>
	<g>
	</g>
	<g>
	</g>
	<g>
	</g>
	<g>
	</g>
	<g>
	</g>
	<g>
	</g>
	<g>
	</g>
</g>
</svg>
