<?xml version="1.0" encoding="utf-8"?>
<!-- Generator: Adobe Illustrator 16.0.0, SVG Export Plug-In . SVG Version: 6.00 Build 0)  -->
<!DOCTYPE svg PUBLIC "-//W3C//DTD SVG 1.1//EN" "http://www.w3.org/Graphics/SVG/1.1/DTD/svg11.dtd">
<svg version="1.1" xmlns="http://www.w3.org/2000/svg" xmlns:xlink="http://www.w3.org/1999/xlink" x="0px" y="0px" width="1500px"
	 height="2000px" viewBox="0 0 1500 2000" enable-background="new 0 0 1500 2000" xml:space="preserve">
<g id="BACKGROUND">
	<rect y="1" fill="#FFFFFF" width="1500" height="2000"/>
</g>
<g id="BACK">
	<g id="BACK_x5F_ARROWS">
		<g id="L_-_BACK_BODY_LENGTH_1_">
			<g>
				<line fill="none" stroke="#CC66CC" stroke-width="3" stroke-miterlimit="10" x1="666.5" y1="1263" x2="666.5" y2="1888"/>
				<g>
					<path fill="#CC66CC" d="M666.029,1265.625l4.864,2.959l0.11-0.167l-3.15-7.931c-0.608-2.764-1.216-5.526-1.824-8.29
						c-0.608,2.764-1.215,5.526-1.824,8.29l-3.15,7.931l0.083,0.167L666.029,1265.625z"/>
				</g>
				<g>
					<path fill="#CC66CC" d="M666.029,1885.194l4.864-2.958l0.11,0.166l-3.15,7.931c-0.608,2.764-1.216,5.526-1.824,8.29
						c-0.608-2.764-1.215-5.526-1.824-8.29l-3.15-7.931l0.083-0.166L666.029,1885.194z"/>
				</g>
			</g>
		</g>
		<g id="K_-_FULL_SHOULDER_WIDTH_1_">
			<g>
				<line fill="none" stroke="#6666CC" stroke-width="3" stroke-miterlimit="10" x1="556" y1="1305.5" x2="947" y2="1305.5"/>
				<g>
					<path fill="#6666CC" d="M558.71,1305.862l2.958-4.864l-0.166-0.11l-7.931,3.15c-2.764,0.608-5.527,1.216-8.29,1.824
						c2.763,0.607,5.526,1.216,8.29,1.824l7.931,3.15l0.166-0.083L558.71,1305.862z"/>
				</g>
				<g>
					<path fill="#6666CC" d="M944.561,1305.862l-2.959-4.864l0.167-0.11l7.931,3.15c2.764,0.608,5.526,1.216,8.29,1.824
						c-2.764,0.607-5.526,1.216-8.29,1.824l-7.931,3.15l-0.167-0.083L944.561,1305.862z"/>
				</g>
			</g>
		</g>
	</g>
	<g id="BACK_x5F_DRAWING">
		<g id="BOTTOM_HEM_7_">
			<g>
				<path fill="none" stroke="#000000" stroke-width="4.05" stroke-miterlimit="10" d="M975.069,1876.976
					c-1.312,0.104-3.127,0.208-5.388,0.31"/>
				<path fill="none" stroke="#000000" stroke-width="4.05" stroke-miterlimit="10" stroke-dasharray="10.9873,6.8671" d="
					M962.824,1877.548c-46.913,1.563-191.19,2.78-210.808,2.78c-20.122,0-171.396-1.279-214.229-2.901"/>
				<path fill="none" stroke="#000000" stroke-width="4.05" stroke-miterlimit="10" d="M534.353,1877.285
					c-2.261-0.102-4.076-0.205-5.388-0.31"/>
			</g>
		</g>
		<g id="RIGHT_x5F_SLEEVE_HEM_7_">
			<g>
				<path fill="none" stroke="#000000" stroke-width="4.05" stroke-miterlimit="10" d="M1015.52,1498.949
					c0.812-1.027,1.907-2.49,3.239-4.317"/>
				<path fill="none" stroke="#000000" stroke-width="4.05" stroke-miterlimit="10" stroke-dasharray="11.3329,7.0831" d="
					M1022.889,1488.879c15.693-22.115,47.625-69.302,60.387-88.282"/>
				<path fill="none" stroke="#000000" stroke-width="4.05" stroke-miterlimit="10" d="M1085.25,1397.656
					c1.414-2.108,2.443-3.647,2.999-4.487"/>
			</g>
		</g>
		<g id="LEFT_x5F_SLEEVE_HEM_7_">
			<g>
				<path fill="none" stroke="#000000" stroke-width="4.05" stroke-miterlimit="10" d="M488.515,1498.949
					c-0.812-1.027-1.907-2.49-3.239-4.317"/>
				<path fill="none" stroke="#000000" stroke-width="4.05" stroke-miterlimit="10" stroke-dasharray="11.333,7.0831" d="
					M481.146,1488.879c-15.694-22.115-47.626-69.302-60.387-88.282"/>
				<path fill="none" stroke="#000000" stroke-width="4.05" stroke-miterlimit="10" d="M418.784,1397.656
					c-1.415-2.108-2.444-3.647-3-4.487"/>
			</g>
		</g>
		<path id="RIGHT_x5F_SLEEVE_SEAM_4_" fill="none" stroke="#000000" stroke-width="4.05" stroke-miterlimit="10" d="
			M962.106,1303.728c-18.803,22.867-43.197,135.078,8.537,183.762"/>
		<path id="LEFT_x5F_SLEEVE_SEAM_4_" fill="none" stroke="#000000" stroke-width="4.05" stroke-miterlimit="10" d="
			M541.928,1303.728c18.803,22.867,43.196,135.078-8.538,183.762"/>
		<g id="COLLAR_SEAM_x5F_BACK_2_">
			<g>
				<path fill="none" stroke="#000000" stroke-width="4.05" stroke-miterlimit="10" d="M837.089,1248.537
					c-1.777,2.83-4.26,5.467-7.289,7.904"/>
				<path fill="none" stroke="#000000" stroke-width="4.05" stroke-miterlimit="10" stroke-dasharray="19.5919,11.0204" d="
					M820.578,1262.453c-19.386,10.446-48.92,15.863-68.562,15.863c-23.94,0-54.867-6.158-73.354-18.578"/>
				<path fill="none" stroke="#000000" stroke-width="4.05" stroke-miterlimit="10" d="M674.244,1256.446
					c-2.93-2.432-5.401-5.068-7.3-7.909"/>
			</g>
		</g>
		<path id="COLLAR_x5F_BACK_x5F_BOTTOM_2_" fill="none" stroke="#000000" stroke-width="4.05" stroke-miterlimit="10" d="
			M666.944,1248.537c32.971,25.948,137.596,26.172,169.897,0"/>
		<path id="CONTOUR_2_" fill="none" stroke="#000000" stroke-width="6.75" stroke-miterlimit="10" d="M751.769,1901.367
			c19.516,0,194.54,0.573,222.592-2.744c2.135-22.564-3.556-393.009-3.965-411.334c16.492,5.455,46.096,12.901,63.729,14.635
			c10.368-10.672,58.849-83.242,67.387-97.879c-20.632-19.321-114.953-88.43-139.652-100.317
			c-31.406-20.639-98.333-47.747-125.017-55.19c0,0-18.783-24.149-25.805-26.648c-22.98,11.646-47.346,12.585-59.269,12.585
			c-13.154,0-29.863-1.032-53.344-12.585c-7.021,2.499-31.728,26.648-31.728,26.648c-26.684,7.443-93.611,34.552-125.018,55.19
			c-24.698,11.888-119.02,80.996-139.651,100.317c8.538,14.637,57.02,87.207,67.387,97.879c17.632-1.733,47.236-9.18,63.728-14.635
			c-0.407,18.325-6.099,388.77-3.963,411.334C556.927,1901.94,732.254,1901.367,751.769,1901.367z"/>
	</g>
</g>
<g id="FRONT">
	<g id="FRONT_x5F_DRAWING">
		<g id="FRONT_x5F_COLLAR_1_">
			<g id="COLLAR_x5F_BOTTOM_x5F_RIGHT_2_">
				<g>
					<line fill="none" stroke="#000000" stroke-width="4" stroke-miterlimit="10" x1="735" y1="497" x2="751" y2="497"/>
					<path fill="none" stroke="#000000" stroke-width="4" stroke-miterlimit="10" d="M759,497c0,0,12,0,16,0c0-3,0-17,0-17"/>
					
						<line fill="none" stroke="#000000" stroke-width="4" stroke-miterlimit="10" stroke-dasharray="30,11" x1="775" y1="469" x2="775" y2="392"/>
					<line fill="none" stroke="#000000" stroke-width="4" stroke-miterlimit="10" x1="775" y1="386" x2="775" y2="370"/>
				</g>
			</g>
			<path id="COLLAR_x5F_BOTTOM_x5F_LEFT_1_" fill="none" stroke="#000000" stroke-width="4.05" stroke-miterlimit="10" d="
				M734.851,368.401c0.051,39.597,0,117.433,0,130.307"/>
			<g id="BOUTON_x5F_3_1_">
				<circle id="BOUTON_x5F_1_7_" cx="755.065" cy="448.824" r="8.795"/>
				<circle fill="#FFFFFF" cx="757.314" cy="451.073" r="1.384"/>
				<circle fill="#FFFFFF" cx="752.817" cy="451.073" r="1.384"/>
				<circle fill="#FFFFFF" cx="757.314" cy="446.576" r="1.384"/>
				<circle fill="#FFFFFF" cx="752.817" cy="446.576" r="1.384"/>
			</g>
			<g id="BOUTON_x5F_2_2_">
				<circle id="BOUTON_x5F_1_6_" cx="755.065" cy="401.597" r="8.795"/>
				<circle fill="#FFFFFF" cx="757.314" cy="403.846" r="1.384"/>
				<circle fill="#FFFFFF" cx="752.817" cy="403.846" r="1.384"/>
				<circle fill="#FFFFFF" cx="757.314" cy="399.349" r="1.384"/>
				<circle fill="#FFFFFF" cx="752.817" cy="399.349" r="1.384"/>
			</g>
			<g id="BOUTON_x5F_1_1_">
				<circle id="BOUTON_x5F_1_5_" cx="755.065" cy="354.37" r="8.795"/>
				<circle fill="#FFFFFF" cx="757.314" cy="356.618" r="1.384"/>
				<circle fill="#FFFFFF" cx="752.817" cy="356.618" r="1.384"/>
				<circle fill="#FFFFFF" cx="757.314" cy="352.122" r="1.384"/>
				<circle fill="#FFFFFF" cx="752.817" cy="352.122" r="1.384"/>
			</g>
			<g id="COLLAR_x5F_SEAM_2_">
				
					<path id="COLLAR_x5F_SEAM_x5F_4_2_" fill="none" stroke="#000000" stroke-width="4.05" stroke-miterlimit="10" stroke-dasharray="21.6,12.15" d="
					M818.14,346.923c12.064-11.885,17.974-26.935,20.614-48.126"/>
				
					<path id="COLLAR_x5F_SEAM_x5F_3_2_" fill="none" stroke="#000000" stroke-width="4.05" stroke-miterlimit="10" stroke-dasharray="32.4,12.15" d="
					M732.241,359.392c0,0-1.617,7.546,6.207,10.542c13.378,5.098,25.784,5.098,45.782-3.13"/>
				
					<path id="COLLAR_x5F_SEAM_x5F_2_2_" fill="none" stroke="#000000" stroke-width="4.05" stroke-miterlimit="10" stroke-dasharray="2.7,12.15" d="
					M726.397,366.938c2.777,0.817,5.6,1.519,8.453,2.096"/>
				
					<path id="COLLAR_x5F_SEAM_x5F_1_2_" fill="none" stroke="#000000" stroke-width="4.05" stroke-miterlimit="10" stroke-dasharray="21.6,12.15" d="
					M668.519,300.325c1.772,20.271,10.874,36.461,24.057,48.212"/>
			</g>
			<path id="COLLAR_x5F_RIGHT_2_" fill="none" stroke="#000000" stroke-width="4.05" stroke-miterlimit="10" d="M812.173,271.808
				c3.325,22.277-33.251,53.552-47.94,62.455c8.095,17.986,14.989,30.429,29.381,44.818c10.193-6.761,38.778-60.726,41.815-81.407"
				/>
			<path id="COLLAR_x5F_LEFT_2_" fill="none" stroke="#000000" stroke-width="4.05" stroke-miterlimit="10" d="M698.425,270.889
				c-4.347,31.592,33.844,55.276,47.219,63.374c-6.896,18.284-16.846,31.629-29.884,44.217
				c-10.438-7.195-39.888-62.923-46.295-81.484"/>
			<path id="COLLAR_x5F_TOP_x5F_CENTER_2_" fill="none" stroke="#000000" stroke-width="4.05" stroke-miterlimit="10" d="
				M764.232,334.486c-6.109,1.183-10.494,1.403-18.115,0.02"/>
			<g id="COLLAR_x5F_BOTTOM_x5F_BACK_1_">
				<g>
					<path fill="none" stroke="#000000" stroke-width="4.05" stroke-miterlimit="10" d="M718.46,314.617
						c3.725,0.92,7.209,1.729,10.528,2.421"/>
					<path fill="none" stroke="#000000" stroke-width="4.05" stroke-miterlimit="10" stroke-dasharray="23.4227,13.1753" d="
						M741.978,319.208c9.795,1.147,18.906,0.931,29.892-0.905"/>
					<path fill="none" stroke="#000000" stroke-width="4.05" stroke-miterlimit="10" d="M778.349,317.081
						c3.301-0.688,6.788-1.508,10.516-2.463"/>
				</g>
			</g>
		</g>
		<g id="FRONT_x5F_TORSO">
			<g id="BOTTOM_HEM_2_">
				<g>
					<path fill="none" stroke="#000000" stroke-width="4.05" stroke-miterlimit="10" d="M974.821,925.975
						c-1.312,0.104-3.127,0.208-5.388,0.31"/>
					<path fill="none" stroke="#000000" stroke-width="4.05" stroke-miterlimit="10" stroke-dasharray="10.9874,6.8671" d="
						M962.576,926.547c-46.913,1.565-191.19,2.781-210.808,2.781c-20.121,0-171.396-1.28-214.229-2.902"/>
					<path fill="none" stroke="#000000" stroke-width="4.05" stroke-miterlimit="10" d="M534.104,926.284
						c-2.261-0.102-4.076-0.205-5.388-0.31"/>
				</g>
			</g>
			<g id="RIGHT_x5F_SLEEVE_HEM_1_">
				<g>
					<path fill="none" stroke="#000000" stroke-width="4.05" stroke-miterlimit="10" d="M1015.271,547.948
						c0.812-1.028,1.907-2.49,3.239-4.317"/>
					<path fill="none" stroke="#000000" stroke-width="4.05" stroke-miterlimit="10" stroke-dasharray="11.3329,7.083" d="
						M1022.641,537.878c15.693-22.115,47.626-69.302,60.387-88.282"/>
					<path fill="none" stroke="#000000" stroke-width="4.05" stroke-miterlimit="10" d="M1085.003,446.657
						c1.414-2.109,2.443-3.648,2.999-4.488"/>
				</g>
			</g>
			<g id="LEFT_x5F_SLEEVE_HEM_1_">
				<g>
					<path fill="none" stroke="#000000" stroke-width="4.05" stroke-miterlimit="10" d="M488.268,547.948
						c-0.812-1.028-1.907-2.49-3.24-4.317"/>
					<path fill="none" stroke="#000000" stroke-width="4.05" stroke-miterlimit="10" stroke-dasharray="11.3329,7.083" d="
						M480.898,537.878c-15.694-22.115-47.626-69.302-60.387-88.282"/>
					<path fill="none" stroke="#000000" stroke-width="4.05" stroke-miterlimit="10" d="M418.537,446.657
						c-1.415-2.109-2.444-3.648-3-4.488"/>
				</g>
			</g>
			<path id="RIGHT_x5F_SLEEVE_SEAM_1_" fill="none" stroke="#000000" stroke-width="4.05" stroke-miterlimit="10" d="
				M961.858,352.728c-18.803,22.866-43.196,135.077,8.537,183.762"/>
			<path id="LEFT_x5F_SLEEVE_SEAM_1_" fill="none" stroke="#000000" stroke-width="4.05" stroke-miterlimit="10" d="
				M541.681,352.728c18.803,22.866,43.196,135.077-8.538,183.762"/>
			<path id="CONTOUR_3_" fill="none" stroke="#000000" stroke-width="6.75" stroke-miterlimit="10" d="M751.769,950.367
				c19.516,0,194.54,0.573,222.592-2.745c2.135-22.563-3.556-393.009-3.965-411.334c16.492,5.456,46.096,12.903,63.729,14.636
				c10.368-10.672,58.849-83.242,67.387-97.878c-20.632-19.322-114.953-88.431-139.652-100.318
				c-31.406-20.639-98.333-47.748-125.017-55.19c0,0-18.783-24.149-25.805-26.648c-22.98,11.646-47.346,12.585-59.269,12.585
				c-13.154,0-29.863-1.032-53.344-12.585c-7.022,2.499-31.728,26.648-31.728,26.648c-26.685,7.442-93.61,34.552-125.017,55.19
				c-24.699,11.888-119.021,80.996-139.652,100.318c8.537,14.636,57.019,87.206,67.387,97.878
				c17.633-1.732,47.236-9.18,63.728-14.636c-0.407,18.325-6.099,388.771-3.963,411.334
				C556.927,950.94,732.255,950.367,751.769,950.367z"/>
		</g>
	</g>
	<g id="FRONT_x5F_ARROWS">
		<g id="J_-_SLEEVE_BOTTOM_LENGTH_1_">
			
				<line fill="none" stroke="#66CCCC" stroke-width="2.7" stroke-miterlimit="10" x1="981.081" y1="483.556" x2="970.078" y2="531.086"/>
			
				<line fill="none" stroke="#66CCCC" stroke-width="2.7" stroke-miterlimit="10" x1="1043.284" y1="498.192" x2="1032.281" y2="545.722"/>
			<g>
				<g>
					
						<line fill="none" stroke="#66CCCC" stroke-width="2.7" stroke-miterlimit="10" x1="988.147" y1="503.545" x2="1028.178" y2="512.95"/>
					<g>
						<path fill="#66CCCC" d="M990.507,504.099l3.992-4.059l-0.137-0.145l-8.441,1.252c-2.829-0.041-5.658-0.081-8.487-0.121
							c2.551,1.224,5.102,2.447,7.653,3.672l7,4.881l0.181-0.043L990.507,504.099z"/>
					</g>
					<g>
						<path fill="#66CCCC" d="M1025.818,512.396l-1.767-5.412l0.187-0.069l7,4.881c2.552,1.224,5.103,2.448,7.653,3.672
							c-2.829-0.041-5.658-0.081-8.487-0.121l-8.441,1.252l-0.143-0.119L1025.818,512.396z"/>
					</g>
				</g>
			</g>
		</g>
		<g id="I_-_SLEEVE_TOP_LENGTH_1_">
			
				<line fill="none" stroke="#66CC66" stroke-width="2.7" stroke-miterlimit="10" x1="511.309" y1="306.344" x2="538.681" y2="346.727"/>
			
				<line fill="none" stroke="#66CC66" stroke-width="2.7" stroke-miterlimit="10" x1="371.046" y1="407.576" x2="398.419" y2="447.959"/>
			<g>
				<g>
					
						<line fill="none" stroke="#66CC66" stroke-width="2.7" stroke-miterlimit="10" x1="390.266" y1="413.588" x2="510.754" y2="328"/>
					<g>
						<path fill="#66CC66" d="M392.242,412.185l-0.405-5.679l-0.199,0.006l-4.642,7.162c-1.901,2.096-3.802,4.191-5.702,6.288
							c2.604-1.105,5.209-2.209,7.814-3.314l8.291-2.025l0.087-0.164L392.242,412.185z"/>
					</g>
					<g>
						<path fill="#66CC66" d="M508.779,329.403l-5.229-2.252l0.071-0.186l8.291-2.025c2.604-1.105,5.209-2.209,7.814-3.314
							c-1.901,2.096-3.802,4.191-5.702,6.288l-4.642,7.162l-0.184,0.028L508.779,329.403z"/>
					</g>
				</g>
			</g>
		</g>
		<g id="H_-_SLEEVE_HEM_LENGTH_1_">
			
				<line fill="none" stroke="#CCCC66" stroke-width="2.7" stroke-miterlimit="10" x1="354.831" y1="484.37" x2="395.171" y2="456.932"/>
			
				<line fill="none" stroke="#CCCC66" stroke-width="2.7" stroke-miterlimit="10" x1="424.352" y1="583.163" x2="464.692" y2="555.725"/>
			<g>
				<g>
					
						<line fill="none" stroke="#CCCC66" stroke-width="2.7" stroke-miterlimit="10" x1="376.441" y1="484.771" x2="431.817" y2="563.329"/>
					<g>
						<path fill="#CCCC66" d="M377.837,486.751l5.68-0.384l-0.006-0.199l-7.144-4.668c-2.089-1.908-4.178-3.816-6.267-5.725
							c1.095,2.609,2.19,5.217,3.285,7.827l1.995,8.297l0.164,0.088L377.837,486.751z"/>
					</g>
					<g>
						<path fill="#CCCC66" d="M430.421,561.348l2.271-5.22l0.186,0.072l1.995,8.297c1.095,2.609,2.19,5.218,3.285,7.827
							c-2.089-1.908-4.178-3.817-6.267-5.725l-7.144-4.668l-0.028-0.184L430.421,561.348z"/>
					</g>
				</g>
			</g>
		</g>
		<g id="G_-_ARMHOLE_LENGTH_1_">
			
				<line fill="none" stroke="#CC6666" stroke-width="2.7" stroke-miterlimit="10" x1="549.952" y1="354.969" x2="598.718" y2="356.405"/>
			
				<line fill="none" stroke="#CC6666" stroke-width="2.7" stroke-miterlimit="10" x1="541.414" y1="536.7" x2="590.18" y2="538.137"/>
			<g>
				<g>
					
						<line fill="none" stroke="#CC6666" stroke-width="2.7" stroke-miterlimit="10" x1="580.356" y1="367.769" x2="573.739" y2="525.386"/>
					<g>
						<path fill="#CC6666" d="M580.254,370.189l4.736,3.16l0.117-0.161l-2.815-8.057c-0.491-2.786-0.982-5.573-1.475-8.359
							c-0.723,2.735-1.446,5.471-2.17,8.206l-3.48,7.792l0.076,0.169L580.254,370.189z"/>
					</g>
					<g>
						<path fill="#CC6666" d="M573.841,522.965l4.983-2.752l0.104,0.171l-3.48,7.792c-0.723,2.735-1.446,5.471-2.17,8.206
							c-0.491-2.786-0.982-5.573-1.475-8.359l-2.815-8.057l0.09-0.163L573.841,522.965z"/>
					</g>
				</g>
			</g>
		</g>
		<g id="F_-_SIDE_SHOULDER_LENGTH_1_">
			
				<line fill="none" stroke="#FF66CC" stroke-width="2.7" stroke-miterlimit="10" x1="964.021" y1="346.001" x2="983.284" y2="302.367"/>
			
				<line fill="none" stroke="#FF66CC" stroke-width="2.7" stroke-miterlimit="10" x1="839.331" y1="289.254" x2="858.594" y2="245.62"/>
			<g>
				<g>
					
						<line fill="none" stroke="#FF66CC" stroke-width="2.7" stroke-miterlimit="10" x1="862.06" y1="266.893" x2="965.195" y2="314.067"/>
					<g>
						<path fill="#FF66CC" d="M864.263,267.901l4.714-3.192l-0.105-0.169l-8.523-0.434c-2.766-0.597-5.531-1.193-8.297-1.79
							c2.26,1.702,4.521,3.404,6.78,5.107l5.902,6.164l0.186-0.006L864.263,267.901z"/>
					</g>
					<g>
						<path fill="#FF66CC" d="M962.992,313.059l-0.667-5.654l0.196-0.031l5.902,6.164c2.261,1.702,4.521,3.404,6.78,5.107
							c-2.766-0.597-5.531-1.193-8.298-1.79l-8.522-0.434l-0.116-0.145L962.992,313.059z"/>
					</g>
				</g>
			</g>
		</g>
		<g id="E_-_NECK_WIDTH_1_">
			<line fill="none" stroke="#9966FF" stroke-width="3" stroke-miterlimit="10" x1="837.5" y1="289" x2="837.5" y2="241"/>
			<line fill="none" stroke="#9966FF" stroke-width="3" stroke-miterlimit="10" x1="667.5" y1="289" x2="667.5" y2="241"/>
			<g>
				<g>
					<line fill="none" stroke="#9966FF" stroke-width="3" stroke-miterlimit="10" x1="680" y1="258.5" x2="825" y2="258.5"/>
					<g>
						<path fill="#9966FF" d="M682.869,258.378l2.958-4.864l-0.166-0.11l-7.931,3.15c-2.764,0.607-5.527,1.215-8.29,1.824
							c2.763,0.608,5.526,1.215,8.29,1.824l7.931,3.15l0.166-0.083L682.869,258.378z"/>
					</g>
					<g>
						<path fill="#9966FF" d="M823.039,258.378l-2.959-4.864l0.167-0.11l7.931,3.15c2.764,0.607,5.526,1.215,8.29,1.824
							c-2.764,0.608-5.526,1.215-8.29,1.824l-7.931,3.15l-0.167-0.083L823.039,258.378z"/>
					</g>
				</g>
			</g>
		</g>
		<g id="D_-_BOTTOM_HEM_1_">
			<line fill="none" stroke="#66CCFF" stroke-width="3" stroke-miterlimit="10" x1="527.5" y1="1003" x2="527.5" y2="955"/>
			<line fill="none" stroke="#66CCFF" stroke-width="3" stroke-miterlimit="10" x1="975.5" y1="1003" x2="975.5" y2="955"/>
			<g>
				<g>
					<line fill="none" stroke="#66CCFF" stroke-width="3" stroke-miterlimit="10" x1="540" y1="985.5" x2="963" y2="985.5"/>
					<g>
						<path fill="#66CCFF" d="M542.71,985.433l2.958-4.864l-0.166-0.11l-7.931,3.15c-2.764,0.607-5.527,1.215-8.29,1.824
							c2.763,0.608,5.526,1.215,8.29,1.824l7.931,3.15l0.166-0.083L542.71,985.433z"/>
					</g>
					<g>
						<path fill="#66CCFF" d="M960.729,985.433l-2.959-4.864l0.167-0.11l7.931,3.15c2.764,0.607,5.526,1.215,8.29,1.824
							c-2.764,0.608-5.526,1.215-8.29,1.824l-7.931,3.15l-0.167-0.083L960.729,985.433z"/>
					</g>
				</g>
			</g>
		</g>
		<g id="C_-_WAIST_WIDTH_1_">
			<g>
				<line fill="none" stroke="#66FF66" stroke-width="3" stroke-miterlimit="10" x1="544" y1="748.5" x2="959" y2="748.5"/>
				<g>
					<path fill="#66FF66" d="M546.267,748.816l2.958-4.864l-0.166-0.11l-7.931,3.15c-2.764,0.607-5.527,1.215-8.29,1.824
						c2.763,0.608,5.526,1.215,8.29,1.824l7.931,3.15l0.166-0.083L546.267,748.816z"/>
				</g>
				<g>
					<path fill="#66FF66" d="M956.663,748.816l-2.958-4.864l0.166-0.11l7.931,3.15c2.764,0.607,5.526,1.215,8.29,1.824
						c-2.764,0.608-5.526,1.215-8.29,1.824l-7.931,3.15l-0.166-0.083L956.663,748.816z"/>
				</g>
			</g>
		</g>
		<g id="B_-_CHEST_WIDTH_1_">
			<g>
				<line fill="none" stroke="#FFCC66" stroke-width="3" stroke-miterlimit="10" x1="548" y1="551.5" x2="956" y2="551.5"/>
				<g>
					<path fill="#FFCC66" d="M549.926,551.229l2.958-4.864l-0.166-0.11l-7.931,3.15c-2.764,0.607-5.527,1.215-8.29,1.824
						c2.763,0.608,5.526,1.215,8.29,1.824l7.931,3.15l0.166-0.083L549.926,551.229z"/>
				</g>
				<g>
					<path fill="#FFCC66" d="M953.817,551.229l-2.958-4.864l0.166-0.11l7.931,3.15c2.764,0.607,5.526,1.215,8.29,1.824
						c-2.764,0.608-5.526,1.215-8.29,1.824l-7.931,3.15l-0.166-0.083L953.817,551.229z"/>
				</g>
			</g>
		</g>
		<g id="A_-_FRONT_BODY_LENGTH_1_">
			<g>
				<line fill="none" stroke="#FF6666" stroke-width="3" stroke-miterlimit="10" x1="841.5" y1="313" x2="841.5" y2="937"/>
				<g>
					<path fill="#FF6666" d="M841.757,315.015l4.864,2.958l0.11-0.166l-3.15-7.931c-0.608-2.764-1.216-5.527-1.824-8.29
						c-0.607,2.763-1.216,5.526-1.824,8.29l-3.15,7.931l0.083,0.166L841.757,315.015z"/>
				</g>
				<g>
					<path fill="#FF6666" d="M841.757,934.788l4.864-2.958l0.11,0.166l-3.15,7.931c-0.608,2.764-1.216,5.527-1.824,8.29
						c-0.607-2.763-1.216-5.526-1.824-8.29l-3.15-7.931l0.083-0.166L841.757,934.788z"/>
				</g>
			</g>
		</g>
	</g>
	<g>
	</g>
	<g>
	</g>
	<g>
	</g>
	<g>
	</g>
	<g>
	</g>
	<g>
	</g>
	<g>
	</g>
	<g>
	</g>
	<g>
	</g>
	<g>
	</g>
	<g>
	</g>
	<g>
	</g>
	<g>
	</g>
	<g>
	</g>
	<g>
	</g>
	<g>
	</g>
</g>
</svg>
