<?xml version="1.0" encoding="utf-8"?>
<!-- Generator: Adobe Illustrator 16.0.0, SVG Export Plug-In . SVG Version: 6.00 Build 0)  -->
<!DOCTYPE svg PUBLIC "-//W3C//DTD SVG 1.1//EN" "http://www.w3.org/Graphics/SVG/1.1/DTD/svg11.dtd">
<svg version="1.1" xmlns="http://www.w3.org/2000/svg" xmlns:xlink="http://www.w3.org/1999/xlink" x="0px" y="0px" width="1500px"
	 height="2000px" viewBox="0 0 1500 2000" enable-background="new 0 0 1500 2000" xml:space="preserve">
<g id="BACKGROUND">
	<rect y="1" fill="#FFFFFF" width="1500" height="2000"/>
</g>
<g id="BACK">
	<g id="BACK_x5F_DRAWING_1_">
		<g id="BOTTOM_HEM_7_">
			<g>
				<path fill="none" stroke="#000000" stroke-width="4.05" stroke-miterlimit="10" d="M975.48,1875.909
					c-1.312,0.104-3.127,0.208-5.388,0.31"/>
				<path fill="none" stroke="#000000" stroke-width="4.05" stroke-miterlimit="10" stroke-dasharray="10.9873,6.8671" d="
					M963.235,1876.481c-46.913,1.563-191.19,2.78-210.808,2.78c-20.122,0-171.396-1.279-214.229-2.901"/>
				<path fill="none" stroke="#000000" stroke-width="4.05" stroke-miterlimit="10" d="M534.764,1876.219
					c-2.261-0.102-4.076-0.205-5.388-0.31"/>
			</g>
		</g>
		<g id="RIGHT_x5F_SLEEVE_HEM_7_">
			<g>
				<path fill="none" stroke="#000000" stroke-width="4.05" stroke-miterlimit="10" d="M1015.931,1497.883
					c0.812-1.027,1.907-2.49,3.239-4.317"/>
				<path fill="none" stroke="#000000" stroke-width="4.05" stroke-miterlimit="10" stroke-dasharray="11.3329,7.0831" d="
					M1023.3,1487.813c15.693-22.115,47.626-69.302,60.387-88.282"/>
				<path fill="none" stroke="#000000" stroke-width="4.05" stroke-miterlimit="10" d="M1085.661,1396.59
					c1.415-2.108,2.443-3.647,2.999-4.487"/>
			</g>
		</g>
		<g id="LEFT_x5F_SLEEVE_HEM_7_">
			<g>
				<path fill="none" stroke="#000000" stroke-width="4.05" stroke-miterlimit="10" d="M488.926,1497.883
					c-0.812-1.027-1.907-2.49-3.239-4.317"/>
				<path fill="none" stroke="#000000" stroke-width="4.05" stroke-miterlimit="10" stroke-dasharray="11.333,7.0831" d="
					M481.557,1487.813c-15.694-22.115-47.626-69.302-60.387-88.282"/>
				<path fill="none" stroke="#000000" stroke-width="4.05" stroke-miterlimit="10" d="M419.195,1396.59
					c-1.415-2.108-2.444-3.647-3-4.487"/>
			</g>
		</g>
		<path id="RIGHT_x5F_SLEEVE_SEAM_4_" fill="none" stroke="#000000" stroke-width="4.05" stroke-miterlimit="10" d="
			M962.518,1302.661c-18.803,22.867-43.197,135.078,8.537,183.762"/>
		<path id="LEFT_x5F_SLEEVE_SEAM_4_" fill="none" stroke="#000000" stroke-width="4.05" stroke-miterlimit="10" d="
			M542.339,1302.661c18.803,22.867,43.196,135.078-8.538,183.762"/>
		<g id="COLLAR_x5F_BACK_x5F_BOTTOM_7_">
			<g>
				<path fill="none" stroke="#000000" stroke-width="4.05" stroke-miterlimit="10" d="M837.5,1247.471
					c-1.777,2.83-4.26,5.467-7.289,7.904"/>
				<path fill="none" stroke="#000000" stroke-width="4.05" stroke-miterlimit="10" stroke-dasharray="19.5919,11.0204" d="
					M820.989,1261.387c-19.386,10.446-48.92,15.863-68.562,15.863c-23.94,0-54.867-6.158-73.354-18.578"/>
				<path fill="none" stroke="#000000" stroke-width="4.05" stroke-miterlimit="10" d="M674.655,1255.38
					c-2.93-2.432-5.401-5.068-7.3-7.909"/>
			</g>
		</g>
		<path id="CONTOUR_3_" fill="none" stroke="#000000" stroke-width="6.75" stroke-miterlimit="10" d="M752.428,1900.301
			c19.514,0,194.538,0.573,222.59-2.744c2.135-22.564-3.554-393.009-3.963-411.334c16.491,5.455,46.094,12.901,63.729,14.635
			c10.366-10.672,58.848-83.242,67.387-97.879c-20.633-19.321-114.954-88.43-139.652-100.317
			c-31.407-20.639-98.334-47.747-125.018-55.19c0,0-10.054-5.123-17.075-7.623c-21.853,16.16-49.396,19.21-67.997,19.21
			c-18.6,0-46.145-3.05-67.996-19.21c-7.021,2.5-17.076,7.623-17.076,7.623c-26.684,7.443-93.609,34.552-125.017,55.19
			c-24.698,11.888-119.021,80.996-139.652,100.317c8.538,14.637,57.019,87.207,67.387,97.879
			c17.633-1.733,47.236-9.18,63.728-14.635c-0.408,18.325-6.099,388.77-3.963,411.334
			C557.584,1900.874,732.913,1900.301,752.428,1900.301z"/>
	</g>
	<g id="BACK_x5F_ARROWS_1_">
		<g id="L_-_BACK_BODY_LENGTH_3_">
			<g>
				<line fill="none" stroke="#CC66CC" stroke-width="5" stroke-miterlimit="10" x1="666.5" y1="1267" x2="666.5" y2="1881"/>
				<g>
					<polygon fill="#CC66CC" points="656.627,1274.18 666.44,1270.011 676.254,1274.18 666.44,1250.917 					"/>
				</g>
				<g>
					<polygon fill="#CC66CC" points="656.627,1873.779 666.44,1877.948 676.254,1873.779 666.44,1897.042 					"/>
				</g>
			</g>
		</g>
		<g id="K_-_FULL_SHOULDER_WIDTH_3_">
			<g>
				<line fill="none" stroke="#6666CC" stroke-width="5" stroke-miterlimit="10" x1="562" y1="1304.5" x2="943" y2="1304.5"/>
				<g>
					<polygon fill="#6666CC" points="569.294,1314.609 565.125,1304.796 569.294,1294.982 546.031,1304.796 					"/>
				</g>
				<g>
					<polygon fill="#6666CC" points="935.654,1314.609 939.823,1304.796 935.654,1294.982 958.917,1304.796 					"/>
				</g>
			</g>
		</g>
	</g>
</g>
<g id="FRONT">
	<g id="FRONT_x5F_DRAWING_1_">
		<g id="BOTTOM_HEM_1_">
			<g>
				<path fill="none" stroke="#000000" stroke-width="4.05" stroke-miterlimit="10" d="M974.822,925.585
					c-1.312,0.104-3.127,0.208-5.388,0.31"/>
				<path fill="none" stroke="#000000" stroke-width="4.05" stroke-miterlimit="10" stroke-dasharray="10.9874,6.8671" d="
					M962.577,926.157c-46.913,1.565-191.19,2.781-210.808,2.781c-20.122,0-171.396-1.28-214.229-2.902"/>
				<path fill="none" stroke="#000000" stroke-width="4.05" stroke-miterlimit="10" d="M534.104,925.895
					c-2.261-0.102-4.076-0.205-5.388-0.31"/>
			</g>
		</g>
		<g id="RIGHT_x5F_SLEEVE_HEM_2_">
			<g>
				<path fill="none" stroke="#000000" stroke-width="4.05" stroke-miterlimit="10" d="M1015.272,547.559
					c0.812-1.028,1.907-2.49,3.239-4.317"/>
				<path fill="none" stroke="#000000" stroke-width="4.05" stroke-miterlimit="10" stroke-dasharray="11.3328,7.083" d="
					M1022.642,537.489c15.692-22.115,47.625-69.302,60.386-88.282"/>
				<path fill="none" stroke="#000000" stroke-width="4.05" stroke-miterlimit="10" d="M1085.003,446.267
					c1.414-2.109,2.443-3.648,2.999-4.488"/>
			</g>
		</g>
		<g id="LEFT_x5F_SLEEVE_HEM_2_">
			<g>
				<path fill="none" stroke="#000000" stroke-width="4.05" stroke-miterlimit="10" d="M488.268,547.559
					c-0.812-1.028-1.907-2.49-3.239-4.317"/>
				<path fill="none" stroke="#000000" stroke-width="4.05" stroke-miterlimit="10" stroke-dasharray="11.3328,7.083" d="
					M480.898,537.489c-15.693-22.115-47.625-69.302-60.386-88.282"/>
				<path fill="none" stroke="#000000" stroke-width="4.05" stroke-miterlimit="10" d="M418.538,446.267
					c-1.415-2.109-2.444-3.648-3-4.488"/>
			</g>
		</g>
		<path id="RIGHT_x5F_SLEEVE_SEAM_2_" fill="none" stroke="#000000" stroke-width="4.05" stroke-miterlimit="10" d="
			M961.858,352.338c-18.802,22.866-43.195,135.077,8.538,183.762"/>
		<path id="LEFT_x5F_SLEEVE_SEAM_2_" fill="none" stroke="#000000" stroke-width="4.05" stroke-miterlimit="10" d="M541.681,352.338
			c18.804,22.866,43.197,135.077-8.537,183.762"/>
		<g id="COLLAR_x5F_FRONT_x5F_BOTTOM_1_">
			<g>
				<path fill="none" stroke="#000000" stroke-width="4.05" stroke-miterlimit="10" d="M836.091,296.819
					c-0.233,2.226-0.639,4.935-1.259,7.995"/>
				<path fill="none" stroke="#000000" stroke-width="4.05" stroke-miterlimit="10" stroke-dasharray="16.3482,9.5364" d="
					M832.534,314.063c-7.673,26.151-28.908,64.498-80.765,64.498c-54.984,0-75.543-43.115-82.009-69.089"/>
				<path fill="none" stroke="#000000" stroke-width="4.05" stroke-miterlimit="10" d="M668.708,304.815
					c-0.621-3.061-1.025-5.77-1.259-7.996"/>
			</g>
		</g>
		<g id="COLLAR_x5F_BACK_x5F_BOTTOM_1_">
			<g>
				<path fill="none" stroke="#000000" stroke-width="4.05" stroke-miterlimit="10" d="M816.284,310.98
					c-2.872,1.524-6.218,2.979-9.88,4.339"/>
				<path fill="none" stroke="#000000" stroke-width="4.05" stroke-miterlimit="10" stroke-dasharray="21.2721,11.9655" d="
					M795.018,318.984c-14.692,4.109-31.467,6.722-43.248,6.722c-13.344,0-33.099-3.352-48.975-8.436"/>
				<path fill="none" stroke="#000000" stroke-width="4.05" stroke-miterlimit="10" d="M697.135,315.319
					c-3.662-1.36-7.007-2.815-9.88-4.339"/>
			</g>
		</g>
		<path id="COLLAR_x5F_FRONT_x5F_TOP_1_" fill="none" stroke="#000000" stroke-width="6.75" stroke-miterlimit="10" d="
			M820.292,290.079c-0.068,13.624-12.113,71.254-68.522,71.254s-68.454-57.63-68.521-71.254"/>
		<path id="CONTOUR_1_" fill="none" stroke="#000000" stroke-width="6.75" stroke-miterlimit="10" d="M751.77,949.978
			c19.515,0,194.539,0.573,222.591-2.745c2.135-22.563-3.556-393.009-3.964-411.334c16.491,5.456,46.095,12.903,63.729,14.636
			c10.367-10.672,58.849-83.242,67.386-97.878c-20.632-19.322-114.952-88.431-139.652-100.318
			c-31.405-20.639-98.332-47.748-125.016-55.19c0,0-10.054-5.124-17.075-7.623c-21.854,16.16-49.398,19.21-67.998,19.21
			c-18.601,0-46.144-3.05-67.996-19.21c-7.021,2.499-17.076,7.623-17.076,7.623c-26.684,7.442-93.61,34.552-125.017,55.19
			c-24.698,11.888-119.021,80.996-139.652,100.318c8.538,14.636,57.02,87.206,67.387,97.878c17.633-1.732,47.236-9.18,63.729-14.636
			c-0.408,18.325-6.099,388.771-3.964,411.334C556.927,950.551,732.255,949.978,751.77,949.978z"/>
	</g>
	<g id="FRONT_x5F_ARROWS_1_">
		<g id="J_-_SLEEVE_BOTTOM_LENGTH_3_">
			
				<line fill="none" stroke="#66CCCC" stroke-width="5.3" stroke-miterlimit="10" x1="981.082" y1="483.166" x2="970.079" y2="530.696"/>
			
				<line fill="none" stroke="#66CCCC" stroke-width="5.3" stroke-miterlimit="10" x1="1043.284" y1="497.803" x2="1032.281" y2="545.332"/>
			<g>
				<g>
					
						<line fill="none" stroke="#66CCCC" stroke-width="5.3" stroke-miterlimit="10" x1="994.971" y1="504.654" x2="1021.38" y2="511.068"/>
					<g>
						<polygon fill="#66CCCC" points="999.887,515.947 998.151,505.427 1004.52,496.875 979.598,500.921 						"/>
					</g>
					<g>
						<polygon fill="#66CCCC" points="1011.832,518.848 1018.199,510.296 1016.464,499.776 1036.753,514.802 						"/>
					</g>
				</g>
			</g>
		</g>
		<g id="I_-_SLEEVE_TOP_LENGTH_3_">
			
				<line fill="none" stroke="#66CC66" stroke-width="5.3" stroke-miterlimit="10" x1="511.309" y1="305.954" x2="538.681" y2="346.337"/>
			
				<line fill="none" stroke="#66CC66" stroke-width="5.3" stroke-miterlimit="10" x1="371.047" y1="407.187" x2="398.419" y2="447.569"/>
			<g>
				<g>
					
						<line fill="none" stroke="#66CC66" stroke-width="5.3" stroke-miterlimit="10" x1="394.836" y1="409.953" x2="506.238" y2="330.818"/>
					<g>
						<polygon fill="#66CC66" points="406.587,413.643 397.505,408.057 395.221,397.643 381.939,419.114 						"/>
					</g>
					<g>
						<polygon fill="#66CC66" points="505.854,343.128 503.569,332.713 494.487,327.128 519.135,321.656 						"/>
					</g>
				</g>
			</g>
		</g>
		<g id="H_-_SLEEVE_HEM_LENGTH_3_">
			
				<line fill="none" stroke="#CCCC66" stroke-width="5.3" stroke-miterlimit="10" x1="354.831" y1="483.98" x2="395.171" y2="456.542"/>
			
				<line fill="none" stroke="#CCCC66" stroke-width="5.3" stroke-miterlimit="10" x1="424.353" y1="582.773" x2="464.692" y2="555.335"/>
			<g>
				<g>
					
						<line fill="none" stroke="#CCCC66" stroke-width="5.3" stroke-miterlimit="10" x1="379.343" y1="489.215" x2="428.623" y2="557.685"/>
					<g>
						<polygon fill="#CCCC66" points="375.726,500.988 381.255,491.872 391.655,489.523 370.102,476.375 						"/>
					</g>
					<g>
						<polygon fill="#CCCC66" points="416.311,557.376 426.71,555.028 432.24,545.912 437.864,570.525 						"/>
					</g>
				</g>
			</g>
		</g>
		<g id="G_-_ARMHOLE_LENGTH_3_">
			
				<line fill="none" stroke="#CC6666" stroke-width="5.3" stroke-miterlimit="10" x1="549.952" y1="354.579" x2="598.718" y2="356.016"/>
			
				<line fill="none" stroke="#CC6666" stroke-width="5.3" stroke-miterlimit="10" x1="541.415" y1="536.311" x2="590.18" y2="537.747"/>
			<g>
				<g>
					
						<line fill="none" stroke="#CC6666" stroke-width="5.3" stroke-miterlimit="10" x1="580.144" y1="373.805" x2="573.951" y2="519.007"/>
					<g>
						<polygon fill="#CC6666" points="570.022,380.823 580.004,377.076 589.631,381.66 580.817,358 						"/>
					</g>
					<g>
						<polygon fill="#CC6666" points="564.464,511.153 574.091,515.736 584.073,511.989 573.277,534.813 						"/>
					</g>
				</g>
			</g>
		</g>
		<g id="F_-_SIDE_SHOULDER_LENGTH_3_">
			
				<line fill="none" stroke="#FF66CC" stroke-width="5.3" stroke-miterlimit="10" x1="964.637" y1="345.962" x2="984.284" y2="301.304"/>
			
				<line fill="none" stroke="#FF66CC" stroke-width="5.3" stroke-miterlimit="10" x1="837.455" y1="287.883" x2="857.103" y2="243.225"/>
			<g>
				<g>
					
						<line fill="none" stroke="#FF66CC" stroke-width="5.3" stroke-miterlimit="10" x1="866.165" y1="268.079" x2="960.297" y2="310.342"/>
					<g>
						<polygon fill="#FF66CC" points="868.936,280.08 869.151,269.42 876.975,262.175 851.733,261.6 						"/>
					</g>
					<g>
						<polygon fill="#FF66CC" points="949.487,316.246 957.311,309.001 957.526,298.341 974.729,316.821 						"/>
					</g>
				</g>
			</g>
		</g>
		<g id="E_-_NECK_WIDTH_2_">
			<line fill="none" stroke="#9966FF" stroke-width="5" stroke-miterlimit="10" x1="836.5" y1="288" x2="836.5" y2="240"/>
			<line fill="none" stroke="#9966FF" stroke-width="5" stroke-miterlimit="10" x1="666.5" y1="288" x2="666.5" y2="240"/>
			<g>
				<g>
					<line fill="none" stroke="#9966FF" stroke-width="5" stroke-miterlimit="10" x1="685" y1="257.5" x2="818" y2="257.5"/>
					<g>
						<polygon fill="#9966FF" points="692.096,267.151 687.927,257.338 692.096,247.524 668.833,257.338 						"/>
					</g>
					<g>
						<polygon fill="#9966FF" points="810.987,267.151 815.156,257.338 810.987,247.524 834.25,257.338 						"/>
					</g>
				</g>
			</g>
		</g>
		<g id="D_-_BOTTOM_HEM_2_">
			<line fill="none" stroke="#66CCFF" stroke-width="5" stroke-miterlimit="10" x1="528.5" y1="1003" x2="528.5" y2="954"/>
			<line fill="none" stroke="#66CCFF" stroke-width="5" stroke-miterlimit="10" x1="975.5" y1="1003" x2="975.5" y2="954"/>
			<g>
				<g>
					<line fill="none" stroke="#66CCFF" stroke-width="5" stroke-miterlimit="10" x1="547" y1="985.5" x2="957" y2="985.5"/>
					<g>
						<polygon fill="#66CCFF" points="554.075,994.856 549.906,985.043 554.075,975.229 530.813,985.043 						"/>
					</g>
					<g>
						<polygon fill="#66CCFF" points="950.029,994.856 954.198,985.043 950.029,975.229 973.292,985.043 						"/>
					</g>
				</g>
			</g>
		</g>
		<g id="C_-_WAIST_WIDTH_2_">
			<g>
				<line fill="none" stroke="#66FF66" stroke-width="5" stroke-miterlimit="10" x1="549" y1="748.5" x2="955" y2="748.5"/>
				<g>
					<polygon fill="#66FF66" points="556.638,758.24 552.468,748.427 556.638,738.613 533.375,748.427 					"/>
				</g>
				<g>
					<polygon fill="#66FF66" points="947.112,758.24 951.281,748.427 947.112,738.613 970.375,748.427 					"/>
				</g>
			</g>
		</g>
		<g id="B_-_CHEST_WIDTH_2_">
			<g>
				<line fill="none" stroke="#FFCC66" stroke-width="5" stroke-miterlimit="10" x1="552" y1="550.5" x2="952" y2="550.5"/>
				<g>
					<polygon fill="#FFCC66" points="559.325,560.653 555.156,550.84 559.325,541.026 536.063,550.84 					"/>
				</g>
				<g>
					<polygon fill="#FFCC66" points="944.237,560.653 948.406,550.84 944.237,541.026 967.5,550.84 					"/>
				</g>
			</g>
		</g>
		<g id="A_-_FRONT_BODY_LENGTH_2_">
			<g>
				<line fill="none" stroke="#FF6666" stroke-width="5" stroke-miterlimit="10" x1="839.5" y1="317" x2="839.5" y2="931"/>
				<g>
					<polygon fill="#FF6666" points="829.944,324.575 839.758,320.406 849.571,324.575 839.758,301.313 					"/>
				</g>
				<g>
					<polygon fill="#FF6666" points="829.944,923.564 839.758,927.734 849.571,923.564 839.758,946.827 					"/>
				</g>
			</g>
		</g>
	</g>
	<g>
	</g>
	<g>
	</g>
	<g>
	</g>
	<g>
	</g>
	<g>
	</g>
	<g>
	</g>
	<g>
	</g>
	<g>
	</g>
	<g>
	</g>
	<g>
	</g>
	<g>
	</g>
	<g>
	</g>
	<g>
	</g>
	<g>
	</g>
	<g>
	</g>
	<g>
	</g>
</g>
</svg>
