<?xml version="1.0" encoding="utf-8"?>
<!-- Generator: Adobe Illustrator 16.0.0, SVG Export Plug-In . SVG Version: 6.00 Build 0)  -->
<!DOCTYPE svg PUBLIC "-//W3C//DTD SVG 1.1//EN" "http://www.w3.org/Graphics/SVG/1.1/DTD/svg11.dtd">
<svg version="1.1" xmlns="http://www.w3.org/2000/svg" xmlns:xlink="http://www.w3.org/1999/xlink" x="0px" y="0px" width="1500px"
	 height="2000px" viewBox="0 0 1500 2000" enable-background="new 0 0 1500 2000" xml:space="preserve">
<g id="BACKGROUND">
	<rect y="1" fill="#FFFFFF" width="1500" height="2000"/>
</g>
<g id="BACK">
	<g id="BACK_x5F_DRAWING">
		<g id="SLEEVE_HEM_x5F_RIGHT_1_">
			<g>
				<path fill="none" stroke="#000000" stroke-width="4.05" stroke-miterlimit="10" d="M1011.459,1855.348
					c1.51,0.67,3.192,1.327,5.024,1.971"/>
				<path fill="none" stroke="#000000" stroke-width="4.05" stroke-miterlimit="10" stroke-dasharray="11.8509,7.4068" d="
					M1023.552,1859.528c20.436,5.741,51.692,9.807,72.517,9.535"/>
				<path fill="none" stroke="#000000" stroke-width="4.05" stroke-miterlimit="10" d="M1099.771,1868.964
					c1.916-0.08,3.719-0.203,5.387-0.373"/>
			</g>
		</g>
		<g id="SLEEVE_HEM_x5F_LEFT_1_">
			<g>
				<path fill="none" stroke="#000000" stroke-width="4.05" stroke-miterlimit="10" d="M492.726,1855.348
					c-1.51,0.67-3.193,1.327-5.024,1.971"/>
				<path fill="none" stroke="#000000" stroke-width="4.05" stroke-miterlimit="10" stroke-dasharray="11.8512,7.407" d="
					M480.633,1859.528c-20.437,5.741-51.694,9.808-72.519,9.535"/>
				<path fill="none" stroke="#000000" stroke-width="4.05" stroke-miterlimit="10" d="M404.411,1868.964
					c-1.916-0.08-3.718-0.203-5.386-0.373"/>
			</g>
		</g>
		<path id="SLEEVE_SEAM_x5F_RIGHT_1_" fill="none" stroke="#000000" stroke-width="4.05" stroke-miterlimit="10" d="M958.07,1302.79
			c-18.803,22.867-27.494,129.608,12.588,181.063"/>
		<path id="SLEEVE_SEAM_x5F_LEFT_1_" fill="none" stroke="#000000" stroke-width="4.05" stroke-miterlimit="10" d="M547.581,1302.79
			c18.802,22.867,27.494,129.608-12.588,181.063"/>
		<g id="COLLAR_SEAM_x5F_BACK">
			<g>
				<path fill="none" stroke="#000000" stroke-width="4.05" stroke-miterlimit="10" d="M837.575,1248.95
					c-1.777,2.83-4.26,5.467-7.289,7.904"/>
				<path fill="none" stroke="#000000" stroke-width="4.05" stroke-miterlimit="10" stroke-dasharray="19.5919,11.0204" d="
					M821.064,1262.866c-19.386,10.446-48.92,15.863-68.562,15.863c-23.94,0-54.867-6.159-73.354-18.578"/>
				<path fill="none" stroke="#000000" stroke-width="4.05" stroke-miterlimit="10" d="M674.73,1256.859
					c-2.93-2.432-5.401-5.068-7.3-7.909"/>
			</g>
		</g>
		<path id="COLLAR_x5F_BACK_x5F_BOTTOM" fill="none" stroke="#000000" stroke-width="4.05" stroke-miterlimit="10" d="
			M667.431,1248.95c32.971,25.948,137.596,26.172,169.897,0"/>
		<path id="CONTOUR_1_" fill="none" stroke="#000000" stroke-width="6.75" stroke-miterlimit="10" d="M970.899,1487.702
			c4.676,69.795,6.114,388.77,3.981,411.334c-59.988,16.244-187.449,16.244-222.558,16.244c-33.742,0-160.575,0-222.521-16.244
			c-2.136-22.564-1.525-344.242,4.099-411.134c-26.776,45.289-38.639,88.944-45.99,125.595c-8.01,96.325,7.268,250.46,10.384,288.7
			c-23.569,13.083-60.02,17.979-86.568,13.083c-26.102-51.806-35.775-223.684-30.558-316.792
			c19.398-106.251,105.98-261.941,165.048-298.397c42.811-23.233,94.284-43.697,120.968-51.141c0,0,24.706-24.149,31.728-26.648
			c23.48,11.553,40.189,12.585,53.344,12.585c11.923,0,36.288-0.939,59.269-12.585c7.021,2.499,25.805,26.314,25.805,26.314
			c26.684,7.442,74.98,27.229,120.967,52.156c59.614,32.315,145.324,191.13,164.721,297.382
			c5.896,93.442-4.457,265.152-30.557,316.959c-26.551,4.895-63.001,0.084-86.57-12.999c3.116-38.24,18.567-192.967,10.521-288.659
			C1007.481,1576.847,996.781,1533.647,970.899,1487.702z"/>
		<g id="SLEEVE_BUTTONS_x5F_LEFT">
			<g id="BOUTON_x5F_2_x5F_BACK_x5F_LEFT">
				<circle id="BOUTON_x5F_1_8_" cx="442.351" cy="1818.737" r="8.795"/>
				<circle fill="#FFFFFF" cx="444.6" cy="1820.986" r="1.384"/>
				<circle fill="#FFFFFF" cx="440.104" cy="1820.986" r="1.384"/>
				<circle fill="#FFFFFF" cx="444.6" cy="1816.489" r="1.384"/>
				<circle fill="#FFFFFF" cx="440.104" cy="1816.489" r="1.384"/>
			</g>
			<g id="BOUTON_x5F_1_x5F_BACK_x5F_LEFT">
				<circle id="BOUTON_x5F_1_9_" cx="450.452" cy="1888.938" r="8.795"/>
				<circle fill="#FFFFFF" cx="452.7" cy="1891.187" r="1.384"/>
				<circle fill="#FFFFFF" cx="448.204" cy="1891.187" r="1.383"/>
				<circle fill="#FFFFFF" cx="452.7" cy="1886.689" r="1.384"/>
				<circle fill="#FFFFFF" cx="448.204" cy="1886.689" r="1.383"/>
			</g>
			<path fill="none" stroke="#000000" stroke-width="4.05" stroke-miterlimit="10" d="M465.961,1913.427
				c-3.61-28.779-13.922-113.953-18.736-142.854"/>
			<g>
				<g>
					<path fill="none" stroke="#000000" stroke-width="4.05" stroke-miterlimit="10" d="M436.362,1865.747
						c-0.16-1.603-0.431-3.89-0.786-6.703"/>
					<path fill="none" stroke="#000000" stroke-width="4.05" stroke-miterlimit="10" stroke-dasharray="12.8367,6.4184" d="
						M434.751,1852.681c-3.081-23.293-9.186-65.689-10.202-78.479c0-11.497-7.876-34.678,6.075-36.704
						c10.365-1.505,13.445,12.078,15.129,23.222"/>
					<path fill="none" stroke="#000000" stroke-width="4.05" stroke-miterlimit="10" d="M446.214,1763.9
						c0.357,2.554,0.666,4.861,1.011,6.672l-6.649,1.161"/>
					
						<line fill="none" stroke="#000000" stroke-width="4.05" stroke-miterlimit="10" x1="433.225" y1="1773.017" x2="426.575" y2="1774.178"/>
				</g>
			</g>
		</g>
		<g id="SLEEVE_BUTTONS_x5F_RIGHT">
			<g id="BOUTON_x5F_2_x5F_BACK_x5F_LEFT_1_">
				<circle id="BOUTON_x5F_1_11_" cx="1061.5" cy="1818.737" r="8.795"/>
				<circle fill="#FFFFFF" cx="1059.25" cy="1820.986" r="1.384"/>
				<circle fill="#FFFFFF" cx="1063.747" cy="1820.986" r="1.384"/>
				<circle fill="#FFFFFF" cx="1059.25" cy="1816.489" r="1.384"/>
				<circle fill="#FFFFFF" cx="1063.747" cy="1816.489" r="1.384"/>
			</g>
			<g id="BOUTON_x5F_1_x5F_BACK_x5F_LEFT_1_">
				<circle id="BOUTON_x5F_1_10_" cx="1053.399" cy="1888.938" r="8.795"/>
				<circle fill="#FFFFFF" cx="1051.151" cy="1891.187" r="1.384"/>
				<circle fill="#FFFFFF" cx="1055.647" cy="1891.187" r="1.383"/>
				<circle fill="#FFFFFF" cx="1051.151" cy="1886.689" r="1.384"/>
				<circle fill="#FFFFFF" cx="1055.647" cy="1886.689" r="1.383"/>
			</g>
			<path fill="none" stroke="#000000" stroke-width="4.05" stroke-miterlimit="10" d="M1037.89,1913.427
				c3.61-28.779,13.922-113.953,18.736-142.854"/>
			<g>
				<g>
					<path fill="none" stroke="#000000" stroke-width="4.05" stroke-miterlimit="10" d="M1067.487,1865.747
						c0.16-1.603,0.431-3.89,0.786-6.703"/>
					<path fill="none" stroke="#000000" stroke-width="4.05" stroke-miterlimit="10" stroke-dasharray="12.8367,6.4184" d="
						M1069.099,1852.681c3.082-23.293,9.187-65.689,10.201-78.479c0-11.497,7.876-34.678-6.074-36.704
						c-10.365-1.505-13.445,12.078-15.13,23.222"/>
					<path fill="none" stroke="#000000" stroke-width="4.05" stroke-miterlimit="10" d="M1057.637,1763.9
						c-0.357,2.554-0.666,4.861-1.011,6.672l6.649,1.161"/>
					
						<line fill="none" stroke="#000000" stroke-width="4.05" stroke-miterlimit="10" x1="1070.626" y1="1773.017" x2="1077.275" y2="1774.178"/>
				</g>
			</g>
		</g>
	</g>
	<g id="BACK_x5F_ARROWS">
		<g id="L_-_BACK_BODY_LENGTH_3_">
			<g>
				<line fill="none" stroke="#CC66CC" stroke-width="5" stroke-miterlimit="10" x1="667.5" y1="1268" x2="667.5" y2="1895"/>
				<g>
					<polygon fill="#CC66CC" points="658.052,1275.513 667.865,1271.344 677.679,1275.513 667.865,1252.25 					"/>
				</g>
				<g>
					<polygon fill="#CC66CC" points="658.052,1887.737 667.865,1891.906 677.679,1887.737 667.865,1911 					"/>
				</g>
			</g>
		</g>
		<g id="K_-_FULL_SHOULDER_WIDTH_3_">
			<g>
				<line fill="none" stroke="#6666CC" stroke-width="5" stroke-miterlimit="10" x1="565" y1="1302.5" x2="939" y2="1302.5"/>
				<g>
					<polygon fill="#6666CC" points="572.456,1312.038 568.287,1302.225 572.456,1292.411 549.193,1302.225 					"/>
				</g>
				<g>
					<polygon fill="#6666CC" points="931.237,1312.038 935.406,1302.225 931.237,1292.411 954.5,1302.225 					"/>
				</g>
			</g>
		</g>
	</g>
</g>
<g id="FRONT">
	<g id="FRONT_x5F_COLLAR">
		<g id="COLLAR_x5F_BOTTOM_x5F_RIGHT_3_">
			<g>
				<line fill="none" stroke="#000000" stroke-width="4" stroke-miterlimit="10" x1="736" y1="963" x2="752" y2="963"/>
				<path fill="none" stroke="#000000" stroke-width="4" stroke-miterlimit="10" d="M759,963c0,0,12,0,17,0c0-4,0-16,0-16"/>
				
					<line fill="none" stroke="#000000" stroke-width="4" stroke-miterlimit="10" stroke-dasharray="33,12" x1="776" y1="934" x2="776" y2="392"/>
				<line fill="none" stroke="#000000" stroke-width="4" stroke-miterlimit="10" x1="776" y1="385" x2="776" y2="369"/>
			</g>
		</g>
		<path id="COLLAR_x5F_BOTTOM_x5F_LEFT_3_" fill="none" stroke="#000000" stroke-width="4.05" stroke-miterlimit="10" d="
			M735.403,367.258c0.05,180.947,0,536.636,0,595.466"/>
		<g id="BOUTON_x5F_7_1_">
			<path id="BOUTON_x5F_1_23_" d="M764.412,868.88c0,4.857-3.937,8.797-8.793,8.797c-4.86,0-8.798-3.939-8.798-8.797
				c0-4.859,3.938-8.796,8.798-8.796C760.476,860.084,764.412,864.021,764.412,868.88z"/>
			<circle fill="#FFFFFF" cx="757.865" cy="871.13" r="1.384"/>
			<circle fill="#FFFFFF" cx="753.369" cy="871.13" r="1.384"/>
			<circle fill="#FFFFFF" cx="757.865" cy="866.633" r="1.384"/>
			<circle fill="#FFFFFF" cx="753.369" cy="866.633" r="1.384"/>
		</g>
		<g id="BOUTON_x5F_6_1_">
			<path id="BOUTON_x5F_1_22_" d="M764.412,775.73c0,4.856-3.937,8.796-8.793,8.796c-4.86,0-8.798-3.939-8.798-8.796
				c0-4.859,3.938-8.796,8.798-8.796C760.476,766.935,764.412,770.871,764.412,775.73z"/>
			<circle fill="#FFFFFF" cx="757.865" cy="777.979" r="1.384"/>
			<circle fill="#FFFFFF" cx="753.369" cy="777.979" r="1.384"/>
			<circle fill="#FFFFFF" cx="757.865" cy="773.482" r="1.384"/>
			<circle fill="#FFFFFF" cx="753.369" cy="773.482" r="1.384"/>
		</g>
		<g id="BOUTON_x5F_5_1_">
			<path id="BOUTON_x5F_1_21_" d="M764.412,682.58c0,4.857-3.937,8.796-8.793,8.796c-4.86,0-8.798-3.938-8.798-8.796
				c0-4.859,3.938-8.796,8.798-8.796C760.476,673.784,764.412,677.721,764.412,682.58z"/>
			<circle fill="#FFFFFF" cx="757.865" cy="684.829" r="1.384"/>
			<circle fill="#FFFFFF" cx="753.369" cy="684.829" r="1.384"/>
			<circle fill="#FFFFFF" cx="757.865" cy="680.333" r="1.384"/>
			<circle fill="#FFFFFF" cx="753.369" cy="680.333" r="1.384"/>
		</g>
		<g id="BOUTON_x5F_4_1_">
			<path id="BOUTON_x5F_1_20_" d="M764.412,589.431c0,4.857-3.937,8.796-8.793,8.796c-4.86,0-8.798-3.938-8.798-8.796
				c0-4.859,3.938-8.797,8.798-8.797C760.476,580.634,764.412,584.571,764.412,589.431z"/>
			<circle fill="#FFFFFF" cx="757.865" cy="591.68" r="1.384"/>
			<circle fill="#FFFFFF" cx="753.369" cy="591.68" r="1.384"/>
			<circle fill="#FFFFFF" cx="757.865" cy="587.183" r="1.384"/>
			<circle fill="#FFFFFF" cx="753.369" cy="587.183" r="1.384"/>
		</g>
		<g id="BOUTON_x5F_3_1_">
			<path id="BOUTON_x5F_1_19_" d="M764.412,496.28c0,4.857-3.937,8.796-8.793,8.796c-4.86,0-8.798-3.938-8.798-8.796
				c0-4.858,3.938-8.796,8.798-8.796C760.476,487.484,764.412,491.422,764.412,496.28z"/>
			<circle fill="#FFFFFF" cx="757.865" cy="498.529" r="1.384"/>
			<circle fill="#FFFFFF" cx="753.369" cy="498.529" r="1.384"/>
			<circle fill="#FFFFFF" cx="757.865" cy="494.032" r="1.384"/>
			<circle fill="#FFFFFF" cx="753.369" cy="494.032" r="1.384"/>
		</g>
		<g id="BOUTON_x5F_2_3_">
			<path id="BOUTON_x5F_1_18_" d="M764.412,403.153c0,4.857-3.937,8.796-8.793,8.796c-4.86,0-8.798-3.938-8.798-8.796
				c0-4.858,3.938-8.796,8.798-8.796C760.476,394.357,764.412,398.295,764.412,403.153z"/>
			<circle fill="#FFFFFF" cx="757.865" cy="405.402" r="1.384"/>
			<circle fill="#FFFFFF" cx="753.369" cy="405.402" r="1.384"/>
			<circle fill="#FFFFFF" cx="757.865" cy="400.905" r="1.384"/>
			<circle fill="#FFFFFF" cx="753.369" cy="400.905" r="1.384"/>
		</g>
		<g id="BOUTON_x5F_1_16_">
			<path id="BOUTON_x5F_1_17_" d="M764.412,353.227c0,4.857-3.937,8.796-8.793,8.796c-4.86,0-8.798-3.938-8.798-8.796
				c0-4.858,3.938-8.796,8.798-8.796C760.476,344.431,764.412,348.368,764.412,353.227z"/>
			<circle fill="#FFFFFF" cx="757.865" cy="355.475" r="1.384"/>
			<circle fill="#FFFFFF" cx="753.369" cy="355.475" r="1.384"/>
			<circle fill="#FFFFFF" cx="757.865" cy="350.979" r="1.384"/>
			<circle fill="#FFFFFF" cx="753.369" cy="350.979" r="1.384"/>
		</g>
		<g id="COLLAR_x5F_SEAM_3_">
			
				<path id="COLLAR_x5F_SEAM_x5F_4_3_" fill="none" stroke="#000000" stroke-width="4.05" stroke-miterlimit="10" stroke-dasharray="21.6,12.15" d="
				M818.691,345.779c12.064-11.885,17.974-26.935,20.614-48.126"/>
			
				<path id="COLLAR_x5F_SEAM_x5F_3_3_" fill="none" stroke="#000000" stroke-width="4.05" stroke-miterlimit="10" stroke-dasharray="32.4,12.15" d="
				M732.793,358.248c0,0-1.616,7.546,6.206,10.542c13.379,5.098,25.785,5.098,45.783-3.13"/>
			
				<path id="COLLAR_x5F_SEAM_x5F_2_3_" fill="none" stroke="#000000" stroke-width="4.05" stroke-miterlimit="10" stroke-dasharray="2.7,12.15" d="
				M726.949,365.794c2.777,0.817,5.6,1.519,8.454,2.096"/>
			
				<path id="COLLAR_x5F_SEAM_x5F_1_3_" fill="none" stroke="#000000" stroke-width="4.05" stroke-miterlimit="10" stroke-dasharray="21.6,12.15" d="
				M669.07,299.182c1.772,20.271,10.874,36.461,24.057,48.212"/>
		</g>
		<path id="COLLAR_x5F_RIGHT_3_" fill="none" stroke="#000000" stroke-width="4.05" stroke-miterlimit="10" d="M812.725,270.664
			c3.325,22.277-33.251,53.552-47.94,62.455c8.095,17.986,14.989,30.429,29.381,44.818c10.193-6.761,38.778-60.726,41.815-81.407"/>
		<path id="COLLAR_x5F_LEFT_3_" fill="none" stroke="#000000" stroke-width="4.05" stroke-miterlimit="10" d="M698.977,269.745
			c-4.347,31.592,33.844,55.276,47.219,63.374c-6.896,18.284-16.847,31.629-29.884,44.217
			c-10.438-7.195-39.888-62.923-46.295-81.484"/>
		<path id="COLLAR_x5F_TOP_x5F_CENTER_3_" fill="none" stroke="#000000" stroke-width="4.05" stroke-miterlimit="10" d="
			M764.784,333.343c-6.109,1.183-10.494,1.403-18.114,0.02"/>
		<g id="COLLAR_x5F_BOTTOM_x5F_BACK_3_">
			<g>
				<path fill="none" stroke="#000000" stroke-width="4.05" stroke-miterlimit="10" d="M719.012,313.474
					c3.725,0.92,7.209,1.729,10.528,2.421"/>
				<path fill="none" stroke="#000000" stroke-width="4.05" stroke-miterlimit="10" stroke-dasharray="23.4227,13.1753" d="
					M742.53,318.064c9.795,1.147,18.906,0.931,29.892-0.905"/>
				<path fill="none" stroke="#000000" stroke-width="4.05" stroke-miterlimit="10" d="M778.9,315.937
					c3.301-0.688,6.788-1.508,10.516-2.463"/>
			</g>
		</g>
	</g>
	<g id="FRONT_x5F_DRAWING">
		<path id="SLEEVE_SEAM_x5F_LEFT" fill="none" stroke="#000000" stroke-width="4.05" stroke-miterlimit="10" d="M547.646,350.233
			c18.802,22.867,27.494,129.608-12.588,181.063"/>
		<path id="SLEEVE_SEAM_x5F_RIGHT" fill="none" stroke="#000000" stroke-width="4.05" stroke-miterlimit="10" d="M958.136,350.233
			c-18.803,22.867-27.494,129.608,12.588,181.063"/>
		<g id="SLEEVE_HEM_x5F_LEFT">
			<g>
				<path fill="none" stroke="#000000" stroke-width="4.05" stroke-miterlimit="10" d="M492.791,902.791
					c-1.51,0.669-3.193,1.328-5.024,1.971"/>
				<path fill="none" stroke="#000000" stroke-width="4.05" stroke-miterlimit="10" stroke-dasharray="11.8512,7.407" d="
					M480.698,906.971c-20.437,5.742-51.694,9.808-72.519,9.536"/>
				<path fill="none" stroke="#000000" stroke-width="4.05" stroke-miterlimit="10" d="M404.476,916.408
					c-1.916-0.08-3.718-0.204-5.386-0.374"/>
			</g>
		</g>
		<g id="SLEEVE_HEM_x5F_RIGHT">
			<g>
				<path fill="none" stroke="#000000" stroke-width="4.05" stroke-miterlimit="10" d="M1011.524,902.791
					c1.51,0.67,3.192,1.328,5.024,1.971"/>
				<path fill="none" stroke="#000000" stroke-width="4.05" stroke-miterlimit="10" stroke-dasharray="11.8509,7.4068" d="
					M1023.617,906.972c20.436,5.741,51.693,9.807,72.517,9.535"/>
				<path fill="none" stroke="#000000" stroke-width="4.05" stroke-miterlimit="10" d="M1099.838,916.408
					c1.915-0.08,3.718-0.204,5.386-0.374"/>
			</g>
		</g>
		<path id="CONTOUR" fill="none" stroke="#000000" stroke-width="6.75" stroke-miterlimit="10" d="M970.965,535.145
			c4.676,69.796,6.114,388.771,3.981,411.334c-59.988,16.245-187.449,16.245-222.558,16.245c-33.742,0-160.575,0-222.521-16.245
			c-2.136-22.563-1.526-344.241,4.099-411.133c-26.775,45.288-38.639,88.944-45.99,125.595c-8.01,96.325,7.268,250.46,10.385,288.7
			c-23.57,13.083-60.02,17.979-86.569,13.083c-26.101-51.806-35.775-223.684-30.558-316.792
			c19.398-106.252,105.98-261.941,165.049-298.397c42.809-23.233,94.282-43.698,120.967-51.141c0,0,24.705-24.149,31.728-26.648
			c23.48,11.553,40.189,12.585,53.344,12.585c11.923,0,36.288-0.939,59.269-12.585c7.021,2.499,25.805,26.314,25.805,26.314
			c26.684,7.442,74.98,27.229,120.967,52.156c59.614,32.315,145.324,191.13,164.721,297.382
			c5.896,93.442-4.457,265.152-30.557,316.959c-26.551,4.895-63.001,0.084-86.57-12.999c3.116-38.24,18.567-192.967,10.521-288.659
			C1007.547,624.29,996.847,581.091,970.965,535.145z"/>
	</g>
	<g id="FRONT_x5F_ARROWS">
		<g id="J_-_SLEEVE_BOTTOM_LENGTH">
			
				<line fill="none" stroke="#66CCCC" stroke-width="5.3" stroke-miterlimit="10" x1="977.636" y1="532.041" x2="1028.547" y2="514.04"/>
			
				<line fill="none" stroke="#66CCCC" stroke-width="5.3" stroke-miterlimit="10" x1="1013.916" y1="947.126" x2="1067.865" y2="949.454"/>
			<g>
				<g>
					<path fill="none" stroke="#66CCCC" stroke-width="5.3" stroke-miterlimit="10" d="M1016.713,537.414
						c7.929,21.006,22.594,60.273,32.914,90.381c11.14,32.492,11.503,74.819,10.385,100.807
						c-2.852,66.345-8.055,163.905-10.103,201.731"/>
					<g>
						<polygon fill="#66CCCC" points="1010.12,547.854 1017.833,540.492 1028.486,540.934 1011.101,522.625 						"/>
					</g>
					<g>
						<polygon fill="#66CCCC" points="1040.419,922.401 1050.01,927.059 1060.021,923.389 1049.049,946.128 						"/>
					</g>
				</g>
			</g>
		</g>
		<g id="I_-_SLEEVE_TOP_LENGTH">
			
				<line fill="none" stroke="#66CC66" stroke-width="5.3" stroke-miterlimit="10" x1="351.205" y1="971.514" x2="404.877" y2="965.567"/>
			
				<line fill="none" stroke="#66CC66" stroke-width="5.3" stroke-miterlimit="10" x1="543.519" y1="342.841" x2="514.582" y2="297.246"/>
			<g>
				<g>
					<path fill="none" stroke="#66CC66" stroke-width="5.3" stroke-miterlimit="10" d="M509.358,323.255
						c-0.536,0.33-2.034,1.287-8.396,5.346c-38.547,25.491-145.872,196.465-158.565,318.64
						c-8.231,78.976,17.58,243.888,23.429,290.26c0.564,4.47,1.146,9.413,1.666,13.961"/>
					<g>
						<polygon fill="#66CC66" points="497.865,318.87 506.586,325.004 508.225,335.539 522.802,314.925 						"/>
					</g>
					<g>
						<polygon fill="#66CC66" points="356.83,945.195 367.054,948.221 376.329,942.961 369.228,967.19 						"/>
					</g>
				</g>
			</g>
		</g>
		<g id="H_-_SLEEVE_HEM_LENGTH">
			
				<line fill="none" stroke="#CCCC66" stroke-width="5.3" stroke-miterlimit="10" x1="419.225" y1="1022.231" x2="411.107" y2="968.848"/>
			
				<line fill="none" stroke="#CCCC66" stroke-width="5.3" stroke-miterlimit="10" x1="509.675" y1="1008.731" x2="501.557" y2="955.348"/>
			<g>
				<g>
					
						<line fill="none" stroke="#CCCC66" stroke-width="5.3" stroke-miterlimit="10" x1="434.068" y1="999.819" x2="488.682" y2="991.298"/>
					<g>
						<polygon fill="#CCCC66" points="442.935,1008.368 437.303,999.314 439.909,988.976 418.438,1002.258 						"/>
					</g>
					<g>
						<polygon fill="#CCCC66" points="482.841,1002.142 485.447,991.803 479.815,982.75 504.313,988.86 						"/>
					</g>
				</g>
			</g>
		</g>
		<g id="G_-_ARMHOLE_LENGTH">
			
				<line fill="none" stroke="#CC6666" stroke-width="5.3" stroke-miterlimit="10" x1="555.014" y1="350.746" x2="603.741" y2="353.145"/>
			
				<line fill="none" stroke="#CC6666" stroke-width="5.3" stroke-miterlimit="10" x1="542.895" y1="532.274" x2="591.622" y2="534.672"/>
			<g>
				<g>
					
						<line fill="none" stroke="#CC6666" stroke-width="5.3" stroke-miterlimit="10" x1="584.779" y1="370.54" x2="575.812" y2="515.773"/>
					<g>
						<polygon fill="#CC6666" points="574.525,377.364 584.577,373.807 594.115,378.573 585.754,354.75 						"/>
					</g>
					<g>
						<polygon fill="#CC6666" points="566.476,507.739 576.013,512.505 586.064,508.949 574.836,531.563 						"/>
					</g>
				</g>
			</g>
		</g>
		<g id="F_-_SIDE_SHOULDER_LENGTH_5_">
			
				<line fill="none" stroke="#FF66CC" stroke-width="5.3" stroke-miterlimit="10" x1="960.742" y1="342.175" x2="979.621" y2="299.707"/>
			
				<line fill="none" stroke="#FF66CC" stroke-width="5.3" stroke-miterlimit="10" x1="838.533" y1="286.944" x2="857.412" y2="244.477"/>
			<g>
				<g>
					
						<line fill="none" stroke="#FF66CC" stroke-width="5.3" stroke-miterlimit="10" x1="866.839" y1="267.92" x2="955.974" y2="308.405"/>
					<g>
						<polygon fill="#FF66CC" points="869.558,279.933 869.82,269.274 877.674,262.063 852.436,261.378 						"/>
					</g>
					<g>
						<polygon fill="#FF66CC" points="945.139,314.262 952.992,307.051 953.255,296.392 970.377,314.947 						"/>
					</g>
				</g>
			</g>
		</g>
		<g id="E_-_NECK_WIDTH_2_">
			<line fill="none" stroke="#9966FF" stroke-width="5" stroke-miterlimit="10" x1="838.5" y1="288" x2="838.5" y2="240"/>
			<line fill="none" stroke="#9966FF" stroke-width="5" stroke-miterlimit="10" x1="668.5" y1="288" x2="668.5" y2="240"/>
			<g>
				<g>
					<line fill="none" stroke="#9966FF" stroke-width="5" stroke-miterlimit="10" x1="687" y1="257.5" x2="820" y2="257.5"/>
					<g>
						<polygon fill="#9966FF" points="694.013,267.048 689.843,257.234 694.013,247.421 670.75,257.234 						"/>
					</g>
					<g>
						<polygon fill="#9966FF" points="813.05,267.048 817.219,257.234 813.05,247.421 836.313,257.234 						"/>
					</g>
				</g>
			</g>
		</g>
		<g id="D_-_BOTTOM_HEM_2_">
			<line fill="none" stroke="#66CCFF" stroke-width="5" stroke-miterlimit="10" x1="527.5" y1="1002" x2="527.5" y2="954"/>
			<line fill="none" stroke="#66CCFF" stroke-width="5" stroke-miterlimit="10" x1="976.5" y1="1002" x2="976.5" y2="954"/>
			<g>
				<g>
					<line fill="none" stroke="#66CCFF" stroke-width="5" stroke-miterlimit="10" x1="546" y1="984.5" x2="958" y2="984.5"/>
					<g>
						<polygon fill="#66CCFF" points="553.096,994.103 548.926,984.289 553.096,974.476 529.833,984.289 						"/>
					</g>
					<g>
						<polygon fill="#66CCFF" points="950.925,994.103 955.094,984.289 950.925,974.476 974.188,984.289 						"/>
					</g>
				</g>
			</g>
		</g>
		<g id="C_-_WAIST_WIDTH_2_">
			<g>
				<line fill="none" stroke="#66FF66" stroke-width="5" stroke-miterlimit="10" x1="548" y1="747.5" x2="956" y2="747.5"/>
				<g>
					<polygon fill="#66FF66" points="555.45,757.486 551.281,747.673 555.45,737.859 532.188,747.673 					"/>
				</g>
				<g>
					<polygon fill="#66FF66" points="948.862,757.486 953.031,747.673 948.862,737.859 972.125,747.673 					"/>
				</g>
			</g>
		</g>
		<g id="B_-_CHEST_WIDTH_2_">
			<g>
				<line fill="none" stroke="#FFCC66" stroke-width="5" stroke-miterlimit="10" x1="552" y1="550.5" x2="953" y2="550.5"/>
				<g>
					<polygon fill="#FFCC66" points="559.45,559.899 555.281,550.086 559.45,540.272 536.188,550.086 					"/>
				</g>
				<g>
					<polygon fill="#FFCC66" points="945.425,559.899 949.594,550.086 945.425,540.272 968.688,550.086 					"/>
				</g>
			</g>
		</g>
		<g id="A_-_FRONT_BODY_LENGTH_2_">
			<g>
				<line fill="none" stroke="#FF6666" stroke-width="5" stroke-miterlimit="10" x1="843.5" y1="317" x2="843.5" y2="942"/>
				<g>
					<polygon fill="#FF6666" points="833.495,324.138 843.309,319.968 853.122,324.138 843.309,300.875 					"/>
				</g>
				<g>
					<polygon fill="#FF6666" points="833.495,934.862 843.309,939.032 853.122,934.862 843.309,958.125 					"/>
				</g>
			</g>
		</g>
	</g>
	<g>
	</g>
	<g>
	</g>
	<g>
	</g>
	<g>
	</g>
	<g>
	</g>
	<g>
	</g>
	<g>
	</g>
	<g>
	</g>
	<g>
	</g>
	<g>
	</g>
	<g>
	</g>
	<g>
	</g>
	<g>
	</g>
	<g>
	</g>
	<g>
	</g>
	<g>
	</g>
</g>
</svg>
