<?xml version="1.0" encoding="utf-8"?>
<!-- Generator: Adobe Illustrator 16.0.0, SVG Export Plug-In . SVG Version: 6.00 Build 0)  -->
<!DOCTYPE svg PUBLIC "-//W3C//DTD SVG 1.1//EN" "http://www.w3.org/Graphics/SVG/1.1/DTD/svg11.dtd">
<svg version="1.1" xmlns="http://www.w3.org/2000/svg" xmlns:xlink="http://www.w3.org/1999/xlink" x="0px" y="0px" width="1500px"
	 height="850px" viewBox="0 0 1500 850" enable-background="new 0 0 1500 850" xml:space="preserve">
<g id="BACKGROUND">
	<rect x="0.5" y="1.5" fill="#FFFFFF" stroke="#000000" stroke-miterlimit="10" width="1500" height="850"/>
</g>
<g id="DELIMITOR">
	
		<line id="DELIMITOR_1_" fill="none" stroke="#000000" stroke-width="5" stroke-miterlimit="10" x1="750.5" y1="34" x2="750.5" y2="814"/>
</g>
<g id="BACK">
	<g id="COLLAR_x5F_BACK_x5F_BOTTOM_7_">
		<g>
			<path fill="none" stroke="#000000" stroke-width="3" stroke-miterlimit="10" d="M1165.444,204.114
				c-1.316,2.097-3.155,4.049-5.399,5.855"/>
			<path fill="none" stroke="#000000" stroke-width="3" stroke-miterlimit="10" stroke-dasharray="14.5113,8.1626" d="
				M1153.219,214.419c-14.36,7.739-36.24,11.752-50.791,11.752c-17.731,0-40.637-4.561-54.331-13.758"/>
			<path fill="none" stroke="#000000" stroke-width="3" stroke-miterlimit="10" d="M1044.818,209.973
				c-2.17-1.802-4.001-3.754-5.407-5.859"/>
		</g>
	</g>
	<g id="BOTTOM_HEM_2_">
		<g>
			<path fill="none" stroke="#000000" stroke-width="3" stroke-miterlimit="10" d="M1267.469,668.623
				c-0.972,0.077-2.316,0.153-3.991,0.229"/>
			<path fill="none" stroke="#000000" stroke-width="3" stroke-miterlimit="10" stroke-dasharray="8.1388,5.0867" d="
				M1258.398,669.047c-34.751,1.159-141.623,2.06-156.154,2.06c-14.904,0-126.959-0.947-158.688-2.149"/>
			<path fill="none" stroke="#000000" stroke-width="3" stroke-miterlimit="10" d="M941.012,668.853
				c-1.675-0.076-3.02-0.152-3.991-0.229"/>
		</g>
	</g>
	<path id="SLEEVE_SEAM_x5F_LEFT_1_" fill="none" stroke="#000000" stroke-width="3" stroke-miterlimit="10" d="M950.634,243.995
		c13.928,16.938,20.366,96.006-9.324,134.12"/>
	<path id="SLEEVE_SEAM_x5F_RIGHT_1_" fill="none" stroke="#000000" stroke-width="3" stroke-miterlimit="10" d="M1254.7,243.995
		c-13.928,16.938-20.366,96.006,9.324,134.12"/>
	<g id="SLEEVE_HEM_x5F_LEFT_1_">
		<g>
			<path fill="none" stroke="#000000" stroke-width="3" stroke-miterlimit="10" d="M912.492,674.313
				c-1.118,0.483-2.371,0.956-3.738,1.417"/>
			<path fill="none" stroke="#000000" stroke-width="3" stroke-miterlimit="10" stroke-dasharray="8.4076,5.2548" d="
				M903.721,677.236c-14.539,3.904-36.678,6.565-51.514,6.263"/>
			<path fill="none" stroke="#000000" stroke-width="3" stroke-miterlimit="10" d="M849.577,683.41
				c-1.42-0.068-2.753-0.169-3.985-0.304"/>
		</g>
	</g>
	<g id="SLEEVE_HEM_x5F_RIGHT_1_">
		<g>
			<path fill="none" stroke="#000000" stroke-width="3" stroke-miterlimit="10" d="M1291.247,673.297
				c1.116,0.497,2.362,0.986,3.72,1.466"/>
			<path fill="none" stroke="#000000" stroke-width="3" stroke-miterlimit="10" stroke-dasharray="8.5248,5.328" d="
				M1300.047,676.365c14.721,4.191,37.145,7.25,52.125,7.186"/>
			<path fill="none" stroke="#000000" stroke-width="3" stroke-miterlimit="10" d="M1354.839,683.503
				c1.421-0.047,2.756-0.126,3.989-0.241"/>
		</g>
	</g>
	<path id="CONTOUR_1_" fill="none" stroke="#000000" stroke-width="5" stroke-miterlimit="10" d="M1264.203,380.966
		c3.464,51.701,4.529,287.978,2.949,304.692c-45.652,1.342-138.852,2.033-164.857,2.033c-24.994,0-117.545-0.691-164.831-2.033
		c-1.582-16.714-1.13-254.994,3.036-304.543c-19.834,33.547-28.621,65.885-34.066,93.033C900.5,545.5,911.816,659.674,914.125,688
		c-17.459,9.691-44.459,13.317-64.125,9.691C830.666,659.316,823.5,532,827.365,463.03c14.369-78.705,78.504-194.03,122.258-221.035
		c31.711-17.21,69.84-32.369,89.605-37.881c0,0,7.301-4.889,12.502-6.74c16.02,10.876,40.77,14.322,50.514,14.322
		c8.832,0,33.006-3.196,49.902-14.322c5.201,1.851,13.115,6.492,13.115,6.492c19.766,5.513,55.541,20.169,89.604,38.634
		c44.159,23.938,107.647,141.578,122.016,220.283c4.367,69.217-3.302,196.409-22.635,234.784
		c-19.667,3.626-46.667,0.063-64.126-9.629c2.309-28.326,13.754-142.938,7.793-213.821C1291.301,447,1283.375,415,1264.203,380.966z
		"/>
</g>
<g id="FRONT">
	<g id="BOTTOM_HEM_1_">
		<g>
			<path fill="none" stroke="#000000" stroke-width="3" stroke-miterlimit="10" d="M567.469,669.623
				c-0.972,0.077-2.316,0.153-3.991,0.229"/>
			<path fill="none" stroke="#000000" stroke-width="3" stroke-miterlimit="10" stroke-dasharray="8.1388,5.0867" d="
				M558.398,670.047c-34.75,1.159-141.623,2.06-156.154,2.06c-14.905,0-126.96-0.947-158.688-2.149"/>
			<path fill="none" stroke="#000000" stroke-width="3" stroke-miterlimit="10" d="M241.011,669.853
				c-1.675-0.076-3.019-0.152-3.991-0.229"/>
		</g>
	</g>
	<g id="COLLAR_x5F_FRONT_x5F_BOTTOM_1_">
		<g>
			<path fill="none" stroke="#000000" stroke-width="3" stroke-miterlimit="10" d="M464.705,203.87
				c-0.173,1.649-0.473,3.656-0.933,5.924"/>
			<path fill="none" stroke="#000000" stroke-width="3" stroke-miterlimit="10" stroke-dasharray="12.1095,7.0639" d="
				M462.069,216.646c-5.685,19.372-21.415,47.773-59.825,47.773c-40.733,0-55.96-31.942-60.749-51.182"/>
			<path fill="none" stroke="#000000" stroke-width="3" stroke-miterlimit="10" d="M340.718,209.794
				c-0.46-2.268-0.76-4.275-0.933-5.924"/>
		</g>
	</g>
	<g id="COLLAR_x5F_BACK_x5F_BOTTOM_1_">
		<g>
			<path fill="none" stroke="#000000" stroke-width="3" stroke-miterlimit="10" d="M450.033,214.36
				c-2.128,1.129-4.606,2.207-7.318,3.214"/>
			<path fill="none" stroke="#000000" stroke-width="3" stroke-miterlimit="10" stroke-dasharray="15.7565,8.863" d="
				M434.28,220.289c-10.883,3.044-23.309,4.979-32.036,4.979c-9.885,0-24.518-2.483-36.278-6.249"/>
			<path fill="none" stroke="#000000" stroke-width="3" stroke-miterlimit="10" d="M361.774,217.574
				c-2.712-1.008-5.19-2.085-7.318-3.214"/>
		</g>
	</g>
	<path id="COLLAR_x5F_FRONT_x5F_TOP_1_" fill="none" stroke="#000000" stroke-width="5" stroke-miterlimit="10" d="M453.002,198.878
		c-0.05,10.092-8.972,52.78-50.757,52.78c-41.785,0-50.707-42.688-50.757-52.78"/>
	<path id="SLEEVE_SEAM_x5F_LEFT" fill="none" stroke="#000000" stroke-width="3" stroke-miterlimit="10" d="M250.634,244.995
		c13.928,16.938,20.366,96.006-9.324,134.12"/>
	<path id="SLEEVE_SEAM_x5F_RIGHT" fill="none" stroke="#000000" stroke-width="3" stroke-miterlimit="10" d="M554.7,244.995
		c-13.928,16.938-20.366,96.006,9.324,134.12"/>
	<g id="SLEEVE_HEM_x5F_LEFT">
		<g>
			<path fill="none" stroke="#000000" stroke-width="3" stroke-miterlimit="10" d="M212.492,675.313
				c-1.119,0.483-2.371,0.956-3.738,1.417"/>
			<path fill="none" stroke="#000000" stroke-width="3" stroke-miterlimit="10" stroke-dasharray="8.4076,5.2547" d="
				M203.721,678.236c-14.54,3.904-36.678,6.565-51.514,6.263"/>
			<path fill="none" stroke="#000000" stroke-width="3" stroke-miterlimit="10" d="M149.578,684.41
				c-1.419-0.068-2.753-0.169-3.985-0.304"/>
		</g>
	</g>
	<g id="SLEEVE_HEM_x5F_RIGHT">
		<g>
			<path fill="none" stroke="#000000" stroke-width="3" stroke-miterlimit="10" d="M591.247,674.297
				c1.116,0.497,2.362,0.986,3.72,1.466"/>
			<path fill="none" stroke="#000000" stroke-width="3" stroke-miterlimit="10" stroke-dasharray="8.5248,5.328" d="
				M600.047,677.366c14.721,4.19,37.145,7.249,52.125,7.185"/>
			<path fill="none" stroke="#000000" stroke-width="3" stroke-miterlimit="10" d="M654.84,684.503
				c1.421-0.047,2.756-0.126,3.989-0.241"/>
		</g>
	</g>
	<path id="CONTOUR" fill="none" stroke="#000000" stroke-width="5" stroke-miterlimit="10" d="M564.203,381.966
		c3.464,51.701,4.529,287.978,2.949,304.692C521.5,688,428.3,688.691,402.295,688.691c-24.995,0-117.545-0.691-164.831-2.033
		c-1.582-16.714-1.13-254.994,3.036-304.543c-19.833,33.547-28.621,65.885-34.066,93.033C200.5,546.5,211.817,660.674,214.125,689
		c-17.459,9.691-44.459,13.317-64.125,9.691C130.667,660.316,123.5,533,127.365,464.03c14.369-78.705,78.504-194.03,122.258-221.035
		c31.71-17.21,69.839-32.369,89.605-37.881c0,0,7.3-4.889,12.501-6.74c16.02,10.876,40.77,14.322,50.515,14.322
		c8.832,0,33.005-3.196,49.902-14.322c5.201,1.851,13.115,6.492,13.115,6.492c19.766,5.513,55.541,20.169,89.604,38.634
		c44.159,23.938,107.647,141.578,122.016,220.283c4.367,69.217-3.302,196.409-22.635,234.784
		c-19.667,3.626-46.667,0.063-64.126-9.629c2.309-28.326,13.754-142.938,7.793-213.821C591.301,448,583.375,416,564.203,381.966z"/>
</g>
<g id="ARROWS">
	<g id="L_-_BACK_BODY_LENGTH_1_">
		<g>
			<line fill="none" stroke="#00CCFF" stroke-width="2" stroke-miterlimit="10" x1="1040" y1="216" x2="1040" y2="677"/>
			<g>
				<path fill="#00CCFF" d="M1039.733,217.771l3.603,2.191l0.082-0.123l-2.334-5.875c-0.449-2.047-0.9-4.094-1.351-6.141
					c-0.45,2.047-0.9,4.094-1.351,6.141l-2.334,5.875l0.062,0.123L1039.733,217.771z"/>
			</g>
			<g>
				<path fill="#00CCFF" d="M1039.733,675.41l3.603-2.191l0.082,0.123l-2.334,5.875c-0.449,2.047-0.9,4.094-1.351,6.141
					c-0.45-2.047-0.9-4.094-1.351-6.141l-2.334-5.875l0.062-0.123L1039.733,675.41z"/>
			</g>
		</g>
	</g>
	<g id="K_-_FULL_SHOULDER_WIDTH_1_">
		<g>
			<line fill="none" stroke="#FF00CC" stroke-width="2" stroke-miterlimit="10" x1="960" y1="245" x2="1244" y2="245"/>
			<g>
				<path fill="#FF00CC" d="M962.238,244.576l2.191-3.603l-0.123-0.082l-5.875,2.333c-2.047,0.45-4.094,0.9-6.141,1.351
					c2.047,0.45,4.094,0.9,6.141,1.351l5.875,2.333l0.123-0.062L962.238,244.576z"/>
			</g>
			<g>
				<path fill="#FF00CC" d="M1241.72,244.576l-2.191-3.603l0.123-0.082l5.875,2.333c2.047,0.45,4.094,0.9,6.141,1.351
					c-2.047,0.45-4.094,0.9-6.141,1.351l-5.875,2.333l-0.123-0.062L1241.72,244.576z"/>
			</g>
		</g>
	</g>
	<g id="J_-_SLEEVE_BOTTOM_LENGTH_1_">
		
			<line fill="none" stroke="#FF9900" stroke-width="2" stroke-miterlimit="10" x1="568.144" y1="379.667" x2="605.856" y2="366.333"/>
		
			<line fill="none" stroke="#FF9900" stroke-width="2" stroke-miterlimit="10" x1="595.019" y1="687.138" x2="634.981" y2="688.862"/>
		<g>
			<g>
				<path fill="none" stroke="#FF9900" stroke-width="2" stroke-miterlimit="10" d="M595.135,378.765
					c5.603,14.702,18.059,47.684,26.336,71.831c8.25,24.068,8.521,55.422,7.693,74.672c-2.214,51.476-6.396,129.405-7.763,154.567"
					/>
				<g>
					<path fill="#FF9900" d="M595.749,380.455l4.146,0.771l0.033-0.144l-4.265-4.666c-1.146-1.754-2.293-3.509-3.44-5.263
						c0.305,2.074,0.609,4.147,0.914,6.221l-0.099,6.321l0.102,0.093L595.749,380.455z"/>
				</g>
				<g>
					<path fill="#FF9900" d="M621.458,678.041l3.709-2.007l0.075,0.127l-2.626,5.75c-0.553,2.021-1.105,4.043-1.659,6.064
						c-0.347-2.067-0.693-4.134-1.04-6.201l-2.035-5.984l0.068-0.12L621.458,678.041z"/>
				</g>
			</g>
		</g>
	</g>
	<g id="I_-_SLEEVE_TOP_LENGTH_1_">
		
			<line fill="none" stroke="#CCCC00" stroke-width="2" stroke-miterlimit="10" x1="104.122" y1="705.202" x2="143.878" y2="700.798"/>
		<g>
			
				<line fill="none" stroke="#CCCC00" stroke-width="2" stroke-miterlimit="10" x1="246.576" y1="239.519" x2="225.142" y2="205.745"/>
			<g>
				<g>
					<path fill="none" stroke="#CCCC00" stroke-width="2" stroke-miterlimit="10" d="M225.086,222.675
						c-6.061,3.762,0.207-0.236-10.032,6.296C186.5,247.853,107,374.5,97.598,465c-6.098,58.5,13.022,180.657,17.354,215.007
						c0.583,4.625,1.207,10.058,1.694,14.43"/>
					<g>
						<path fill="#CCCC00" d="M223.552,223.602l0.038,4.217l0.147,0.004l3.761-5.081c1.501-1.462,3.003-2.924,4.505-4.386
							c-1.977,0.697-3.953,1.394-5.93,2.09l-6.223,1.115l-0.072,0.117L223.552,223.602z"/>
					</g>
					<g>
						<path fill="#CCCC00" d="M116.399,692.655l3.331-2.587l0.095,0.113l-1.651,6.102c-0.215,2.085-0.429,4.17-0.645,6.255
							c-0.68-1.982-1.36-3.965-2.04-5.947l-2.986-5.571l0.047-0.13L116.399,692.655z"/>
					</g>
				</g>
			</g>
		</g>
	</g>
	<g id="H_-_SLEEVE_HEM_LENGTH_1_">
		
			<line fill="none" stroke="#666699" stroke-width="2" stroke-miterlimit="10" x1="154.507" y1="742.771" x2="148.494" y2="703.228"/>
		
			<line fill="none" stroke="#666699" stroke-width="2" stroke-miterlimit="10" x1="221.507" y1="732.771" x2="215.494" y2="693.228"/>
		<g>
			<g>
				
					<line fill="none" stroke="#666699" stroke-width="2" stroke-miterlimit="10" x1="160.857" y1="726.899" x2="210.819" y2="719.156"/>
				<g>
					<path fill="#666699" d="M162.631,726.624l1.614-3.896l-0.134-0.063l-5.448,3.206c-1.954,0.758-3.908,1.517-5.861,2.275
						c2.092,0.132,4.183,0.263,6.275,0.395l6.163,1.406l0.112-0.079L162.631,726.624z"/>
				</g>
				<g>
					<path fill="#666699" d="M209.045,719.432l-2.717-3.225l0.109-0.1l6.163,1.406c2.091,0.131,4.183,0.263,6.275,0.395
						c-1.954,0.759-3.908,1.517-5.861,2.275l-5.448,3.206l-0.131-0.042L209.045,719.432z"/>
				</g>
			</g>
		</g>
	</g>
	<g id="G_-_ARMHOLE_LENGTH_1_">
		
			<line fill="none" stroke="#FF99CC" stroke-width="2" stroke-miterlimit="10" x1="255.091" y1="245.375" x2="291.186" y2="247.151"/>
		
			<line fill="none" stroke="#FF99CC" stroke-width="2" stroke-miterlimit="10" x1="246.114" y1="379.84" x2="282.208" y2="381.616"/>
		<g>
			<g>
				
					<line fill="none" stroke="#FF99CC" stroke-width="2" stroke-miterlimit="10" x1="277.421" y1="255.298" x2="270.218" y2="371.933"/>
				<g>
					<path fill="#FF99CC" d="M277.31,257.089l3.461,2.41l0.089-0.118l-1.967-6.007c-0.323-2.071-0.646-4.142-0.97-6.212
						c-0.576,2.015-1.151,4.03-1.727,6.046l-2.691,5.72l0.054,0.126L277.31,257.089z"/>
				</g>
				<g>
					<path fill="#FF99CC" d="M270.329,370.142l3.731-1.965l0.074,0.128l-2.691,5.72c-0.576,2.016-1.151,4.031-1.727,6.046
						c-0.323-2.071-0.646-4.142-0.97-6.212l-1.967-6.007l0.069-0.119L270.329,370.142z"/>
				</g>
			</g>
		</g>
	</g>
	<g id="F_-_SIDE_SHOULDER_LENGTH_1_">
		
			<line fill="none" stroke="#993333" stroke-width="2" stroke-miterlimit="10" x1="556.631" y1="240.025" x2="570.615" y2="208.568"/>
		
			<line fill="none" stroke="#993333" stroke-width="2" stroke-miterlimit="10" x1="466.105" y1="199.114" x2="480.09" y2="167.657"/>
		<g>
			<g>
				
					<line fill="none" stroke="#993333" stroke-width="2" stroke-miterlimit="10" x1="482.762" y1="183.064" x2="557.326" y2="216.931"/>
				<g>
					<path fill="#993333" d="M484.396,183.807l3.485-2.375l-0.078-0.125l-6.314-0.305c-2.05-0.437-4.1-0.873-6.149-1.309
						c1.677,1.256,3.355,2.513,5.032,3.77l4.384,4.554l0.137-0.005L484.396,183.807z"/>
				</g>
				<g>
					<path fill="#993333" d="M555.692,216.189l-0.505-4.187l0.146-0.023l4.384,4.554c1.678,1.256,3.355,2.513,5.032,3.77
						c-2.05-0.437-4.1-0.873-6.149-1.309l-6.314-0.305l-0.086-0.107L555.692,216.189z"/>
				</g>
			</g>
		</g>
	</g>
	<g id="E_-_NECK_WIDTH_1_">
		<line fill="none" stroke="#66CCCC" stroke-width="2" stroke-miterlimit="10" x1="465" y1="198.693" x2="465" y2="162.554"/>
		
			<line fill="none" stroke="#66CCCC" stroke-width="2" stroke-miterlimit="10" x1="339.471" y1="198.693" x2="339.471" y2="162.554"/>
		<g>
			<g>
				<line fill="none" stroke="#66CCCC" stroke-width="2" stroke-miterlimit="10" x1="348" y1="176" x2="456" y2="176"/>
				<g>
					<path fill="#66CCCC" d="M350.208,176.106l2.191-3.603l-0.123-0.082l-5.875,2.333c-2.047,0.45-4.094,0.9-6.141,1.351
						c2.047,0.45,4.094,0.9,6.141,1.351l5.875,2.333l0.123-0.062L350.208,176.106z"/>
				</g>
				<g>
					<path fill="#66CCCC" d="M454.037,176.106l-2.191-3.603l0.123-0.082l5.875,2.333c2.047,0.45,4.094,0.9,6.141,1.351
						c-2.047,0.45-4.094,0.9-6.141,1.351l-5.875,2.333l-0.123-0.062L454.037,176.106z"/>
				</g>
			</g>
		</g>
	</g>
	<g id="D_-_BOTTOM_HEM_2_">
		
			<line fill="none" stroke="#6600FF" stroke-width="2" stroke-miterlimit="10" x1="236.459" y1="727.218" x2="236.459" y2="691.08"/>
		<line fill="none" stroke="#6600FF" stroke-width="2" stroke-miterlimit="10" x1="568.03" y1="727.218" x2="568.03" y2="691.08"/>
		<g>
			<g>
				<line fill="none" stroke="#6600FF" stroke-width="2" stroke-miterlimit="10" x1="246" y1="714" x2="559" y2="714"/>
				<g>
					<path fill="#6600FF" d="M247.386,713.666l2.191-3.604l-0.123-0.081l-5.875,2.333c-2.047,0.451-4.094,0.9-6.141,1.352
						c2.047,0.45,4.094,0.9,6.141,1.352l5.875,2.333l0.123-0.062L247.386,713.666z"/>
				</g>
				<g>
					<path fill="#6600FF" d="M557.03,713.666l-2.191-3.604l0.123-0.081l5.875,2.333c2.047,0.451,4.094,0.9,6.141,1.352
						c-2.047,0.45-4.094,0.9-6.141,1.352l-5.875,2.333l-0.123-0.062L557.03,713.666z"/>
				</g>
			</g>
		</g>
	</g>
	<g id="C_-_WAIST_WIDTH_2_">
		<g>
			<line fill="none" stroke="#00CC00" stroke-width="2" stroke-miterlimit="10" x1="248" y1="538" x2="556" y2="538"/>
			<g>
				<path fill="#00CC00" d="M250.021,538.395l2.191-3.604l-0.123-0.081l-5.875,2.333c-2.047,0.451-4.094,0.9-6.141,1.352
					c2.047,0.45,4.094,0.9,6.141,1.352l5.875,2.333l0.123-0.062L250.021,538.395z"/>
			</g>
			<g>
				<path fill="#00CC00" d="M554.017,538.395l-2.191-3.604l0.123-0.081l5.875,2.333c2.047,0.451,4.094,0.9,6.141,1.352
					c-2.047,0.45-4.094,0.9-6.141,1.352l-5.875,2.333l-0.123-0.062L554.017,538.395z"/>
			</g>
		</g>
	</g>
	<g id="B_-_CHEST_WIDTH_2_">
		<g>
			<line fill="none" stroke="#0033FF" stroke-width="2" stroke-miterlimit="10" x1="251" y1="392" x2="554" y2="392"/>
			<g>
				<path fill="#0033FF" d="M252.731,392.034l2.191-3.603l-0.123-0.082l-5.875,2.333c-2.047,0.45-4.094,0.9-6.141,1.351
					c2.047,0.45,4.094,0.9,6.141,1.351l5.875,2.333l0.123-0.062L252.731,392.034z"/>
			</g>
			<g>
				<path fill="#0033FF" d="M551.91,392.034l-2.191-3.603l0.123-0.082l5.875,2.333c2.047,0.45,4.094,0.9,6.141,1.351
					c-2.047,0.45-4.094,0.9-6.141,1.351l-5.875,2.333l-0.123-0.062L551.91,392.034z"/>
			</g>
		</g>
	</g>
	<g id="A_-_FRONT_BODY_LENGTH_2_">
		<g>
			<line fill="none" stroke="#FF3300" stroke-width="2" stroke-miterlimit="10" x1="465" y1="215" x2="465" y2="677"/>
			<g>
				<path fill="#FF3300" d="M464.939,216.319l3.603,2.191l0.082-0.123l-2.333-5.875c-0.45-2.047-0.9-4.094-1.351-6.141
					c-0.45,2.047-0.9,4.094-1.351,6.141l-2.333,5.875l0.062,0.123L464.939,216.319z"/>
			</g>
			<g>
				<path fill="#FF3300" d="M464.939,675.41l3.603-2.191l0.082,0.123l-2.333,5.875c-0.45,2.047-0.9,4.094-1.351,6.141
					c-0.45-2.047-0.9-4.094-1.351-6.141l-2.333-5.875l0.062-0.123L464.939,675.41z"/>
			</g>
		</g>
	</g>
</g>
<g id="LETTERS">
	<g>
		<path fill="#00CCFF" d="M1057.188,458.782v-44.784c0-1.008,2.436-1.512,7.309-1.512c4.871,0,7.307,0.504,7.307,1.512v35.28h11.088
			c0.865,0,1.465,1.128,1.801,3.384c0.145,1.104,0.215,2.232,0.215,3.384c0,1.152-0.07,2.329-0.215,3.528
			c-0.385,2.304-1.008,3.456-1.873,3.456h-22.176c-1.057,0-1.896-0.432-2.52-1.296
			C1057.498,460.87,1057.188,459.887,1057.188,458.782z"/>
	</g>
	<g>
		<path fill="#FF00CC" d="M1096.701,314.758c0,0.72-2.258,1.08-6.768,1.08l-4.033-0.216c-2.4-0.191-3.6-0.527-3.6-1.008v-48.312
			c0-0.816,2.4-1.224,7.199-1.224c4.801,0,7.201,0.408,7.201,1.224v18.432l8.783-18.432c0.336-0.672,2.256-1.008,5.76-1.008
			c6.385,0,9.744,0.553,10.08,1.656c0,0.097-0.023,0.192-0.072,0.288l-12.527,22.608l14.545,20.088c0,0.097-0.457,0.504-1.369,1.224
			c-2.209,1.92-4.801,3.432-7.775,4.536c-0.912,0.335-1.824,0.504-2.736,0.504l-1.729-0.144c-1.537-0.384-2.736-1.368-3.6-2.952
			l-8.207-15.696h-1.152V314.758z"/>
	</g>
	<g>
		<path fill="#FF9900" d="M637.413,527.52c0-1.392,0.407-3.012,1.224-4.859c0.815-1.848,1.703-3.107,2.664-3.781
			c1.824,1.346,3.672,2.017,5.544,2.017l2.232-0.36c2.592-0.768,3.935-2.831,4.032-6.191v-18.36h-5.76
			c-0.817,0-1.393-1.032-1.728-3.096c-0.144-1.009-0.216-2.04-0.216-3.097c0-1.055,0.072-2.088,0.216-3.096
			c0.335-2.063,0.911-3.096,1.728-3.096h17.136c0.959,0,1.679,0.277,2.16,0.828c0.479,0.553,0.72,1.213,0.72,1.98v33.983
			c0,4.704-1.573,8.28-4.716,10.728c-3.144,2.448-6.912,3.672-11.304,3.672s-7.812-0.647-10.26-1.943
			C638.637,531.551,637.413,529.776,637.413,527.52z"/>
	</g>
	<g>
		<path fill="#CCCC00" d="M55.352,449.182v-25.632H50.24c-0.817,0-1.393-1.032-1.728-3.096c-0.144-1.008-0.216-2.04-0.216-3.096
			c0-1.055,0.072-2.088,0.216-3.096c0.335-2.063,0.911-3.096,1.728-3.096h24.192c0.815,0,1.368,1.033,1.656,3.096
			c0.191,1.008,0.288,2.041,0.288,3.096c0,1.056-0.097,2.088-0.288,3.096c-0.288,2.064-0.84,3.096-1.656,3.096h-4.824v25.632h5.04
			c0.816,0,1.392,1.033,1.728,3.096c0.191,1.008,0.288,2.041,0.288,3.096c0,1.057-0.097,2.088-0.288,3.096
			c-0.336,2.064-0.912,3.097-1.728,3.097H50.384c-0.816,0-1.368-1.032-1.656-3.097c-0.192-1.008-0.288-2.039-0.288-3.096
			c0-1.055,0.096-2.088,0.288-3.096c0.288-2.063,0.839-3.096,1.656-3.096H55.352z"/>
	</g>
	<g>
		<path fill="#666699" d="M211.499,782.01c0,0.816-2.424,1.225-7.272,1.225c-4.849,0-7.272-0.408-7.272-1.225v-16.561h-10.08v16.561
			c0,0.816-2.424,1.225-7.272,1.225c-4.849,0-7.272-0.408-7.272-1.225v-47.736c0-1.008,2.423-1.512,7.272-1.512
			c4.848,0,7.272,0.504,7.272,1.512v16.92h10.08v-16.775c0-0.672,1.199-1.152,3.6-1.439c1.248-0.096,2.471-0.145,3.672-0.145
			l3.672,0.145c2.399,0.287,3.6,0.768,3.6,1.439V782.01z"/>
	</g>
	<g>
		<path fill="#FF99CC" d="M320.327,325.611l0.144-9.792c0-0.672,0.695-1.116,2.088-1.332c1.392-0.216,2.543-0.324,3.456-0.324
			l2.808,0.216c1.824,0.288,2.736,0.792,2.736,1.512l-0.288,22.536c-0.961,0.673-2.893,1.332-5.796,1.98
			c-2.905,0.648-6.228,0.972-9.972,0.972c-6.96,0-12.576-2.256-16.848-6.768c-4.272-4.511-6.408-11.135-6.408-19.872
			c0-7.44,2.088-13.488,6.264-18.144c4.176-4.655,9.96-6.984,17.352-6.984c3.359,0,6.396,0.324,9.108,0.972
			c2.711,0.648,4.572,1.524,5.58,2.628c0.047,0.385,0.072,1.105,0.072,2.16c0,1.057-0.36,2.556-1.08,4.5
			c-0.72,1.944-1.537,3.396-2.448,4.356c-0.912,0.961-1.573,1.44-1.98,1.44c-0.408,0-0.84-0.18-1.296-0.54
			c-0.457-0.36-1.356-0.743-2.7-1.152c-1.345-0.407-2.641-0.612-3.888-0.612c-2.977,0-5.389,0.96-7.236,2.88
			c-1.849,1.92-2.772,4.896-2.772,8.928c0,4.032,0.947,7.092,2.844,9.18c1.896,2.088,4.079,3.132,6.552,3.132
			C319.09,327.483,320.327,326.859,320.327,325.611z"/>
	</g>
	<g>
		<path fill="#993333" d="M551.628,129.922c0.816,0,1.224,2.124,1.224,6.372s-0.408,6.372-1.224,6.372h-13.176v8.208h8.784
			c0.815,0,1.224,1.861,1.224,5.58c0,3.721-0.385,5.58-1.152,5.58h-8.856v17.352c0,0.673-0.9,1.116-2.7,1.332
			c-1.8,0.216-3.301,0.324-4.5,0.324l-3.384-0.144c-2.353-0.288-3.528-0.768-3.528-1.44v-47.664c0-0.768,0.155-1.271,0.468-1.512
			c0.312-0.24,0.78-0.36,1.404-0.36H551.628z"/>
	</g>
	<g>
		<path fill="#66CCCC" d="M410.677,124.846c0.911,0,1.368,1.681,1.368,5.04c0,1.008-0.108,2.196-0.324,3.564
			c-0.216,1.368-0.612,2.052-1.188,2.052h-9.144v7.2h13.248c0.815,0,1.368,1.056,1.656,3.168c0.144,0.912,0.216,1.884,0.216,2.916
			c0,1.033-0.144,2.365-0.432,3.996c-0.288,1.633-0.768,2.448-1.44,2.448h-24.624c-1.825,0-2.736-0.744-2.736-2.232v-46.296
			c0-1.248,0.551-1.872,1.656-1.872h25.776c1.008,0,1.512,2.124,1.512,6.372s-0.504,6.372-1.512,6.372h-13.32v7.272H410.677z"/>
	</g>
	<g>
		<path fill="#6600FF" d="M387.323,779.922v-43.2c0-1.199,0.299-2.147,0.9-2.845c0.6-0.694,1.379-1.044,2.34-1.044h12.024
			c7.632,0,13.428,1.921,17.388,5.761c3.96,3.841,5.94,9.889,5.94,18.144c0,17.665-7.536,26.496-22.608,26.496h-12.312
			C388.547,783.233,387.323,782.13,387.323,779.922z M401.147,746.514v21.527c0,1.009,0.072,1.646,0.216,1.908
			c0.144,0.265,0.576,0.396,1.296,0.396c2.639,0,4.644-0.983,6.012-2.952c1.368-1.968,2.052-5.244,2.052-9.828
			c0-4.583-0.709-7.571-2.124-8.964c-1.417-1.392-3.661-2.088-6.732-2.088H401.147z"/>
	</g>
	<g>
		<path fill="#00CC00" d="M418.974,559.292c2.664,0.984,3.996,2.316,3.996,3.996c0,1.681-0.637,3.757-1.908,6.229
			c-1.272,2.473-2.34,3.708-3.204,3.708c-0.241,0-0.517-0.132-0.828-0.396c-0.313-0.263-1.033-0.551-2.16-0.864
			c-1.128-0.312-2.1-0.468-2.916-0.468c-2.784,0-5.029,0.984-6.732,2.952c-1.704,1.969-2.556,4.98-2.556,9.036
			c0,4.057,0.875,7.068,2.628,9.036c1.751,1.969,3.971,2.952,6.66,2.952c1.104,0,2.34-0.155,3.708-0.469
			c1.368-0.312,2.34-0.756,2.916-1.332c0.096-0.096,0.288-0.144,0.576-0.144s0.828,0.54,1.62,1.62s1.523,2.496,2.196,4.248
			c0.672,1.753,1.008,3.108,1.008,4.067c0,1.872-1.44,3.36-4.32,4.465c-2.88,1.104-6.289,1.655-10.224,1.655
			c-6.336,0-11.544-2.231-15.624-6.695c-4.08-4.465-6.12-10.765-6.12-18.9s2.099-14.531,6.3-19.188
			c4.2-4.655,9.443-6.983,15.732-6.983C413.225,557.816,416.31,558.309,418.974,559.292z"/>
	</g>
	<g>
		<path fill="#0033FF" d="M422.675,424.232c0,4.992-2.16,8.784-6.48,11.376c2.351,0.864,4.32,2.353,5.904,4.464
			c1.584,2.113,2.376,5.101,2.376,8.964c0,3.865-1.429,6.925-4.284,9.181c-2.856,2.257-6.948,3.384-12.276,3.384h-16.992
			c-0.817,0-1.489-0.275-2.016-0.828c-0.529-0.551-0.792-1.283-0.792-2.196v-46.08c0-0.528,0.083-0.875,0.252-1.044
			c0.167-0.167,0.515-0.252,1.044-0.252h16.416C417.059,411.201,422.675,415.545,422.675,424.232z M401.939,422.865v9.432h0.36
			c4.608,0,6.912-1.536,6.912-4.608c0-1.68-0.444-2.903-1.332-3.672c-0.889-0.767-2.365-1.152-4.428-1.152H401.939z
			 M401.939,440.793v9.359h1.296c2.063,0,3.575-0.384,4.536-1.151c0.96-0.768,1.44-1.991,1.44-3.673c0-1.68-0.444-2.855-1.332-3.527
			c-0.889-0.672-2.365-1.008-4.428-1.008H401.939z"/>
	</g>
	<g>
		<path fill="#FF3300" d="M438.329,341.146c-4.176,0-6.433-0.672-6.768-2.016l-2.376-9.288h-11.448l-2.088,8.928
			c-0.288,1.488-2.592,2.232-6.912,2.232c-2.304,0-4.008-0.132-5.112-0.396c-1.104-0.263-1.656-0.468-1.656-0.612l12.744-48.744
			c0-0.384,3.287-0.576,9.864-0.576c6.576,0,9.864,0.192,9.864,0.576l12.456,48.816c0,0.336-1.104,0.601-3.312,0.792
			C441.376,341.049,439.625,341.146,438.329,341.146z M419.537,320.697h7.56l-3.24-14.904h-0.432L419.537,320.697z"/>
	</g>
	<g>
	</g>
	<g>
	</g>
	<g>
	</g>
	<g>
	</g>
	<g>
	</g>
	<g>
	</g>
	<g>
	</g>
	<g>
	</g>
	<g>
	</g>
	<g>
	</g>
	<g>
	</g>
	<g>
	</g>
	<g>
	</g>
	<g>
	</g>
	<g>
	</g>
	<g>
	</g>
</g>
</svg>
