<?xml version="1.0" encoding="utf-8"?>
<!-- Generator: Adobe Illustrator 16.0.0, SVG Export Plug-In . SVG Version: 6.00 Build 0)  -->
<!DOCTYPE svg PUBLIC "-//W3C//DTD SVG 1.1//EN" "http://www.w3.org/Graphics/SVG/1.1/DTD/svg11.dtd">
<svg version="1.1" xmlns="http://www.w3.org/2000/svg" xmlns:xlink="http://www.w3.org/1999/xlink" x="0px" y="0px" width="1500px"
	 height="850px" viewBox="0 0 1500 850" enable-background="new 0 0 1500 850" xml:space="preserve">
<g id="BACKGROUND">
	<rect x="0.5" y="1.5" fill="#FFFFFF" stroke="#000000" stroke-miterlimit="10" width="1500" height="850"/>
</g>
<g id="DELIMITOR">
	
		<line id="DELIMITOR_1_" fill="none" stroke="#000000" stroke-width="5" stroke-miterlimit="10" x1="750.5" y1="34" x2="750.5" y2="814"/>
</g>
<g id="BACK">
	<g id="BOTTOM_HEM_7_">
		<g>
			<path fill="none" stroke="#000000" stroke-width="3" stroke-miterlimit="10" d="M1267.652,669.623
				c-0.972,0.077-2.316,0.153-3.991,0.229"/>
			<path fill="none" stroke="#000000" stroke-width="3" stroke-miterlimit="10" stroke-dasharray="8.1388,5.0867" d="
				M1258.582,670.047c-34.751,1.159-141.623,2.06-156.154,2.06c-14.904,0-126.959-0.947-158.688-2.149"/>
			<path fill="none" stroke="#000000" stroke-width="3" stroke-miterlimit="10" d="M941.195,669.853
				c-1.675-0.076-3.02-0.152-3.991-0.229"/>
		</g>
	</g>
	<g id="RIGHT_x5F_SLEEVE_HEM_7_">
		<g>
			<path fill="none" stroke="#000000" stroke-width="3" stroke-miterlimit="10" d="M1297.615,389.603
				c0.602-0.761,1.412-1.845,2.399-3.198"/>
			<path fill="none" stroke="#000000" stroke-width="3" stroke-miterlimit="10" stroke-dasharray="8.3946,5.2466" d="
				M1303.074,382.144c11.624-16.382,35.279-51.336,44.731-65.395"/>
			<path fill="none" stroke="#000000" stroke-width="3" stroke-miterlimit="10" d="M1349.269,314.57
				c1.048-1.561,1.81-2.701,2.221-3.322"/>
		</g>
	</g>
	<g id="LEFT_x5F_SLEEVE_HEM_7_">
		<g>
			<path fill="none" stroke="#000000" stroke-width="3" stroke-miterlimit="10" d="M907.241,389.603
				c-0.602-0.761-1.413-1.844-2.399-3.198"/>
			<path fill="none" stroke="#000000" stroke-width="3" stroke-miterlimit="10" stroke-dasharray="8.3946,5.2466" d="
				M901.782,382.144c-11.625-16.381-35.279-51.336-44.731-65.395"/>
			<path fill="none" stroke="#000000" stroke-width="3" stroke-miterlimit="10" d="M855.588,314.57
				c-1.048-1.561-1.81-2.701-2.221-3.322"/>
		</g>
	</g>
	<path id="RIGHT_x5F_SLEEVE_SEAM_4_" fill="none" stroke="#000000" stroke-width="3" stroke-miterlimit="10" d="M1258.05,244.995
		c-13.928,16.938-31.998,100.057,6.324,136.12"/>
	<path id="LEFT_x5F_SLEEVE_SEAM_4_" fill="none" stroke="#000000" stroke-width="3" stroke-miterlimit="10" d="M946.807,244.995
		c13.928,16.938,31.997,100.057-6.324,136.12"/>
	<g id="COLLAR_x5F_BACK_x5F_BOTTOM_7_">
		<g>
			<path fill="none" stroke="#000000" stroke-width="3" stroke-miterlimit="10" d="M1165.444,204.114
				c-1.316,2.097-3.155,4.049-5.399,5.855"/>
			<path fill="none" stroke="#000000" stroke-width="3" stroke-miterlimit="10" stroke-dasharray="14.5113,8.1626" d="
				M1153.219,214.419c-14.36,7.739-36.24,11.752-50.791,11.752c-17.731,0-40.637-4.561-54.331-13.758"/>
			<path fill="none" stroke="#000000" stroke-width="3" stroke-miterlimit="10" d="M1044.818,209.973
				c-2.17-1.802-4.001-3.754-5.407-5.859"/>
		</g>
	</g>
	<path id="CONTOUR_3_" fill="none" stroke="#000000" stroke-width="5" stroke-miterlimit="10" d="M1102.428,687.691
		c14.455,0,144.103,0.425,164.882-2.033c1.581-16.714-2.633-291.118-2.936-304.692c12.216,4.041,34.144,9.558,47.206,10.841
		c7.679-7.905,43.591-61.661,49.916-72.502c-15.283-14.313-85.151-65.504-103.446-74.31c-23.265-15.288-72.84-35.369-92.605-40.881
		c0,0-7.447-3.796-12.648-5.647c-16.187,11.971-36.59,14.229-50.368,14.229c-13.777,0-34.181-2.259-50.367-14.229
		c-5.201,1.851-12.649,5.647-12.649,5.647c-19.766,5.513-69.34,25.593-92.604,40.881c-18.295,8.806-88.164,59.997-103.446,74.31
		c6.324,10.841,42.236,64.597,49.916,72.502c13.062-1.284,34.99-6.8,47.206-10.841c-0.303,13.574-4.518,287.978-2.936,304.692
		C958.1,688.116,1087.973,687.691,1102.428,687.691z"/>
</g>
<g id="FRONT">
	<g id="BOTTOM_HEM_1_">
		<g>
			<path fill="none" stroke="#000000" stroke-width="3" stroke-miterlimit="10" d="M567.469,669.623
				c-0.972,0.077-2.316,0.153-3.991,0.229"/>
			<path fill="none" stroke="#000000" stroke-width="3" stroke-miterlimit="10" stroke-dasharray="8.1388,5.0867" d="
				M558.398,670.047c-34.75,1.159-141.623,2.06-156.154,2.06c-14.905,0-126.96-0.947-158.688-2.149"/>
			<path fill="none" stroke="#000000" stroke-width="3" stroke-miterlimit="10" d="M241.011,669.853
				c-1.675-0.076-3.019-0.152-3.991-0.229"/>
		</g>
	</g>
	<g id="RIGHT_x5F_SLEEVE_HEM_2_">
		<g>
			<path fill="none" stroke="#000000" stroke-width="3" stroke-miterlimit="10" d="M597.432,389.603
				c0.601-0.761,1.413-1.845,2.399-3.198"/>
			<path fill="none" stroke="#000000" stroke-width="3" stroke-miterlimit="10" stroke-dasharray="8.3946,5.2466" d="
				M602.89,382.144c11.625-16.382,35.279-51.336,44.731-65.395"/>
			<path fill="none" stroke="#000000" stroke-width="3" stroke-miterlimit="10" d="M649.085,314.57
				c1.047-1.561,1.809-2.701,2.22-3.322"/>
		</g>
	</g>
	<g id="LEFT_x5F_SLEEVE_HEM_2_">
		<g>
			<path fill="none" stroke="#000000" stroke-width="3" stroke-miterlimit="10" d="M207.058,389.603
				c-0.601-0.761-1.413-1.844-2.4-3.198"/>
			<path fill="none" stroke="#000000" stroke-width="3" stroke-miterlimit="10" stroke-dasharray="8.3946,5.2466" d="M201.6,382.144
				c-11.625-16.382-35.279-51.336-44.731-65.395"/>
			<path fill="none" stroke="#000000" stroke-width="3" stroke-miterlimit="10" d="M155.404,314.57
				c-1.047-1.561-1.809-2.701-2.22-3.322"/>
		</g>
	</g>
	<path id="RIGHT_x5F_SLEEVE_SEAM_2_" fill="none" stroke="#000000" stroke-width="3" stroke-miterlimit="10" d="M557.866,244.995
		c-13.928,16.938-31.998,100.057,6.324,136.12"/>
	<path id="LEFT_x5F_SLEEVE_SEAM_2_" fill="none" stroke="#000000" stroke-width="3" stroke-miterlimit="10" d="M246.624,244.995
		c13.928,16.938,31.998,100.057-6.324,136.12"/>
	<g id="COLLAR_x5F_FRONT_x5F_BOTTOM_1_">
		<g>
			<path fill="none" stroke="#000000" stroke-width="3" stroke-miterlimit="10" d="M464.705,203.87
				c-0.173,1.649-0.473,3.656-0.933,5.924"/>
			<path fill="none" stroke="#000000" stroke-width="3" stroke-miterlimit="10" stroke-dasharray="12.1095,7.0639" d="
				M462.069,216.646c-5.685,19.372-21.415,47.773-59.825,47.773c-40.733,0-55.96-31.942-60.749-51.182"/>
			<path fill="none" stroke="#000000" stroke-width="3" stroke-miterlimit="10" d="M340.718,209.794
				c-0.46-2.268-0.76-4.275-0.933-5.924"/>
		</g>
	</g>
	<g id="COLLAR_x5F_BACK_x5F_BOTTOM_1_">
		<g>
			<path fill="none" stroke="#000000" stroke-width="3" stroke-miterlimit="10" d="M450.033,214.36
				c-2.128,1.129-4.606,2.207-7.318,3.214"/>
			<path fill="none" stroke="#000000" stroke-width="3" stroke-miterlimit="10" stroke-dasharray="15.7565,8.863" d="
				M434.28,220.289c-10.883,3.044-23.309,4.979-32.036,4.979c-9.885,0-24.518-2.483-36.278-6.249"/>
			<path fill="none" stroke="#000000" stroke-width="3" stroke-miterlimit="10" d="M361.774,217.574
				c-2.712-1.008-5.19-2.085-7.318-3.214"/>
		</g>
	</g>
	<path id="COLLAR_x5F_FRONT_x5F_TOP_1_" fill="none" stroke="#000000" stroke-width="5" stroke-miterlimit="10" d="M453.002,198.878
		c-0.05,10.092-8.972,52.78-50.757,52.78c-41.785,0-50.707-42.688-50.757-52.78"/>
	<path id="CONTOUR_1_" fill="none" stroke="#000000" stroke-width="5" stroke-miterlimit="10" d="M402.245,687.691
		c14.456,0,144.103,0.425,164.882-2.033c1.581-16.714-2.634-291.118-2.937-304.692c12.216,4.041,34.145,9.558,47.206,10.841
		c7.679-7.905,43.592-61.661,49.916-72.502c-15.283-14.313-85.15-65.504-103.446-74.31c-23.264-15.288-72.839-35.369-92.605-40.881
		c0,0-7.447-3.796-12.648-5.647c-16.187,11.971-36.59,14.229-50.368,14.229s-34.181-2.259-50.368-14.229
		c-5.201,1.851-12.648,5.647-12.648,5.647c-19.766,5.513-69.341,25.593-92.605,40.881c-18.295,8.806-88.164,59.997-103.446,74.31
		c6.324,10.841,42.236,64.597,49.916,72.502c13.062-1.284,34.99-6.8,47.206-10.841c-0.302,13.574-4.518,287.978-2.936,304.692
		C257.917,688.116,387.79,687.691,402.245,687.691z"/>
</g>
<g id="ARROWS">
	<g id="L_-_BACK_BODY_LENGTH_2_">
		<g>
			<line fill="none" stroke="#00CCFF" stroke-width="2" stroke-miterlimit="10" x1="1039" y1="215" x2="1039" y2="678"/>
			<g>
				<path fill="#00CCFF" d="M1038.733,216.771l3.603,2.191l0.082-0.123l-2.334-5.875c-0.449-2.047-0.9-4.094-1.351-6.141
					c-0.45,2.047-0.9,4.094-1.351,6.141l-2.334,5.875l0.062,0.123L1038.733,216.771z"/>
			</g>
			<g>
				<path fill="#00CCFF" d="M1038.733,675.711l3.603-2.191l0.082,0.123l-2.334,5.875c-0.449,2.047-0.9,4.094-1.351,6.141
					c-0.45-2.047-0.9-4.094-1.351-6.141l-2.334-5.875l0.062-0.123L1038.733,675.711z"/>
			</g>
		</g>
	</g>
	<g id="K_-_FULL_SHOULDER_WIDTH_2_">
		<g>
			<line fill="none" stroke="#FF00CC" stroke-width="2" stroke-miterlimit="10" x1="957" y1="247" x2="1247" y2="247"/>
			<g>
				<path fill="#FF00CC" d="M959.238,246.576l2.191-3.603l-0.123-0.082l-5.875,2.333c-2.047,0.45-4.094,0.9-6.141,1.351
					c2.047,0.45,4.094,0.9,6.141,1.351l5.875,2.333l0.123-0.062L959.238,246.576z"/>
			</g>
			<g>
				<path fill="#FF00CC" d="M1245.053,246.576l-2.191-3.603l0.123-0.082l5.875,2.333c2.047,0.45,4.094,0.9,6.141,1.351
					c-2.047,0.45-4.094,0.9-6.141,1.351l-5.875,2.333l-0.123-0.062L1245.053,246.576z"/>
			</g>
		</g>
	</g>
	<g id="J_-_SLEEVE_BOTTOM_LENGTH">
		
			<line fill="none" stroke="#FF931E" stroke-width="2" stroke-miterlimit="10" x1="572.105" y1="341.905" x2="563.955" y2="377.112"/>
		
			<line fill="none" stroke="#FF931E" stroke-width="2" stroke-miterlimit="10" x1="618.182" y1="352.747" x2="610.031" y2="387.954"/>
		<g>
			<g>
				
					<line fill="none" stroke="#FF931E" stroke-width="2" stroke-miterlimit="10" x1="577.339" y1="356.711" x2="606.991" y2="363.679"/>
				<g>
					<path fill="#FF931E" d="M579.087,357.122l2.958-3.006l-0.101-0.107l-6.253,0.928c-2.096-0.03-4.191-0.06-6.287-0.089
						c1.89,0.906,3.779,1.813,5.669,2.72l5.186,3.616l0.134-0.032L579.087,357.122z"/>
				</g>
				<g>
					<path fill="#FF931E" d="M605.244,363.268l-1.309-4.009l0.139-0.051l5.185,3.616c1.89,0.906,3.779,1.813,5.669,2.72
						c-2.096-0.03-4.191-0.06-6.287-0.089l-6.253,0.928l-0.105-0.088L605.244,363.268z"/>
				</g>
			</g>
		</g>
	</g>
	<g id="I_-_SLEEVE_TOP_LENGTH">
		
			<line fill="none" stroke="#CCCC00" stroke-width="2" stroke-miterlimit="10" x1="224.125" y1="210.637" x2="244.401" y2="240.55"/>
		
			<line fill="none" stroke="#CCCC00" stroke-width="2" stroke-miterlimit="10" x1="120.228" y1="285.624" x2="140.503" y2="315.537"/>
		<g>
			<g>
				
					<line fill="none" stroke="#CCCC00" stroke-width="2" stroke-miterlimit="10" x1="134.464" y1="290.077" x2="223.715" y2="226.678"/>
				<g>
					<path fill="#CCCC00" d="M135.928,289.038l-0.3-4.206l-0.147,0.004l-3.438,5.305c-1.408,1.553-2.816,3.105-4.224,4.658
						c1.929-0.818,3.859-1.637,5.789-2.455l6.141-1.5l0.064-0.122L135.928,289.038z"/>
				</g>
				<g>
					<path fill="#CCCC00" d="M222.252,227.718l-3.873-1.668l0.053-0.138l6.141-1.5c1.929-0.818,3.859-1.637,5.789-2.455
						c-1.408,1.552-2.816,3.105-4.224,4.658l-3.438,5.305l-0.136,0.021L222.252,227.718z"/>
				</g>
			</g>
		</g>
	</g>
	<g id="H_-_SLEEVE_HEM_LENGTH">
		
			<line fill="none" stroke="#666699" stroke-width="2" stroke-miterlimit="10" x1="108.216" y1="342.508" x2="138.098" y2="322.183"/>
		
			<line fill="none" stroke="#666699" stroke-width="2" stroke-miterlimit="10" x1="159.713" y1="415.688" x2="189.595" y2="395.363"/>
		<g>
			<g>
				
					<line fill="none" stroke="#666699" stroke-width="2" stroke-miterlimit="10" x1="124.224" y1="342.805" x2="165.244" y2="400.996"/>
				<g>
					<path fill="#666699" d="M125.258,344.272l4.208-0.285l-0.004-0.147l-5.292-3.458c-1.547-1.414-3.094-2.828-4.642-4.241
						c0.812,1.933,1.623,3.865,2.434,5.797l1.478,6.146l0.121,0.065L125.258,344.272z"/>
				</g>
				<g>
					<path fill="#666699" d="M164.209,399.529l1.682-3.867l0.138,0.054l1.478,6.146c0.812,1.932,1.623,3.865,2.434,5.797
						c-1.547-1.414-3.095-2.827-4.642-4.241l-5.292-3.458l-0.021-0.136L164.209,399.529z"/>
				</g>
			</g>
		</g>
	</g>
	<g id="G_-_ARMHOLE_LENGTH">
		<line fill="none" stroke="#FF99CC" stroke-width="2" stroke-miterlimit="10" x1="252.75" y1="246.655" x2="288.873" y2="247.72"/>
		
			<line fill="none" stroke="#FF99CC" stroke-width="2" stroke-miterlimit="10" x1="246.426" y1="381.271" x2="282.549" y2="382.335"/>
		<g>
			<g>
				
					<line fill="none" stroke="#FF99CC" stroke-width="2" stroke-miterlimit="10" x1="275.272" y1="256.136" x2="270.37" y2="372.891"/>
				<g>
					<path fill="#FF99CC" d="M275.196,257.93l3.508,2.341l0.086-0.12l-2.085-5.968c-0.364-2.064-0.728-4.128-1.092-6.192
						c-0.536,2.026-1.071,4.052-1.607,6.079l-2.578,5.772l0.057,0.125L275.196,257.93z"/>
				</g>
				<g>
					<path fill="#FF99CC" d="M270.445,371.097l3.692-2.039l0.077,0.126l-2.578,5.772c-0.536,2.026-1.071,4.052-1.607,6.079
						c-0.364-2.064-0.728-4.128-1.092-6.192l-2.085-5.968l0.066-0.12L270.445,371.097z"/>
				</g>
			</g>
		</g>
	</g>
	<g id="F_-_SIDE_SHOULDER_LENGTH_5_">
		
			<line fill="none" stroke="#993333" stroke-width="2" stroke-miterlimit="10" x1="559.184" y1="241.013" x2="573.737" y2="207.933"/>
		
			<line fill="none" stroke="#993333" stroke-width="2" stroke-miterlimit="10" x1="464.975" y1="197.991" x2="479.528" y2="164.912"/>
		<g>
			<g>
				
					<line fill="none" stroke="#993333" stroke-width="2" stroke-miterlimit="10" x1="481.993" y1="180.969" x2="560.223" y2="216.873"/>
				<g>
					<path fill="#993333" d="M483.625,181.718l3.495-2.361l-0.078-0.125l-6.313-0.33c-2.048-0.445-4.096-0.889-6.145-1.333
						c1.672,1.263,3.345,2.526,5.018,3.789l4.366,4.572l0.138-0.005L483.625,181.718z"/>
				</g>
				<g>
					<path fill="#993333" d="M558.592,216.124l-0.489-4.188l0.146-0.023l4.366,4.572c1.672,1.263,3.345,2.526,5.017,3.789
						c-2.048-0.445-4.096-0.889-6.145-1.333l-6.313-0.33l-0.086-0.107L558.592,216.124z"/>
				</g>
			</g>
		</g>
	</g>
	<g id="E_-_NECK_WIDTH_2_">
		
			<line fill="none" stroke="#66CCCC" stroke-width="2" stroke-miterlimit="10" x1="465.036" y1="198.693" x2="465.036" y2="162.554"/>
		
			<line fill="none" stroke="#66CCCC" stroke-width="2" stroke-miterlimit="10" x1="339.455" y1="198.693" x2="339.455" y2="162.554"/>
		<g>
			<g>
				<line fill="none" stroke="#66CCCC" stroke-width="2" stroke-miterlimit="10" x1="348" y1="176" x2="456" y2="176"/>
				<g>
					<path fill="#66CCCC" d="M350.192,176.106l2.191-3.603l-0.123-0.082l-5.875,2.333c-2.047,0.45-4.094,0.9-6.141,1.351
						c2.047,0.45,4.094,0.9,6.141,1.351l5.875,2.333l0.123-0.062L350.192,176.106z"/>
				</g>
				<g>
					<path fill="#66CCCC" d="M454.072,176.106l-2.191-3.603l0.123-0.082l5.875,2.333c2.047,0.45,4.094,0.9,6.141,1.351
						c-2.047,0.45-4.094,0.9-6.141,1.351l-5.875,2.333l-0.123-0.062L454.072,176.106z"/>
				</g>
			</g>
		</g>
	</g>
	<g id="D_-_BOTTOM_HEM_2_">
		
			<line fill="none" stroke="#6600FF" stroke-width="2" stroke-miterlimit="10" x1="236.459" y1="727.218" x2="236.459" y2="691.08"/>
		<line fill="none" stroke="#6600FF" stroke-width="2" stroke-miterlimit="10" x1="568.03" y1="727.218" x2="568.03" y2="691.08"/>
		<g>
			<g>
				<line fill="none" stroke="#6600FF" stroke-width="2" stroke-miterlimit="10" x1="246" y1="714" x2="559" y2="714"/>
				<g>
					<path fill="#6600FF" d="M247.386,713.666l2.191-3.604l-0.123-0.081l-5.875,2.333c-2.047,0.451-4.094,0.9-6.141,1.352
						c2.047,0.45,4.094,0.9,6.141,1.352l5.875,2.333l0.123-0.062L247.386,713.666z"/>
				</g>
				<g>
					<path fill="#6600FF" d="M557.03,713.666l-2.191-3.604l0.123-0.081l5.875,2.333c2.047,0.451,4.094,0.9,6.141,1.352
						c-2.047,0.45-4.094,0.9-6.141,1.352l-5.875,2.333l-0.123-0.062L557.03,713.666z"/>
				</g>
			</g>
		</g>
	</g>
	<g id="C_-_WAIST_WIDTH_2_">
		<g>
			<line fill="none" stroke="#00CC00" stroke-width="2" stroke-miterlimit="10" x1="248" y1="538" x2="556" y2="538"/>
			<g>
				<path fill="#00CC00" d="M250.021,538.395l2.191-3.604l-0.123-0.081l-5.875,2.333c-2.047,0.451-4.094,0.9-6.141,1.352
					c2.047,0.45,4.094,0.9,6.141,1.352l5.875,2.333l0.123-0.062L250.021,538.395z"/>
			</g>
			<g>
				<path fill="#00CC00" d="M554.017,538.395l-2.191-3.604l0.123-0.081l5.875,2.333c2.047,0.451,4.094,0.9,6.141,1.352
					c-2.047,0.45-4.094,0.9-6.141,1.352l-5.875,2.333l-0.123-0.062L554.017,538.395z"/>
			</g>
		</g>
	</g>
	<g id="B_-_CHEST_WIDTH_2_">
		<g>
			<line fill="none" stroke="#0033FF" stroke-width="2" stroke-miterlimit="10" x1="251" y1="392" x2="554" y2="392"/>
			<g>
				<path fill="#0033FF" d="M252.731,392.034l2.191-3.603l-0.123-0.082l-5.875,2.333c-2.047,0.45-4.094,0.9-6.141,1.351
					c2.047,0.45,4.094,0.9,6.141,1.351l5.875,2.333l0.123-0.062L252.731,392.034z"/>
			</g>
			<g>
				<path fill="#0033FF" d="M551.91,392.034l-2.191-3.603l0.123-0.082l5.875,2.333c2.047,0.45,4.094,0.9,6.141,1.351
					c-2.047,0.45-4.094,0.9-6.141,1.351l-5.875,2.333l-0.123-0.062L551.91,392.034z"/>
			</g>
		</g>
	</g>
	<g id="A_-_FRONT_BODY_LENGTH_2_">
		<g>
			<line fill="none" stroke="#FF3300" stroke-width="2" stroke-miterlimit="10" x1="466" y1="215" x2="466" y2="677"/>
			<g>
				<path fill="#FF3300" d="M465.939,216.319l3.603,2.191l0.082-0.123l-2.333-5.875c-0.45-2.047-0.9-4.094-1.351-6.141
					c-0.45,2.047-0.9,4.094-1.351,6.141l-2.333,5.875l0.062,0.123L465.939,216.319z"/>
			</g>
			<g>
				<path fill="#FF3300" d="M465.939,675.41l3.603-2.191l0.082,0.123l-2.333,5.875c-0.45,2.047-0.9,4.094-1.351,6.141
					c-0.45-2.047-0.9-4.094-1.351-6.141l-2.333-5.875l0.062-0.123L465.939,675.41z"/>
			</g>
		</g>
	</g>
</g>
<g id="LETTERS">
	<g>
		<path fill="#00CCFF" d="M1058.779,458.782v-44.784c0-1.008,2.436-1.512,7.309-1.512c4.871,0,7.308,0.504,7.308,1.512v35.28h11.088
			c0.864,0,1.464,1.128,1.8,3.384c0.145,1.104,0.216,2.232,0.216,3.384c0,1.152-0.071,2.329-0.216,3.528
			c-0.385,2.304-1.008,3.456-1.872,3.456h-22.176c-1.057,0-1.896-0.432-2.52-1.296
			C1059.091,460.87,1058.779,459.887,1058.779,458.782z"/>
	</g>
	<g>
		<path fill="#FF00CC" d="M1098.293,314.758c0,0.72-2.257,1.08-6.768,1.08l-4.032-0.216c-2.401-0.191-3.601-0.527-3.601-1.008
			v-48.312c0-0.816,2.4-1.224,7.2-1.224s7.2,0.408,7.2,1.224v18.432l8.784-18.432c0.335-0.672,2.256-1.008,5.76-1.008
			c6.384,0,9.744,0.553,10.08,1.656c0,0.097-0.024,0.192-0.072,0.288l-12.527,22.608l14.544,20.088c0,0.097-0.457,0.504-1.368,1.224
			c-2.209,1.92-4.801,3.432-7.776,4.536c-0.912,0.335-1.824,0.504-2.735,0.504l-1.729-0.144c-1.537-0.384-2.736-1.368-3.6-2.952
			l-8.208-15.696h-1.152V314.758z"/>
	</g>
	<g>
		<path fill="#FF9900" d="M583.539,334.179c0-1.392,0.407-3.012,1.224-4.86c0.815-1.847,1.703-3.107,2.664-3.78
			c1.824,1.345,3.672,2.016,5.544,2.016l2.232-0.36c2.592-0.768,3.935-2.832,4.032-6.192v-18.36h-5.76
			c-0.817,0-1.393-1.032-1.728-3.096c-0.144-1.008-0.216-2.04-0.216-3.096c0-1.055,0.072-2.088,0.216-3.096
			c0.335-2.063,0.911-3.096,1.728-3.096h17.136c0.959,0,1.679,0.277,2.16,0.828c0.479,0.552,0.72,1.212,0.72,1.98v33.984
			c0,4.705-1.573,8.28-4.716,10.728c-3.144,2.448-6.912,3.672-11.304,3.672s-7.812-0.648-10.26-1.944
			C584.763,338.21,583.539,336.436,583.539,334.179z"/>
	</g>
	<g>
		<path fill="#CCCC00" d="M158.944,224.182v-25.632h-5.112c-0.817,0-1.393-1.032-1.728-3.096c-0.144-1.008-0.216-2.04-0.216-3.096
			c0-1.055,0.072-2.088,0.216-3.096c0.335-2.063,0.911-3.096,1.728-3.096h24.192c0.815,0,1.368,1.033,1.656,3.096
			c0.191,1.008,0.288,2.041,0.288,3.096c0,1.056-0.097,2.088-0.288,3.096c-0.288,2.064-0.84,3.096-1.656,3.096H173.2v25.632h5.04
			c0.816,0,1.392,1.033,1.728,3.096c0.191,1.008,0.288,2.041,0.288,3.096c0,1.056-0.097,2.088-0.288,3.096
			c-0.336,2.064-0.912,3.096-1.728,3.096h-24.264c-0.816,0-1.368-1.032-1.656-3.096c-0.192-1.008-0.288-2.04-0.288-3.096
			c0-1.055,0.096-2.088,0.288-3.096c0.288-2.063,0.839-3.096,1.656-3.096H158.944z"/>
	</g>
	<g>
		<path fill="#666699" d="M120.091,414.841c0,0.817-2.424,1.224-7.272,1.224c-4.849,0-7.272-0.407-7.272-1.224v-16.56h-10.08v16.56
			c0,0.817-2.424,1.224-7.272,1.224c-4.849,0-7.272-0.407-7.272-1.224v-47.736c0-1.008,2.423-1.512,7.272-1.512
			c4.848,0,7.272,0.504,7.272,1.512v16.92h10.08v-16.776c0-0.672,1.199-1.152,3.6-1.44c1.248-0.096,2.471-0.144,3.672-0.144
			l3.672,0.144c2.399,0.288,3.6,0.768,3.6,1.44V414.841z"/>
	</g>
	<g>
		<path fill="#FF99CC" d="M321.919,325.611l0.144-9.792c0-0.672,0.695-1.116,2.088-1.332c1.392-0.216,2.543-0.324,3.456-0.324
			l2.808,0.216c1.824,0.288,2.736,0.792,2.736,1.512l-0.288,22.536c-0.961,0.673-2.893,1.332-5.796,1.98
			c-2.905,0.648-6.228,0.972-9.972,0.972c-6.96,0-12.576-2.256-16.848-6.768c-4.272-4.511-6.408-11.135-6.408-19.872
			c0-7.44,2.088-13.488,6.264-18.144c4.176-4.655,9.96-6.984,17.352-6.984c3.359,0,6.396,0.324,9.108,0.972
			c2.711,0.648,4.572,1.524,5.58,2.628c0.047,0.385,0.072,1.105,0.072,2.16c0,1.057-0.36,2.556-1.08,4.5
			c-0.72,1.944-1.537,3.396-2.448,4.356c-0.912,0.961-1.573,1.44-1.98,1.44c-0.408,0-0.84-0.18-1.296-0.54
			c-0.457-0.36-1.356-0.743-2.7-1.152c-1.345-0.407-2.641-0.612-3.888-0.612c-2.977,0-5.389,0.96-7.236,2.88
			c-1.849,1.92-2.772,4.896-2.772,8.928c0,4.032,0.947,7.092,2.844,9.18c1.896,2.088,4.079,3.132,6.552,3.132
			C320.683,327.483,321.919,326.859,321.919,325.611z"/>
	</g>
	<g>
		<path fill="#993333" d="M551.22,129.922c0.816,0,1.224,2.124,1.224,6.372s-0.408,6.372-1.224,6.372h-13.176v8.208h8.784
			c0.815,0,1.224,1.861,1.224,5.58c0,3.721-0.385,5.58-1.152,5.58h-8.856v17.352c0,0.673-0.9,1.116-2.7,1.332
			c-1.8,0.216-3.301,0.324-4.5,0.324l-3.384-0.144c-2.353-0.288-3.528-0.768-3.528-1.44v-47.664c0-0.768,0.155-1.271,0.468-1.512
			c0.312-0.24,0.78-0.36,1.404-0.36H551.22z"/>
	</g>
	<g>
		<path fill="#66CCCC" d="M411.27,125.846c0.911,0,1.368,1.681,1.368,5.04c0,1.008-0.108,2.196-0.324,3.564
			c-0.216,1.368-0.612,2.052-1.188,2.052h-9.144v7.2h13.248c0.815,0,1.368,1.056,1.656,3.168c0.144,0.912,0.216,1.884,0.216,2.916
			c0,1.033-0.144,2.365-0.432,3.996c-0.288,1.633-0.768,2.448-1.44,2.448h-24.624c-1.825,0-2.736-0.744-2.736-2.232v-46.296
			c0-1.248,0.551-1.872,1.656-1.872h25.776c1.008,0,1.512,2.124,1.512,6.372s-0.504,6.372-1.512,6.372h-13.32v7.272H411.27z"/>
	</g>
	<g>
		<path fill="#6600FF" d="M387.323,779.922v-43.2c0-1.199,0.299-2.147,0.9-2.845c0.6-0.694,1.379-1.044,2.34-1.044h12.024
			c7.632,0,13.428,1.921,17.388,5.761c3.96,3.841,5.94,9.889,5.94,18.144c0,17.665-7.536,26.496-22.608,26.496h-12.312
			C388.547,783.233,387.323,782.13,387.323,779.922z M401.147,746.514v21.527c0,1.009,0.072,1.646,0.216,1.908
			c0.144,0.265,0.576,0.396,1.296,0.396c2.639,0,4.644-0.983,6.012-2.952c1.368-1.968,2.052-5.244,2.052-9.828
			c0-4.583-0.709-7.571-2.124-8.964c-1.417-1.392-3.661-2.088-6.732-2.088H401.147z"/>
	</g>
	<g>
		<path fill="#00CC00" d="M418.974,559.292c2.664,0.984,3.996,2.316,3.996,3.996c0,1.681-0.637,3.757-1.908,6.229
			c-1.272,2.473-2.34,3.708-3.204,3.708c-0.241,0-0.517-0.132-0.828-0.396c-0.313-0.263-1.033-0.551-2.16-0.864
			c-1.128-0.312-2.1-0.468-2.916-0.468c-2.784,0-5.029,0.984-6.732,2.952c-1.704,1.969-2.556,4.98-2.556,9.036
			c0,4.057,0.875,7.068,2.628,9.036c1.751,1.969,3.971,2.952,6.66,2.952c1.104,0,2.34-0.155,3.708-0.469
			c1.368-0.312,2.34-0.756,2.916-1.332c0.096-0.096,0.288-0.144,0.576-0.144s0.828,0.54,1.62,1.62s1.523,2.496,2.196,4.248
			c0.672,1.753,1.008,3.108,1.008,4.067c0,1.872-1.44,3.36-4.32,4.465c-2.88,1.104-6.289,1.655-10.224,1.655
			c-6.336,0-11.544-2.231-15.624-6.695c-4.08-4.465-6.12-10.765-6.12-18.9s2.099-14.531,6.3-19.188
			c4.2-4.655,9.443-6.983,15.732-6.983C413.225,557.816,416.31,558.309,418.974,559.292z"/>
	</g>
	<g>
		<path fill="#0033FF" d="M422.675,424.232c0,4.992-2.16,8.784-6.48,11.376c2.351,0.864,4.32,2.353,5.904,4.464
			c1.584,2.113,2.376,5.101,2.376,8.964c0,3.865-1.429,6.925-4.284,9.181c-2.856,2.257-6.948,3.384-12.276,3.384h-16.992
			c-0.817,0-1.489-0.275-2.016-0.828c-0.529-0.551-0.792-1.283-0.792-2.196v-46.08c0-0.528,0.083-0.875,0.252-1.044
			c0.167-0.167,0.515-0.252,1.044-0.252h16.416C417.059,411.201,422.675,415.545,422.675,424.232z M401.939,422.865v9.432h0.36
			c4.608,0,6.912-1.536,6.912-4.608c0-1.68-0.444-2.903-1.332-3.672c-0.889-0.767-2.365-1.152-4.428-1.152H401.939z
			 M401.939,440.793v9.359h1.296c2.063,0,3.575-0.384,4.536-1.151c0.96-0.768,1.44-1.991,1.44-3.673c0-1.68-0.444-2.855-1.332-3.527
			c-0.889-0.672-2.365-1.008-4.428-1.008H401.939z"/>
	</g>
	<g>
		<path fill="#FF3300" d="M438.329,341.146c-4.176,0-6.433-0.672-6.768-2.016l-2.376-9.288h-11.448l-2.088,8.928
			c-0.288,1.488-2.592,2.232-6.912,2.232c-2.304,0-4.008-0.132-5.112-0.396c-1.104-0.263-1.656-0.468-1.656-0.612l12.744-48.744
			c0-0.384,3.287-0.576,9.864-0.576c6.576,0,9.864,0.192,9.864,0.576l12.456,48.816c0,0.336-1.104,0.601-3.312,0.792
			C441.376,341.049,439.625,341.146,438.329,341.146z M419.537,320.697h7.56l-3.24-14.904h-0.432L419.537,320.697z"/>
	</g>
	<g>
	</g>
	<g>
	</g>
	<g>
	</g>
	<g>
	</g>
	<g>
	</g>
	<g>
	</g>
	<g>
	</g>
	<g>
	</g>
	<g>
	</g>
	<g>
	</g>
	<g>
	</g>
	<g>
	</g>
	<g>
	</g>
	<g>
	</g>
	<g>
	</g>
	<g>
	</g>
</g>
</svg>
